<?xml version="1.0" encoding="UTF-8" standalone="no"?>
<!-- Created with Inkscape (http://www.inkscape.org/) -->

<svg
   xmlns:dc="http://purl.org/dc/elements/1.1/"
   xmlns:cc="http://creativecommons.org/ns#"
   xmlns:rdf="http://www.w3.org/1999/02/22-rdf-syntax-ns#"
   xmlns:svg="http://www.w3.org/2000/svg"
   xmlns="http://www.w3.org/2000/svg"
   xmlns:sodipodi="http://sodipodi.sourceforge.net/DTD/sodipodi-0.dtd"
   xmlns:inkscape="http://www.inkscape.org/namespaces/inkscape"
   width="64"
   height="64"
   viewBox="0 0 63.999999 63.999999"
   id="svg4147"
   version="1.1"
   inkscape:version="0.91 r13725"
   sodipodi:docname="icon.svg">
  <defs
     id="defs4149" />
  <sodipodi:namedview
     id="base"
     pagecolor="#ffffff"
     bordercolor="#666666"
     borderopacity="1.0"
     inkscape:pageopacity="0.0"
     inkscape:pageshadow="2"
     inkscape:zoom="1.979899"
     inkscape:cx="-23.454306"
     inkscape:cy="159.91695"
     inkscape:document-units="px"
     inkscape:current-layer="layer1"
     showgrid="false"
     units="px"
     inkscape:window-width="1855"
     inkscape:window-height="1056"
     inkscape:window-x="65"
     inkscape:window-y="24"
     inkscape:window-maximized="1" />
  <metadata
     id="metadata4152">
    <rdf:RDF>
      <cc:Work
         rdf:about="">
        <dc:format>image/svg+xml</dc:format>
        <dc:type
           rdf:resource="http://purl.org/dc/dcmitype/StillImage" />
        <dc:title></dc:title>
      </cc:Work>
    </rdf:RDF>
  </metadata>
  <g
     inkscape:label="Vrstva 1"
     inkscape:groupmode="layer"
     id="layer1"
     transform="translate(0,-988.3622)">
    <g
       id="g4212"
       transform="matrix(0.22010417,0,0,0.22010417,26.988127,842.74328)">
      <path
         style="fill:#d02121"
         d="m -81.513793,895.43066 c -0.686961,-1.1 -1.590775,-2 -2.008474,-2 -1.123145,0 -5.300232,-4.37766 -5.009453,-5.25 0.1375,-0.4125 -0.425,-0.75 -1.25,-0.75 -0.825,0 -1.5,-0.46899 -1.5,-1.04221 0,-0.57321 -0.5625,-1.71383 -1.25,-2.5347 -0.6875,-0.82087 -1.705834,-2.03938 -2.262965,-2.70779 -2.456764,-2.94748 -4.527378,-6.84101 -4.049405,-7.61438 0.286413,-0.46343 1.861836,-1.11081 3.50094,-1.43863 4.217972,-0.8436 10.650393,-9.43904 18.550912,-24.789 3.580785,-6.95713 6.510518,-12.97418 6.510518,-13.37123 0,-0.39705 -2.3625,2.5707 -5.25,6.59501 -8.601985,11.98857 -16.331976,16.33775 -22.84375,12.85276 -2.96504,-1.58684 -1.386171,-2.82389 2.874761,-2.25238 3.295702,0.44205 4.447292,-0.0199 8.978128,-3.60129 4.74532,-3.75096 14.314398,-16.49464 18.530745,-24.67844 l 1.58801,-3.08227 -13.188947,-3.7736 c -7.253921,-2.07548 -13.695579,-4.28845 -14.314797,-4.91772 -0.619217,-0.62927 -1.406539,-2.34676 -1.749604,-3.81664 -0.569727,-2.44103 0.49246,-3.63691 12.262943,-13.80636 l 12.886697,-11.13385 0.418433,-6.57136 c 0.385885,-6.06021 0.704667,-6.83368 4.098222,-9.94364 4.00012,-3.66584 8.037925,-4.41969 15.312987,-2.8589 1.613763,0.34621 8.461145,-5.01863 29.395469,-23.03101 C -6.27202,726.99772 6.43959,716.43066 6.96559,716.43066 c 1.71735,0 136.23459,39.13406 136.89734,39.82649 0.35455,0.37043 0.93793,2.06827 1.29639,3.77298 0.6335,3.01269 0.11417,3.55864 -18.54941,19.5 -10.56064,9.02029 -19.66965,16.70656 -20.24225,17.08059 -0.67738,0.44248 -0.12017,3.00119 1.59496,7.32407 2.82458,7.11917 2.74705,8.25409 -0.90112,13.19081 -4.83741,6.54603 -31.84333,21.16505 -49.75624,26.93438 -8.66889,2.79205 -11.17274,4.70243 -12.90929,9.84952 -0.18164,0.53836 -1.49476,0.21581 -2.91805,-0.71676 -2.29185,-1.50168 -3.55788,-1.56581 -11.06978,-0.56072 -8.74346,1.16986 -9.11435,1.14273 -36.18986,-2.64737 -12.775862,-1.78839 -23.256465,-4.72496 -26.629599,-7.46137 -1.998135,-1.62096 -2.370401,-2.82971 -2.370401,-7.6967 l 0,-5.77375 -9.282972,-2.70265 c -8.69701,-2.53205 -9.245024,-2.58309 -8.681792,-0.8085 0.330649,1.04178 0.654917,5.83049 0.720596,10.64156 0.107479,7.873 -0.261459,9.74705 -3.690738,18.74742 -2.095585,5.5 -6.764076,16.22149 -10.374426,23.82553 -5.398066,11.3693 -6.30901,13.98978 -5.12747,14.75003 1.15543,0.74345 0.996179,1.04524 -0.813198,1.5411 -1.2375,0.33913 -2.25,1.01412 -2.25,1.49997 0,1.81687 -5.976336,0.89412 -7.232073,-1.11663 z m 23.232073,-83 c 0,-0.55 -0.648442,-1 -1.440983,-1 -0.792541,0 -1.719098,0.45 -2.059017,1 -0.339919,0.55 0.308524,1 1.440983,1 1.132459,0 2.059017,-0.45 2.059017,-1 z m 2.545141,-43.07304 c 0.315091,-0.50983 -0.578665,-0.92696 -1.986124,-0.92696 -3.090481,0 -6.559017,3.21735 -6.559017,6.08403 0,1.93258 0.289684,1.85459 3.986124,-1.07304 2.192368,-1.73639 4.243925,-3.5742 4.559017,-4.08403 z"
         id="path4222"
         inkscape:connector-curvature="0" />
      <path
         style="fill:#4c4c4c"
         d="m -73.28172,894.43066 c 0,-0.55 0.701558,-1 1.559017,-1 0.857459,0 1.280902,0.45 0.940983,1 -0.339919,0.55 -1.041476,1 -1.559017,1 -0.517541,0 -0.940983,-0.45 -0.940983,-1 z m -19.706889,-11.67855 c -0.3215,-0.83781 0.04353,-1.96692 0.811172,-2.50912 1.04605,-0.73885 0.84124,-0.86469 -0.817515,-0.50231 -2.228232,0.48679 -4.835564,-1.42789 -3.611425,-2.65203 0.361895,-0.36189 0.13299,-0.65799 -0.508676,-0.65799 -2.188988,0 -1.173929,-2.78136 1.23578,-3.38616 3.721738,-0.9341 10.507276,-9.23379 17.097553,-20.91277 3.3,-5.84811 6.150935,-10.19545 6.33541,-9.66077 0.184476,0.53469 0.775876,0.69994 1.314224,0.36722 0.538347,-0.33272 -0.407086,2.25198 -2.100963,5.74377 -1.693877,3.49179 -2.417375,5.44871 -1.607774,4.34871 4.005405,-5.44211 4.425559,-5.54814 1.981419,-0.5 -2.960405,6.11443 -2.897907,6.14011 1.49101,0.6125 1.69767,-2.13813 3.086674,-3.54611 3.086674,-3.12884 0,1.36216 -11.021764,21.95026 -13.124736,24.51634 -1.12685,1.375 -1.735382,1.825 -1.352293,1 0.383088,-0.825 -0.463922,-0.15 -1.882244,1.5 -1.418322,1.65 -2.832612,3.73891 -3.142867,4.64203 -0.78047,2.27186 -4.465134,3.10683 -5.204749,1.17942 z m 20.311917,-15.49139 c 0.486023,-0.7864 0.178131,-0.96083 -0.939187,-0.53207 -1.288762,0.49454 -0.981022,-0.71164 1.369634,-5.36827 1.667536,-3.30337 3.439071,-5.75447 3.936744,-5.44689 0.497673,0.30758 1.368833,-0.23773 1.935912,-1.2118 0.567078,-0.97407 1.044736,-1.4223 1.06146,-0.99607 0.04522,1.15254 -6.905704,14.72504 -7.54118,14.72504 -0.300545,0 -0.221067,-0.52647 0.176617,-1.16994 z m 5.054192,-2.27573 c -0.775262,-2.02031 0.711336,-5.11865 4.104404,-8.55433 l 2.468992,-2.5 -1.490125,3.57013 c -0.819569,1.96356 -2.151872,4.83311 -2.960674,6.37676 -1.229216,2.34605 -1.577556,2.52779 -2.122597,1.10744 z m 5.003925,-0.98978 c -0.604671,-1.57574 3.107507,-7.67096 5.062725,-8.31275 0.789368,-0.2591 0.474838,1.40481 -0.883325,4.67291 -2.170435,5.22265 -3.220945,6.13754 -4.1794,3.63984 z m -35.222015,-11.1363 c -1.834259,-1.48522 -1.750352,-1.53928 1.524029,-0.98197 2.867353,0.48804 4.335973,-0.01 8.512797,-2.88666 5.578631,-3.84215 9.843669,-9.03977 17.287544,-21.06758 l 4.956035,-8.00797 -13.889997,-3.92479 c -7.639499,-2.15864 -14.264795,-4.40505 -14.72288,-4.99204 -0.458086,-0.58698 -1.118928,-2.26658 -1.468539,-3.73244 -0.581885,-2.43974 0.510154,-3.65754 12.909488,-14.39606 12.65634,-10.9611 13.504063,-11.9179 12.919074,-14.58134 -0.866457,-3.94495 1.005486,-8.98041 4.62551,-12.44246 2.792411,-2.67054 3.631744,-2.90845 10.010807,-2.83753 l 6.962847,0.0774 27.111547,-23.32741 C -6.19098,726.92799 6.43959,716.43066 6.96559,716.43066 c 1.71735,0 136.23459,39.13406 136.89734,39.82649 0.35455,0.37043 0.93793,2.06827 1.29639,3.77298 0.6335,3.01269 0.11417,3.55864 -18.54941,19.5 -10.56064,9.02029 -19.66965,16.70656 -20.24225,17.08059 -0.67738,0.44248 -0.12017,3.00119 1.59496,7.32407 2.82458,7.11917 2.74705,8.25409 -0.90112,13.19081 -4.83741,6.54603 -31.84333,21.16505 -49.75624,26.93438 -8.66889,2.79205 -11.17274,4.70243 -12.90929,9.84952 -0.18164,0.53836 -1.49476,0.21581 -2.91805,-0.71676 -2.29185,-1.50168 -3.55788,-1.56581 -11.06978,-0.56072 -8.74346,1.16986 -9.11435,1.14273 -36.18986,-2.64737 -12.775862,-1.78839 -23.256465,-4.72496 -26.629599,-7.46137 -1.998975,-1.62164 -2.370401,-2.8292 -2.370401,-7.7065 l 0,-5.78355 -8.840982,-2.55129 c -8.387237,-2.42034 -8.938959,-2.75291 -10.75,-6.47984 -1.04996,-2.16071 -1.909018,-4.98733 -1.909018,-6.28139 0,-5.47655 -6.42232,-3.70046 -6.621896,1.83129 -0.313329,8.68474 -0.417491,9.36485 -1.236505,8.07353 -0.572281,-0.9023 -1.364712,0.10082 -2.567395,3.25 -0.956791,2.50532 -2.099545,4.55513 -2.539453,4.55513 -0.439909,0 -2.691535,2.90349 -5.003613,6.45221 -8.589877,13.18425 -18.238194,19.30945 -23.590008,14.97604 z m 43.078828,-47.17825 c -1.075857,-5.74199 -2.737426,-7.66245 -1.946686,-2.25 0.679963,4.6542 1.150326,6 2.097036,6 0.303751,0 0.236093,-1.6875 -0.15035,-3.75 z m -7.836844,-14.4375 c -0.319226,-0.79773 -0.556183,-0.56078 -0.604167,0.60417 -0.04342,1.05416 0.192928,1.64479 0.52522,1.3125 0.332291,-0.3323 0.367818,-1.1948 0.07895,-1.91667 z m 6.866392,-21.8926 c 1.10519,-1.78824 -2.582273,-2.12845 -5.111016,-0.47155 -2.561437,1.67831 -4.596251,5.38596 -3.746588,6.82668 0.440463,0.74687 7.677345,-4.44543 8.857604,-6.35513 z"
         id="path4220"
         inkscape:connector-curvature="0" />
      <path
         style="fill:#ac0808"
         d="m -92.988609,882.75211 c -0.3215,-0.83781 0.04353,-1.96692 0.811172,-2.50912 1.04605,-0.73885 0.84124,-0.86469 -0.817515,-0.50231 -2.228232,0.48679 -4.835564,-1.42789 -3.611425,-2.65203 0.361895,-0.36189 0.13299,-0.65799 -0.508676,-0.65799 -2.188988,0 -1.173929,-2.78136 1.23578,-3.38616 3.721738,-0.9341 10.507276,-9.23379 17.097553,-20.91277 3.3,-5.84811 6.150935,-10.19545 6.33541,-9.66077 0.184476,0.53469 0.775876,0.69994 1.314224,0.36722 0.538347,-0.33272 -0.407086,2.25198 -2.100963,5.74377 -1.693877,3.49179 -2.417375,5.44871 -1.607774,4.34871 4.005405,-5.44211 4.425559,-5.54814 1.981419,-0.5 -2.960405,6.11443 -2.897907,6.14011 1.49101,0.6125 1.69767,-2.13813 3.086674,-3.54611 3.086674,-3.12884 0,1.36216 -11.021764,21.95026 -13.124736,24.51634 -1.12685,1.375 -1.735382,1.825 -1.352293,1 0.383088,-0.825 -0.463922,-0.15 -1.882244,1.5 -1.418322,1.65 -2.832612,3.73891 -3.142867,4.64203 -0.78047,2.27186 -4.465134,3.10683 -5.204749,1.17942 z m 20.311917,-15.49139 c 0.486023,-0.7864 0.178131,-0.96083 -0.939187,-0.53207 -1.288762,0.49454 -0.981022,-0.71164 1.369634,-5.36827 1.667536,-3.30337 3.439071,-5.75447 3.936744,-5.44689 0.497673,0.30758 1.368833,-0.23773 1.935912,-1.2118 0.567078,-0.97407 1.044736,-1.4223 1.06146,-0.99607 0.04522,1.15254 -6.905704,14.72504 -7.54118,14.72504 -0.300545,0 -0.221067,-0.52647 0.176617,-1.16994 z m 5.054192,-2.27573 c -0.775262,-2.02031 0.711336,-5.11865 4.104404,-8.55433 l 2.468992,-2.5 -1.490125,3.57013 c -0.819569,1.96356 -2.151872,4.83311 -2.960674,6.37676 -1.229216,2.34605 -1.577556,2.52779 -2.122597,1.10744 z m 5.003925,-0.98978 c -0.604671,-1.57574 3.107507,-7.67096 5.062725,-8.31275 0.789368,-0.2591 0.474838,1.40481 -0.883325,4.67291 -2.170435,5.22265 -3.220945,6.13754 -4.1794,3.63984 z m -35.222015,-11.1363 c -1.834259,-1.48522 -1.750352,-1.53928 1.524029,-0.98197 2.867353,0.48804 4.335973,-0.01 8.512797,-2.88666 2.7762,-1.91204 6.686508,-5.63265 8.689573,-8.26803 4.170032,-5.48639 14.095995,-21.29159 13.37152,-21.29159 -2.336746,0 -28.121514,-8.31644 -28.723553,-9.26429 -2.475014,-3.89669 -0.884065,-6.13638 12.243243,-17.23571 12.898207,-10.90562 13.004791,-11.03041 12.422306,-14.54487 -0.710763,-4.28841 0.762193,-8.52843 4.223115,-12.15654 3.05188,-3.19932 6.930123,-4.23048 12.672358,-3.36938 4.295166,0.6441 4.449684,0.87317 4.878495,7.23225 0.04308,0.6388 5.29082,-3.38787 11.661654,-8.94817 6.370833,-5.56029 12.297594,-10.69891 13.170579,-11.41915 1.573607,-1.29828 57.426264,-18.21202 60.705524,-18.38332 0.93897,-0.0491 -3.46777,-1.78144 -9.79277,-3.84975 -9.64201,-3.15299 -11.55243,-4.11407 -11.8245,-5.94857 -0.39765,-2.68127 -8.79249,-4.81327 65.92955,16.74379 l 61.39495,17.71223 1.11068,3.40211 1.11069,3.40211 -20.11069,17.25155 c -11.06087,9.48836 -20.40646,16.942 -20.76797,16.56364 -0.36152,-0.37836 -2.7811,-5.77746 -5.37686,-11.998 -3.10638,-7.4442 -5.54139,-11.84855 -7.12392,-12.88546 -1.32239,-0.86646 -2.56856,-1.40193 -2.76926,-1.18993 -0.2007,0.212 2.73057,8.71046 6.51393,18.88546 3.78337,10.175 6.75846,18.88448 6.61133,19.35439 -0.14714,0.46991 -5.60762,2.60709 -12.13441,4.74928 -6.52678,2.14219 -13.82129,4.98723 -16.21002,6.32232 l -4.34314,2.42743 -3.86917,-3.8307 c -4.2616,-4.21922 -7.31902,-6.00816 -15.30974,-8.95797 -5.28686,-1.95166 -16.2481,-3.31477 -17.39916,-2.1637 -0.32943,0.32942 -0.89896,0.63106 -1.26562,0.67031 -1.60536,0.17183 -6.16667,2.82663 -6.16667,3.58916 0,0.46171 -0.675,0.83948 -1.5,0.83948 -0.825,0 -1.5,0.675 -1.5,1.5 0,0.825 -0.70156,1.5 -1.55902,1.5 -0.85746,0 -1.27893,0.45318 -0.93661,1.00706 0.34231,0.55389 -0.004,1.24762 -0.77068,1.54164 -0.76619,0.29401 -2.0037,2.09083 -2.75003,3.99293 -0.74632,1.90211 -1.61046,3.4592 -1.92031,3.46021 -0.30984,10e-4 -0.67219,2.32235 -0.80521,5.15852 -0.13302,2.83618 -0.39768,5.31251 -0.58814,5.50297 -0.19046,0.19046 -2.73054,-0.10587 -5.64463,-0.65852 -5.70571,-1.08206 -24.649392,-1.16979 -29.476089,-0.1365 -1.622896,0.34743 4.002104,0.63169 12.5,0.63169 16.677159,0 20.887179,0.80893 33.988129,6.53058 5.25863,2.29664 8.18345,2.8948 14.9523,3.05794 l 8.41488,0.20282 2.4883,-3.39567 c 4.67068,-6.37389 14.74526,-15.45282 21.68111,-19.5384 13.99757,-8.24533 37.426,-15.23714 37.426,-11.16915 0,7.0569 -27.4723,23.82623 -52.4219,31.99879 -8.05555,2.6387 -10.21875,3.77207 -11.5,6.02525 -1.78577,3.14039 -2.54998,3.30287 -6.0781,1.29227 -1.98741,-1.13258 -5.37049,-1.30126 -16.5,-0.82267 -14.85515,0.63879 -33.839447,-0.75577 -43.748552,-3.21371 -6.191605,-1.53582 -13.751448,-5.00628 -13.751448,-6.31281 0,-0.44226 2.1375,-1.55508 4.75,-2.47293 4.336133,-1.52342 3.083662,-1.55653 -2.5,-0.0661 -2.111196,0.56355 -2.25,0.29522 -2.25,-4.34952 0,-5.54614 1.543286,-4.51035 -13,-8.72512 -4.854397,-1.40684 -5.718286,-2.0671 -7.359615,-5.62481 -1.022788,-2.21698 -1.60112,-4.28937 -1.285183,-4.6053 1.059722,-1.05972 -1.404985,-4.31146 -3.267941,-4.31146 -2.589292,0 -4.270508,2.38615 -4.008555,5.68933 0.410818,5.18036 -0.05345,8.89878 -0.937107,7.50554 -0.572281,-0.9023 -1.364712,0.10082 -2.567395,3.25 -0.956791,2.50532 -2.099545,4.55513 -2.539453,4.55513 -0.439909,0 -2.691535,2.90349 -5.003613,6.45221 -8.589877,13.18425 -18.238194,19.30945 -23.590008,14.97604 z m 43.078828,-47.17825 c -1.075857,-5.74199 -2.737426,-7.66245 -1.946686,-2.25 0.679963,4.6542 1.150326,6 2.097036,6 0.303751,0 0.236093,-1.6875 -0.15035,-3.75 z m -24.392403,-7 c 1.243871,-1.58606 1.208501,-1.62143 -0.377555,-0.37756 -1.665748,1.30637 -2.195479,2.12756 -1.372445,2.12756 0.207656,0 0.995156,-0.7875 1.75,-1.75 z m 16.555559,-7.4375 c -0.319226,-0.79773 -0.556183,-0.56078 -0.604167,0.60417 -0.04342,1.05416 0.192928,1.64479 0.52522,1.3125 0.332291,-0.3323 0.367818,-1.1948 0.07895,-1.91667 z m -7.555559,-0.5625 c 1.243871,-1.58606 1.208501,-1.62143 -0.377555,-0.37756 -0.9625,0.75485 -1.75,1.54235 -1.75,1.75 0,0.82304 0.821186,0.29331 2.127555,-1.37244 z m 9,-8 c 1.243871,-1.58606 1.208501,-1.62143 -0.377555,-0.37756 -0.9625,0.75485 -1.75,1.54235 -1.75,1.75 0,0.82304 0.821186,0.29331 2.127555,-1.37244 z m 8.435354,-7.5 2.937091,-3.25 -3.25,2.93709 c -3.029455,2.73778 -3.709652,3.56291 -2.937091,3.56291 0.1721,0 1.6346,-1.4625 3.25,-3.25 z m -3.448044,-7.11195 c -3.691428,-1.64716 -9.834708,4.27882 -8.385372,8.08876 0.297624,0.78238 2.27166,-0.29516 5.44914,-2.97445 4.609104,-3.88645 4.829123,-4.26968 2.936232,-5.11431 z"
         id="path4218"
         inkscape:connector-curvature="0" />
      <path
         style="fill:#2e2e2e"
         d="m 39.71828,850.93509 c -1.98741,-1.13258 -5.37049,-1.30126 -16.5,-0.82267 -14.85515,0.63879 -33.839447,-0.75577 -43.748552,-3.21371 -6.191605,-1.53582 -13.751448,-5.00628 -13.751448,-6.31281 0,-0.44226 2.1375,-1.55281 4.75,-2.4679 4.357108,-1.52618 2.883004,-1.57248 -2.5,-0.0785 -2.114772,0.58692 -2.25,0.32645 -2.25,-4.33389 0,-5.55583 1.544572,-4.51819 -13,-8.73334 -4.748459,-1.37614 -5.732963,-2.10278 -7.204888,-5.31776 -1.71633,-3.74881 -1.765764,-5.1702 -0.298399,-8.58005 0.439337,-1.02093 0.394805,-3.93612 -0.09896,-6.47819 -0.666645,-3.43213 -1.54133,-4.9402 -3.397754,-5.85815 -2.06871,-1.02292 -2.685898,-2.35646 -3.57757,-7.72995 -0.919099,-5.53878 -0.845568,-6.74923 0.5,-8.23086 1.443207,-1.58914 1.438503,-1.63314 -0.05523,-0.51667 -1.407671,1.05214 -1.695113,0.79588 -2.084701,-1.85855 -0.407641,-2.77744 0.223023,-3.6613 6.439769,-9.02518 3.790412,-3.27045 7.316028,-5.94625 7.834697,-5.94625 0.836772,0 1.431244,3.06704 1.033718,5.33322 -0.08039,0.45827 5.153822,-3.79341 11.631579,-9.44817 6.477756,-5.65476 12.492,-10.87067 13.364985,-11.59091 1.573607,-1.29828 57.426264,-18.21202 60.705524,-18.38332 0.93897,-0.0491 -3.46777,-1.78144 -9.79277,-3.84975 -9.64201,-3.15299 -11.55243,-4.11407 -11.8245,-5.94857 -0.39765,-2.68127 -8.79249,-4.81327 65.92955,16.74379 l 61.39495,17.71223 1.11068,3.40211 1.11069,3.40211 -20.11069,17.25155 c -11.06087,9.48836 -20.40646,16.942 -20.76797,16.56364 -0.36152,-0.37836 -2.7811,-5.77746 -5.37686,-11.998 -3.10638,-7.4442 -5.54139,-11.84855 -7.12392,-12.88546 -1.32239,-0.86646 -2.56856,-1.40193 -2.76926,-1.18993 -0.2007,0.212 2.73057,8.71046 6.51393,18.88546 3.78337,10.175 6.75846,18.88448 6.61133,19.35439 -0.14714,0.46991 -5.60762,2.60709 -12.13441,4.74928 -6.52678,2.14219 -13.82129,4.98723 -16.21002,6.32232 l -4.34314,2.42743 -3.86917,-3.8307 c -4.2616,-4.21922 -7.31902,-6.00816 -15.30974,-8.95797 -5.28686,-1.95166 -16.2481,-3.31477 -17.39916,-2.1637 -0.32943,0.32942 -0.89896,0.63106 -1.26562,0.67031 -1.60536,0.17183 -6.16667,2.82663 -6.16667,3.58916 0,0.46171 -0.675,0.83948 -1.5,0.83948 -0.825,0 -1.5,0.675 -1.5,1.5 0,0.825 -0.70156,1.5 -1.55902,1.5 -0.85746,0 -1.27893,0.45318 -0.93661,1.00706 0.34231,0.55389 -0.004,1.24762 -0.77068,1.54164 -0.76619,0.29401 -2.0037,2.09083 -2.75003,3.99293 -0.74632,1.90211 -1.61046,3.4592 -1.92031,3.46021 -0.30984,10e-4 -0.67219,2.32235 -0.80521,5.15852 -0.13302,2.83618 -0.39768,5.31251 -0.58814,5.50297 -0.19046,0.19046 -2.73054,-0.10587 -5.64463,-0.65852 -5.70571,-1.08206 -24.649392,-1.16979 -29.476089,-0.1365 -1.622896,0.34743 4.002104,0.63169 12.5,0.63169 16.677159,0 20.887179,0.80893 33.988129,6.53058 5.25863,2.29664 8.18345,2.8948 14.9523,3.05794 l 8.41488,0.20282 2.4883,-3.39567 c 4.67068,-6.37389 14.74526,-15.45282 21.68111,-19.5384 13.99757,-8.24533 37.426,-15.23714 37.426,-11.16915 0,7.0569 -27.4723,23.82623 -52.4219,31.99879 -8.05555,2.6387 -10.21875,3.77207 -11.5,6.02525 -1.78577,3.14039 -2.54998,3.30287 -6.0781,1.29227 z m -92.437091,-75.75443 2.937091,-3.25 -3.25,2.93709 c -3.029455,2.73778 -3.709652,3.56291 -2.937091,3.56291 0.1721,0 1.6346,-1.4625 3.25,-3.25 z m -28.005327,40.12936 c -7.11833,-2.1362 -13.310563,-4.44546 -13.760519,-5.13168 -2.352613,-3.58795 -0.305171,-6.4714 12.202937,-17.18563 l 12.5,-10.70728 1.292849,5.32261 c 0.711068,2.92744 1.510455,8.90032 1.776416,13.27307 0.304453,5.0056 1.029382,8.55357 1.95715,9.57874 2.660189,2.93947 1.258657,9.21703 -1.976415,8.85249 -0.5775,-0.0651 -6.874088,-1.86611 -13.992418,-4.00232 z m 1.569973,-16.62936 c 1.243871,-1.58606 1.208501,-1.62143 -0.377555,-0.37756 -1.665748,1.30637 -2.195479,2.12756 -1.372445,2.12756 0.207656,0 0.995156,-0.7875 1.75,-1.75 z m 9,-8 c 1.243871,-1.58606 1.208501,-1.62143 -0.377555,-0.37756 -0.9625,0.75485 -1.75,1.54235 -1.75,1.75 0,0.82304 0.821186,0.29331 2.127555,-1.37244 z"
         id="path4216"
         inkscape:connector-curvature="0" />
      <path
         style="fill:#131414"
         d="m -6.922751,848.91639 c -12.47286,-1.43353 -20.423458,-3.49014 -24.80658,-6.41681 l -2.947611,-1.96816 2.573266,-0.97835 c 7.253118,-2.75763 12.353073,-3.51829 23.821956,-3.55306 15.00178,-0.0455 21.41586,1.44815 35,8.15032 l 9.5,4.68713 -6.5,0.67972 c -10.00355,1.04608 -24.36005,0.81068 -36.641031,-0.60079 z m 56.641031,-4.16337 c 0,-1.27092 8.04232,-10.66269 12,-14.01353 11.90044,-10.07569 27.18229,-16.90319 44.25,-19.76966 4.53684,-0.76194 4.80715,0.38606 1.20338,5.11083 -3.11933,4.08966 -11.08856,9.58155 -23.53687,16.22011 -13.77145,7.34417 -33.91651,14.74032 -33.91651,12.45225 z m -83.69345,-11.26288 0.563024,-4.75386 -9.836235,-2.74711 c -8.565785,-2.39228 -9.895209,-3.0556 -10.292825,-5.13559 -0.469643,-2.45678 0.391379,-2.83189 18.398272,-8.01536 1.155017,-0.33248 1.844337,-2.15966 2.335096,-6.18965 0.382971,-3.14485 1.517918,-7.59696 2.522104,-9.89358 5.873793,-13.43362 30.126564,-28.61604 53.377044,-33.41444 10.31628,-2.12906 30.0236,-2.54701 40.62697,-0.86161 8.56188,1.36091 22.08461,4.99598 21.61087,5.80926 -0.20583,0.35335 2.86017,9.86746 6.81332,21.14246 6.89361,19.66161 7.10348,20.5266 5.13169,21.15032 -3.69859,1.16995 -4.4678,0.89373 -7.78163,-2.79435 -7.49577,-8.34232 -20.7204,-18.35597 -24.24199,-18.35597 -0.84274,0 -1.53577,-0.5625 -1.54006,-1.25 -0.009,-1.44864 -4.85912,-3.95028 -6.13267,-3.16319 -0.47274,0.29217 -0.85953,-0.17033 -0.85953,-1.02779 0,-0.85746 -0.675,-1.55902 -1.5,-1.55902 -0.825,0 -1.5,-0.45 -1.5,-1 0,-0.55 -0.9,-1 -2,-1 -1.1,0 -2,-0.45 -2,-1 0,-0.55 -0.675,-1 -1.5,-1 -0.825,0 -1.5,-0.39992 -1.5,-0.88871 0,-0.48879 -1.575,-1.18418 -3.5,-1.54531 -1.925,-0.36113 -3.5,-1.08621 -3.5,-1.61129 0,-0.52508 -0.675,-0.95469 -1.5,-0.95469 -0.825,0 -1.5,-0.47656 -1.5,-1.05902 0,-0.58246 -0.40316,-0.80984 -0.89592,-0.5053 -0.49276,0.30454 -2.18026,-0.11613 -3.75,-0.93483 -1.56974,-0.81869 -3.41658,-1.4913 -4.10408,-1.49469 -0.6875,-0.003 -1.25,-0.37822 -1.25,-0.83297 0,-0.45474 -1.35,-0.62867 -3,-0.3865 -1.65,0.24217 -3,0.83923 -3,1.32681 0,0.48758 -0.70156,0.8865 -1.55902,0.8865 -0.85746,0 -1.2809,0.45 -0.94098,1 0.33992,0.55 0.12102,1 -0.48644,1 -1.39793,0 -6.59818,5.15755 -6.26356,6.21212 0.1375,0.43333 -0.425,0.78788 -1.25,0.78788 -0.825,0 -1.5,0.45 -1.5,1 0,0.55 -0.66088,1 -1.46862,1 -0.89459,0 -1.24363,0.58629 -0.89301,1.5 0.37368,0.97378 -0.0257,1.5 -1.13837,1.5 -1.11269,0 -1.51205,0.52622 -1.13837,1.5 0.31658,0.825 0.10758,1.5 -0.46444,1.5 -1.56661,0 -3.89719,2.64836 -3.89719,4.42857 0,0.86429 -0.70156,1.57143 -1.55902,1.57143 -0.85746,0 -1.31004,0.40285 -1.00574,0.89522 0.3043,0.49236 -0.16583,1.17116 -1.04474,1.50842 -0.9111,0.34963 -1.35197,1.25437 -1.02564,2.10479 0.34722,0.90483 -0.00534,1.49157 -0.89624,1.49157 -0.807743,0 -1.46862,0.675 -1.46862,1.5 0,0.825 -0.45,1.5 -1,1.5 -0.55,0 -1,0.675 -1,1.5 0,0.825 -0.632871,1.5 -1.40638,1.5 -0.914051,0 -1.223291,0.70014 -0.883369,2 0.36058,1.37886 0.03068,2 -1.062235,2 -0.931949,0 -1.368441,0.56499 -1.059161,1.37096 0.289348,0.75402 -0.167189,1.63699 -1.014526,1.96214 -0.890511,0.34172 -1.291591,1.24013 -0.950481,2.12905 0.381911,0.99524 0.01641,1.53785 -1.035911,1.53785 -1.2351,0 -1.475184,0.60106 -0.998581,2.5 0.462451,1.84255 0.229102,2.5 -0.887328,2.5 -1.022459,0 -1.344802,0.65003 -0.991777,2 0.348789,1.33377 0.03068,2 -0.954948,2 -1.037265,0 -1.335459,0.74544 -1.000054,2.5 0.278972,1.45935 0.01312,2.5 -0.638672,2.5 -0.614117,0 -1.117421,1.0125 -1.118454,2.25 -0.0016,1.86993 -0.952275,2.52984 -5.628237,3.90667 l -5.626361,1.65667 0.563025,-4.75386 z m -60.706589,-24.65958 c -0.329978,-0.85991 -0.576919,-2.31417 -0.548757,-3.23169 0.04291,-1.39815 12.4082,-12.58499 21.64968,-19.58641 l 2.531911,-1.91819 -0.664603,3.41819 c -0.50413,2.59286 -2.886433,5.54174 -9.866397,12.2129 -10.731425,10.25666 -12.253949,11.31475 -13.101834,9.1052 z M 100.17554,786.12875 c -5.24223,-12.48331 -6.06549,-14.73308 -4.80159,-13.12148 0.58023,0.73985 7.6606,-0.95305 22.63593,-5.41221 l 21.79159,-6.48882 -30.29159,-9.26641 c -38.1162,-11.66002 -35.15729,-10.5268 -33.47904,-12.82194 1.29417,-1.76988 2.82326,-1.43228 34.10504,7.52991 34.13183,9.77871 35.4329,10.35804 34.2095,15.23246 -0.29862,1.18983 -9.30094,9.67456 -20.00515,18.85495 l -19.46219,16.69163 -4.7025,-11.19809 z"
         id="path4214"
         inkscape:connector-curvature="0" />
    </g>
  </g>
</svg>
