<?xml version="1.0" encoding="UTF-8" standalone="no"?>
<!-- Created with Inkscape (http://www.inkscape.org/) -->

<svg
   xmlns:dc="http://purl.org/dc/elements/1.1/"
   xmlns:cc="http://creativecommons.org/ns#"
   xmlns:rdf="http://www.w3.org/1999/02/22-rdf-syntax-ns#"
   xmlns:svg="http://www.w3.org/2000/svg"
   xmlns="http://www.w3.org/2000/svg"
   xmlns:sodipodi="http://sodipodi.sourceforge.net/DTD/sodipodi-0.dtd"
   xmlns:inkscape="http://www.inkscape.org/namespaces/inkscape"
   width="64"
   height="64"
   viewBox="0 0 63.999999 63.999999"
   id="svg4147"
   version="1.1"
   inkscape:version="0.91 r13725"
   sodipodi:docname="icon.svg">
  <sodipodi:namedview
     id="base"
     pagecolor="#ffffff"
     bordercolor="#666666"
     borderopacity="1.0"
     inkscape:pageopacity="0.0"
     inkscape:pageshadow="2"
     inkscape:zoom="3.959798"
     inkscape:cx="68.385349"
     inkscape:cy="-3.7701728"
     inkscape:document-units="px"
     inkscape:current-layer="layer1"
     showgrid="false"
     units="px"
     inkscape:window-width="1855"
     inkscape:window-height="1056"
     inkscape:window-x="65"
     inkscape:window-y="24"
     inkscape:window-maximized="1" />
  <defs
     id="defs4149" />
  <metadata
     id="metadata4152">
    <rdf:RDF>
      <cc:Work
         rdf:about="">
        <dc:format>image/svg+xml</dc:format>
        <dc:type
           rdf:resource="http://purl.org/dc/dcmitype/StillImage" />
        <dc:title></dc:title>
      </cc:Work>
    </rdf:RDF>
  </metadata>
  <g
     transform="translate(0,-988.3622)"
     id="layer1"
     inkscape:groupmode="layer"
     inkscape:label="Vrstva 1">
    <g
       id="g4486"
       transform="matrix(0.06942757,0,0,0.06942757,31.039285,948.54854)">
      <path
         style="fill:#fecca2"
         d="m -321.99792,1425.3075 c 1.14232,-1.3121 11.02713,-12.2587 21.96624,-24.3257 10.93911,-12.0669 19.22949,-21.685 18.42306,-21.3735 -0.80643,0.3115 -13.61624,7.3635 -28.46624,15.6711 l -27,15.1046 -3.21245,-3.7311 c -1.76685,-2.0521 -3.22935,-4.2727 -3.25,-4.9347 -0.0206,-0.662 26.34616,-30.341 58.59293,-65.9533 l 58.63047,-64.7496 -5.88047,-4.9497 c -9.39086,-7.9044 -36.3294,-35.5127 -42.86738,-43.9331 -3.2928,-4.2409 -6.58186,-7.7107 -7.30902,-7.7107 -0.72716,0 -1.05989,-0.4243 -0.7394,-0.9428 0.32049,-0.5186 -2.07001,-4.6811 -5.31223,-9.25 -33.56064,-47.2937 -53.21937,-104.3025 -57.17636,-165.8072 -0.98401,-15.2948 -0.90601,-21.0005 0.60154,-43.99999 2.70428,-41.25729 17.71898,-91.10585 38.9176,-129.20577 50.15617,-90.14483 141.17294,-151.38601 242.59151,-163.22916 36.30458,-4.23947 76.70463,-2.19883 108.84306,5.49775 l 8.5702,2.05241 29.92004,-30.18992 29.92004,-30.18993 129.57996,-4.26731 c 71.26898,-2.34703 129.78715,-4.0678 130.04038,-3.82394 0.25324,0.24386 -4.47176,5.03282 -10.5,10.64213 -6.02823,5.60931 -13.21042,12.31812 -15.96042,14.90847 l -5,4.70973 16,-0.5664 16,-0.56641 -4.5,4.48083 c -2.475,2.46446 -35.775,33.62717 -74,69.25046 -38.225,35.62329 -70.70002,65.9458 -72.16672,67.38334 l -2.66671,2.61372 9.46927,12.5 c 31.95527,42.18286 52.61622,89.93938 61.24096,141.55476 6.52688,39.06053 5.24265,84.04793 -3.52391,123.44523 -18.84934,84.7098 -73.10827,159.4519 -148.71104,204.8506 -47.00292,28.2248 -99.19772,43.3509 -154.76417,44.851 -39.44904,1.0649 -76.27787,-4.1689 -110.30425,-15.6755 l -8.92657,-3.0186 -92.07343,51.3634 c -50.64039,28.2499 -93.19843,51.9343 -94.57343,52.632 l -2.5,1.2685 z"
         id="path4502"
         inkscape:connector-curvature="0"
         sodipodi:nodetypes="cssscscscssscsssssscccscsscccssscsssssscsccc" />
      <path
         style="fill:#efee0f"
         d="m -340.60093,1405.3889 -3.19412,-4.0329 7.91529,-8.7171 c 4.35341,-4.7944 29.66797,-32.7921 56.25457,-62.2171 26.58661,-29.425 49.63106,-54.8784 51.20988,-56.5631 l 2.8706,-3.0632 -6.73605,-5.4368 c -9.91982,-8.0066 -29.4475,-27.8042 -40.37874,-40.9369 -24.04122,-28.8829 -45.36882,-67.7895 -57.28424,-104.5 -11.68502,-36.0006 -16.47014,-70.2193 -15.3124,-109.5 2.05726,-69.80042 25.85943,-134.66202 69.76154,-190.10224 10.24024,-12.93152 36.27932,-39.06339 48.91974,-49.09407 46.83217,-37.16321 96.24783,-58.69271 156,-67.96636 12.57015,-1.95091 18.49279,-2.25621 44.5,-2.29387 32.24722,-0.0467 37.30682,0.3979 64.40416,5.65946 l 16.40416,3.18523 29.59584,-30.16617 29.59584,-30.16618 126.67043,-4.10199 c 69.66873,-2.2561 127.91854,-3.95616 129.44402,-3.7779 2.56915,0.30021 1.59256,1.42979 -13.24859,15.3241 -8.81221,8.25 -46.24952,43.27721 -83.19403,77.83823 -36.94451,34.56103 -67.17183,63.06395 -67.17183,63.33982 0,0.27587 3.07919,3.94867 6.84263,8.16177 30.44132,34.0784 54.86837,77.58138 68.20201,121.46329 24.88958,81.91338 15.35126,172.81628 -25.99048,247.69688 -7.18648,13.0166 -20.51143,32.9478 -30.25626,45.2568 -10.42426,13.1672 -37.37389,40.1169 -50.5411,50.5411 -66.71605,52.818 -149.66858,76.9382 -234.2568,68.1151 -29.60227,-3.0877 -65.45679,-12.3636 -91.96665,-23.7926 l -9.0418,-3.8981 -57.74577,32.1735 c -94.0355,52.3927 -117.90024,65.6042 -118.50506,65.6042 -0.31496,0 -2.01002,-1.8148 -3.76679,-4.0329 z M -7.32486,772.27364 c 27.3625,-27.53005 49.75,-50.38115 49.75,-50.78021 0,-0.39907 -3.7125,-1.30183 -8.25,-2.00613 -45.97417,-7.13604 -93.24562,-5.68952 -134.25,4.10809 -65.83489,15.73062 -107.5,48.91843 -107.5,85.62774 0,4.37177 0.26625,9.27992 0.59166,10.90699 l 0.59166,2.95831 74.65834,-0.38008 74.65834,-0.38007 49.75,-50.05464 z"
         id="path4500"
         inkscape:connector-curvature="0" />
      <path
         style="fill:#f7d10f"
         d="m -340.60093,1405.3889 -3.19412,-4.0329 7.91529,-8.7171 c 4.35341,-4.7944 29.66797,-32.7921 56.25457,-62.2171 26.58661,-29.425 49.63106,-54.8784 51.20988,-56.5631 l 2.8706,-3.0632 -6.73605,-5.4368 c -9.91982,-8.0066 -29.4475,-27.8042 -40.37874,-40.9369 -24.04122,-28.8829 -45.36882,-67.7895 -57.28424,-104.5 -11.68502,-36.0006 -16.47014,-70.2193 -15.3124,-109.5 2.05726,-69.80042 25.85943,-134.66202 69.76154,-190.10224 10.24024,-12.93152 36.27932,-39.06339 48.91974,-49.09407 46.83217,-37.16321 96.24783,-58.69271 156,-67.96636 12.57015,-1.95091 18.49279,-2.25621 44.5,-2.29387 32.24722,-0.0467 37.30682,0.3979 64.40416,5.65946 l 16.40416,3.18523 29.59584,-30.16617 29.59584,-30.16618 126.67043,-4.10199 c 69.66873,-2.2561 127.91854,-3.95616 129.44402,-3.7779 2.56915,0.30021 1.59256,1.42979 -13.24859,15.3241 -8.81221,8.25 -46.24952,43.27721 -83.19403,77.83823 -36.94451,34.56103 -67.17183,63.06395 -67.17183,63.33982 0,0.27587 3.07919,3.94867 6.84263,8.16177 30.44132,34.0784 54.86837,77.58138 68.20201,121.46329 24.88958,81.91338 15.35126,172.81628 -25.99048,247.69688 -7.18648,13.0166 -20.51143,32.9478 -30.25626,45.2568 -10.42426,13.1672 -37.37389,40.1169 -50.5411,50.5411 -66.71605,52.818 -149.66858,76.9382 -234.2568,68.1151 -29.60227,-3.0877 -65.45679,-12.3636 -91.96665,-23.7926 l -9.0418,-3.8981 -57.74577,32.1735 c -94.0355,52.3927 -117.90024,65.6042 -118.50506,65.6042 -0.31496,0 -2.01002,-1.8148 -3.76679,-4.0329 z m 97.99841,-61.2414 c 80.7043,-45.1769 83.31287,-46.6569 84.6922,-48.0497 1.02205,-1.0321 317.36356,-636.01932 316.98359,-636.2761 -0.0815,-0.0551 -9.19275,0.11339 -20.24728,0.37433 l -20.09915,0.47444 -57.90085,58.96216 c -31.84547,32.42919 -95.31062,97.06074 -141.03368,143.62567 -45.72306,46.56493 -83.04281,84.76876 -82.93279,84.89739 0.21209,0.24796 96.44231,3.73687 134.81562,4.88785 12.5125,0.37531 22.75,0.73608 22.75,0.80172 0,0.0656 -24.86153,24.85972 -55.24786,55.09794 -30.38632,30.2382 -86.64224,86.2536 -125.01316,124.4786 l -69.76531,69.5 26.26316,0.62 c 14.44475,0.3409 37.85067,0.6784 52.01317,0.75 14.1625,0.072 25.75,0.506 25.75,0.9655 0,0.4595 -14.16407,16.4431 -31.4757,35.5192 -88.61582,97.6478 -126.5243,139.6388 -126.5243,140.1501 0,0.752 -3.8695,2.877 66.97234,-36.7791 z M -7.32486,772.27364 c 27.3625,-27.53005 49.75,-50.38115 49.75,-50.78021 0,-0.39907 -3.7125,-1.30183 -8.25,-2.00613 -45.97417,-7.13604 -93.24562,-5.68952 -134.25,4.10809 -65.83489,15.73062 -107.5,48.91843 -107.5,85.62774 0,4.37177 0.26625,9.27992 0.59166,10.90699 l 0.59166,2.95831 74.65834,-0.38008 74.65834,-0.38007 49.75,-50.05464 z"
         id="path4498"
         inkscape:connector-curvature="0" />
      <path
         style="fill:#fd8c02"
         d="m -340.62812,1405.3546 -3.22131,-4.0673 3.49903,-3.6827 c 1.92446,-2.0255 27.47161,-30.2328 56.77143,-62.6828 29.29982,-32.45 54.34205,-60.1548 55.6494,-61.5663 l 2.377,-2.5664 -6.73212,-5.4336 c -9.91623,-8.0037 -29.4452,-27.8029 -40.37481,-40.9337 -24.04122,-28.8829 -45.36882,-67.7895 -57.28424,-104.5 -11.68502,-36.0006 -16.47014,-70.2193 -15.3124,-109.5 2.05726,-69.80042 25.85943,-134.66202 69.76154,-190.10224 10.24024,-12.93152 36.27932,-39.06339 48.91974,-49.09407 46.83217,-37.16321 96.24783,-58.69271 156,-67.96636 12.57015,-1.95091 18.49279,-2.25621 44.5,-2.29387 32.25558,-0.0467 37.30367,0.3972 64.44117,5.66679 l 16.44118,3.19256 29.55882,-30.1242 29.55883,-30.1242 128.8331,-4.16077 c 70.85821,-2.28842 129.03549,-3.95838 129.28284,-3.71102 0.24736,0.24736 -6.71123,7.14746 -15.46354,15.33357 -100.01478,93.54465 -150.1524,140.64684 -150.1524,141.06187 0,0.27587 3.07919,3.94867 6.84263,8.16177 30.44132,34.0784 54.86837,77.58138 68.20201,121.46329 24.88958,81.91338 15.35126,172.81628 -25.99048,247.69688 -7.18648,13.0166 -20.51143,32.9478 -30.25626,45.2568 -10.42426,13.1672 -37.37389,40.1169 -50.5411,50.5411 -66.71605,52.818 -149.66858,76.9382 -234.2568,68.1151 -29.60192,-3.0876 -65.45682,-12.3636 -91.96591,-23.7923 l -9.04106,-3.8978 -58.74651,32.7141 c -86.60793,48.2292 -117.0306,65.063 -117.58395,65.063 -0.27198,0 -1.9441,-1.8302 -3.71583,-4.0672 z m 131.05326,-79.2228 c 54.175,-30.252 137.2,-76.5831 184.5,-102.958 47.3,-26.3749 86.44012,-48.3714 86.97803,-48.8812 0.60192,-0.5704 -3.8206,-0.7287 -11.5,-0.4116 -6.86291,0.2833 -41.05303,0.742 -75.97803,1.0191 -50.65859,0.402 -63.18571,0.253 -61.94585,-0.7372 0.85478,-0.6826 72.82431,-58.1661 159.93229,-127.7411 L 230.78972,919.92181 146.5682,919.29924 c -46.32184,-0.34241 -84.45003,-0.85107 -84.72931,-1.13035 -0.27928,-0.27928 47.10087,-44.99169 105.28923,-99.36091 58.18836,-54.36922 121.69613,-113.71056 141.12838,-131.86965 21.96775,-20.52847 34.74049,-33.13742 33.76918,-33.33615 -0.85919,-0.1758 -29.80831,0.6109 -64.33136,1.74821 -34.52305,1.13732 -84.36918,2.7551 -110.76918,3.59507 l -48,1.52722 -26.57469,26.72457 c -14.61608,14.69851 -78.21155,79.36453 -141.32326,143.70226 -92.53024,94.32776 -114.39553,117.11006 -112.92531,117.66128 1.00279,0.37596 33.09826,1.66303 71.32326,2.86014 38.225,1.19712 72.73193,2.47455 76.68207,2.83873 l 7.18207,0.66215 -124.95005,123.99999 -124.95006,124 14.76798,0.6209 c 8.1224,0.3415 25.34299,0.7356 38.26799,0.8757 12.925,0.1401 29.81776,0.5357 37.53948,0.8791 l 14.03947,0.6243 -68.85762,76 c -94.96572,104.8162 -92.38308,101.9215 -89.66023,100.4931 1.3414,-0.7037 46.7639,-26.0311 100.9389,-56.2831 z M -50.22041,981.56882 c -0.30254,-0.47026 -53.56774,-2.26706 -54.01278,-1.82201 -0.69993,0.69992 3.69958,12.00364 6.74067,17.31892 1.72213,3.00997 5.6199,8.16087 8.6617,11.44637 l 5.53055,5.9736 16.65348,-16.28194 c 9.15941,-8.95507 16.55128,-16.44079 16.42638,-16.63494 z m 23.55307,-189.22648 c 38.00086,-38.5437 69.09248,-70.41585 69.09248,-70.82698 0,-0.71912 -8.7498,-2.29268 -23.5,-4.22621 -14.57198,-1.91017 -42.13135,-2.76827 -59.65678,-1.8575 -95.34164,4.95478 -166.87037,45.32701 -166.83764,94.16648 0.003,4.57802 0.47422,10.01118 1.047,12.07368 0.98741,3.55547 1.25945,3.75365 5.24442,3.82029 3.26495,0.0546 3.75663,0.26209 2.203,0.92971 -1.46503,0.62955 -0.57992,0.87823 3.30902,0.92971 3.26901,0.0433 5.07153,0.45454 4.69098,1.07029 -0.33992,0.55 0.42102,1.04486 1.69098,1.09968 2.27794,0.0983 2.27537,0.11046 -0.19098,0.90032 -1.85193,0.59309 -0.86277,0.82648 3.81574,0.90032 3.47366,0.0548 7.28862,0.62035 8.4777,1.25672 2.11295,1.13082 2.11713,1.17456 0.18426,1.92972 -1.27627,0.49863 0.25993,0.7976 4.33132,0.84295 3.46996,0.0387 6.06004,0.47314 5.75574,0.96551 -0.81318,1.31575 1.92075,2.0917 7.76703,2.20446 3.90424,0.0753 4.55679,0.27902 2.66821,0.83296 -2.21788,0.65054 -1.99218,0.82127 2,1.51292 5.7833,1.00198 8.53068,2.44156 5,2.61991 -1.375,0.0695 0.425,0.72326 4,1.45289 9.23706,1.8852 18.67743,4.2558 17.5,4.39448 -2.42139,0.2852 2.46392,2.06368 7.34336,2.67333 2.94832,0.36836 4.86232,0.9777 4.25334,1.35407 -1.36679,0.84472 5.08018,4.0536 8.18723,4.07507 2.18359,0.0151 6.16042,1.90614 4.21607,2.00481 -1.88529,0.0957 3.99798,2.90898 6.15752,2.94444 1.55397,0.0255 21.48535,-19.56849 71.25,-70.04403 z"
         id="path4496"
         inkscape:connector-curvature="0" />
      <path
         style="fill:#fd6d00"
         d="m -48.07486,1340.4128 c -27.12109,-2.1456 -54.60322,-7.7204 -80.5,-16.3296 -13.68131,-4.5482 -30.68843,-11.3272 -31.39261,-12.513 -0.21178,-0.3566 19.70242,-11.8243 44.25378,-25.4837 185.63715,-103.2812 203.13851,-113.1561 203.13325,-114.6154 -0.003,-0.8521 -0.48706,-3.2833 -1.07553,-5.4026 l -1.06997,-3.8534 -51.17446,0.6125 c -28.14595,0.3369 -60.06196,0.8796 -70.92446,1.2062 -10.8625,0.3265 -19.75,0.3264 -19.75,-10e-5 0,-0.3266 30.0375,-24.5591 66.75,-53.85 36.7125,-29.2909 108.55028,-86.67 159.63952,-127.50906 l 92.88952,-74.25283 -42.47791,0 c -23.36286,0 -52.66193,-0.29638 -65.10907,-0.65863 l -22.63115,-0.65863 -1.28045,-3.79188 -1.28046,-3.79188 -5.34924,4.45051 -5.34924,4.45051 -14.84174,0 c -8.16296,0 -15.02353,-0.3375 -15.24571,-0.75 -0.39968,-0.74205 114.26059,-108.40822 116.10542,-109.02316 2.56855,-0.85619 29.23277,32.85561 41.4631,52.42213 3.73043,5.96807 10.56665,18.50103 15.19161,27.85103 27.63531,55.86863 38.2419,117.35444 30.9646,179.49999 -6.92402,59.1286 -30.11652,114.7922 -67.49808,162 -10.68371,13.4921 -37.44865,40.257 -50.94072,50.9407 -48.21676,38.1805 -102.68843,60.5338 -165.76934,68.0259 -12.18399,1.4471 -44.10226,2.0234 -56.73066,1.0244 z m 71.80694,-203.4412 c 27.06216,-10.91 51.58784,-28.1788 70.37191,-49.5498 7.37703,-8.393 23.77685,-31.8776 22.88417,-32.7703 -0.51801,-0.518 -11.67943,8.2506 -69.02713,54.2291 -21.98026,17.6227 -40.65526,32.594 -41.5,33.2697 -2.18291,1.7459 6.70518,-0.9191 17.27105,-5.1787 z m -257.90434,126.7452 c -11.24674,-9.5424 -27.75307,-26.4264 -37.91991,-38.7876 -4.79632,-5.8316 -8.55455,-10.7576 -8.35163,-10.9467 0.20292,-0.1892 18.14394,0.033 39.86894,0.4935 21.725,0.4607 45.0125,0.8619 51.75,0.8917 6.7375,0.03 12.25,0.4165 12.25,0.8595 0,0.4429 -5.5125,6.8727 -12.25,14.2883 -6.7375,7.4157 -17.60148,19.4283 -24.14219,26.6947 -6.5407,7.2664 -12.20953,13.2116 -12.5974,13.2116 -0.38786,0 -4.26138,-3.0172 -8.60781,-6.705 z m -55.10189,-61.545 c -29.77187,-43.5601 -47.62298,-91.3185 -54.4783,-145.75 -1.99282,-15.8231 -1.6635,-59.16852 0.57362,-75.49999 8.4021,-61.33726 30.69585,-113.93759 68.23708,-161 11.20936,-14.05226 34.7146,-37.57019 48.86689,-48.89325 50.62853,-40.50724 110.02015,-64.09768 175.39881,-69.66867 17.36748,-1.4799 50.51047,-0.70966 67.10119,1.55944 11.62793,1.59034 36.11895,6.31704 36.95238,7.13171 0.24881,0.24321 -1.82843,2.72301 -4.61608,5.51066 l -5.06846,5.06847 -14.38392,-2.07006 c -75.47009,-10.86124 -152.40334,2.08199 -199.55405,33.57292 -28.63354,19.12372 -42.3221,44.32003 -37.20876,68.48956 1.4445,6.8278 5.92062,16.72652 10.35411,22.89761 l 3.49425,4.86375 -7.23473,10.76893 c -20.8429,31.02472 -31.66813,66.51603 -31.71642,103.98455 -0.0633,49.09167 18.3869,94.91387 52.37471,130.07587 l 8.98121,9.2915 -54.92481,54.9585 c -30.20864,30.2272 -55.19894,54.9585 -55.534,54.9585 -0.33505,0 -3.76167,-4.6125 -7.61472,-10.25 z m 170.19929,-223.49296 c -23.1,-0.79565 -42.20455,-1.64602 -42.45455,-1.88971 -0.25,-0.24369 3.18966,-4.08728 7.64369,-8.54131 l 8.09823,-8.09823 45.35632,1.64541 c 24.94597,0.90498 50.45757,1.92979 56.69244,2.27735 l 11.33613,0.63194 -7.81267,7.85876 -7.81267,7.85876 -14.52346,-0.14816 c -7.9879,-0.0815 -33.42346,-0.79915 -56.52346,-1.59481 z"
         id="path4494"
         inkscape:connector-curvature="0" />
      <path
         style="fill:#fd5000"
         d="m -46.57486,1340.3302 c -14.71326,-0.9434 -34.67865,-3.8811 -50.51452,-7.4327 -22.82558,-5.1194 -64.66432,-19.7302 -62.45652,-21.8109 0.25907,-0.2441 16.44604,-9.3347 35.97104,-20.2013 19.525,-10.8665 67.45,-37.5591 106.5,-59.3167 l 71,-39.5593 10.20513,-0.6826 c 9.32462,-0.6237 10.79139,-1.0103 17,-4.4813 30.77459,-17.2049 61.25437,-45.1876 82.90383,-76.112 25.62971,-36.6099 41.73146,-80.8255 45.73559,-125.5905 l 0.51691,-5.77892 -8.68073,6.73408 C 184.10222,999.67652 140.0264,1034.7025 60.42514,1098.2908 l -81.5,65.1051 -17.45,0.013 c -9.86636,0.01 -17.03714,-0.3625 -16.5,-0.851 0.5225,-0.4751 41.225,-32.9664 90.45,-72.2028 78.30965,-62.4194 157.77969,-125.83356 210.75,-168.17079 8.9375,-7.14341 16.25,-13.38728 16.25,-13.87526 0,-0.49587 -12.75727,-0.88724 -28.92054,-0.88724 l -28.92055,0 -0.67474,-3.25 c -2.6732,-12.87584 -9.65172,-33.50539 -16.23012,-47.97861 l -3.51282,-7.72862 -11.12062,10.15107 c -6.11633,5.58309 -20.44268,18.85998 -31.83632,29.50419 l -20.71571,19.3531 -15.61358,-0.27556 -15.61358,-0.27557 58.26211,-54.44399 58.26211,-54.44398 7.30352,7.94398 c 4.01694,4.3692 7.30967,8.2012 7.31718,8.51556 0.008,0.31437 2.52725,3.68937 5.59941,7.5 8.1854,10.15296 23.9956,34.25633 31.11919,47.44262 35.70734,66.09689 46.74937,146.4341 30.30492,220.4858 -21.03193,94.7098 -82.92008,173.9143 -169.89876,217.4365 -39.17783,19.6038 -78.77899,30.1093 -124.6111,33.0575 -16.75771,1.0779 -21.51248,1.0676 -39.5,-0.086 z m -188.53838,-77.7683 c -15.35939,-13.4711 -44.46162,-44.6246 -44.46162,-47.5955 0,-0.794 98.3575,0.2732 101.26507,1.0986 1.42627,0.405 0.41264,1.9749 -5.28082,8.179 -3.87523,4.2228 -14.79451,16.3114 -24.26506,26.8635 -9.47056,10.5521 -17.46146,19.2146 -17.75757,19.25 -0.29612,0.035 -4.57112,-3.4726 -9.5,-7.7956 z m -48.82423,-52.7783 c -27.41741,-37.3377 -47.69257,-84.4939 -56.04994,-130.3618 -4.09777,-22.4898 -5.05892,-34.0529 -4.98733,-60 0.0698,-25.28241 1.32959,-39.06787 5.529,-60.49999 15.68418,-80.04585 62.02691,-151.66459 128.87088,-199.15899 4.675,-3.32171 9.85,-6.81662 11.5,-7.76645 2.96611,-1.70748 2.97187,-1.70636 0.50967,0.0992 -25.54418,18.73205 -48.33611,42.55466 -65.75183,68.72518 -8.72268,13.10754 -21.50809,38.63843 -27.09282,54.10103 -4.75623,13.16872 -10.50666,36.02596 -12.7048,50.5 -2.22361,14.64179 -2.99778,44.91842 -1.5505,60.63784 5.36304,58.24988 30.72617,113.69758 71.32642,155.93038 l 11.1221,11.5693 -29.42912,29.3804 -29.42912,29.3804 -1.86261,-2.5365 z m 164.86261,-231.10476 c -23.1,-0.79565 -42.20455,-1.64602 -42.45455,-1.88971 -0.25,-0.24369 3.14864,-4.04626 7.55254,-8.45015 l 8.00707,-8.00708 55.3984,2.04495 c 30.46912,1.12473 56.08493,2.04496 56.92401,2.04496 0.83909,0 -2.05328,3.6 -6.42747,8 l -7.95308,8 -14.52346,-0.14816 c -7.9879,-0.0815 -33.42346,-0.79915 -56.52346,-1.59481 z m 154,-260.86777 c -11.13492,-3.91611 -27.93468,-8.15548 -42,-10.59857 -11.48934,-1.99566 -16.42804,-2.25996 -42.5,-2.27437 -25.91766,-0.0143 -28.58924,-0.15559 -22,-1.16323 24.84471,-3.79926 59.74006,-4.14524 86,-0.85266 11.88581,1.4903 37.00334,6.20144 37.93971,7.11613 0.49262,0.48122 -9.05935,10.42569 -9.90212,10.30901 -0.29567,-0.0409 -3.68759,-1.18228 -7.53759,-2.53631 z M -88.76236,706.7387 c 0.72187,-0.28887 1.58438,-0.25335 1.91667,0.0789 0.33229,0.33229 -0.25834,0.56864 -1.3125,0.52522 -1.16495,-0.048 -1.4019,-0.28494 -0.60417,-0.60417 z m 5.45653,-1.00988 c 0.97297,-0.25354 2.32297,-0.23687 3,0.037 0.67703,0.27392 -0.11903,0.48137 -1.76903,0.46099 -1.65,-0.0204 -2.20394,-0.2445 -1.23097,-0.49804 z"
         id="path4492"
         inkscape:connector-curvature="0" />
      <path
         style="fill:#fd3600"
         d="m -58.57486,1339.2696 c -28.45586,-2.9676 -66.8838,-12.702 -92.25,-23.3685 -4.8125,-2.0236 -8.74172,-3.9718 -8.7316,-4.3293 0.0101,-0.3575 10.24763,-6.3238 22.75,-13.2585 12.50238,-6.9346 60.84517,-33.831 107.42842,-59.7696 l 84.69683,-47.1612 21.65445,0.2697 21.65445,0.2696 -46.35127,25.8899 c -76.45272,42.7034 -113.84581,64.058 -113.84862,65.0173 -0.004,1.2598 33.72667,-0.064 49.06295,-1.9253 103.64509,-12.5799 192.9637,-72.6642 243.76826,-163.9819 37.5835,-67.5538 49.21768,-150.44749 31.73707,-226.127 -1.38131,-5.98014 -2.75239,-11.99799 -3.04684,-13.37299 -1.04712,-4.88961 10.34959,19.72771 15.42756,33.32411 8.4857,22.72069 14.30105,47.63313 17.54844,75.17589 2.05541,17.43299 2.04131,52.20539 -0.0285,70.17589 -8.47633,73.5948 -39.9011,138.8417 -91.92755,190.8682 -51.88658,51.8866 -117.52713,83.5479 -190.54405,91.9078 -14.84359,1.6995 -54.32765,1.9261 -69,0.3959 z m -177.5,-77.7202 c -15.05204,-13.2665 -38.30229,-38.1711 -42.97422,-46.032 -1.26597,-2.1301 30.72474,-0.6328 34.12838,1.5974 2.2123,1.4495 2.5574,1.4255 4.47664,-0.3112 1.95344,-1.7677 3.84702,-1.8629 31.22438,-1.5701 16.02965,0.1715 29.93723,0.5408 30.90572,0.8209 1.41831,0.4101 0.27263,2.144 -5.88861,8.9123 l -7.64953,8.4032 -14.61138,0.276 -14.61138,0.2759 8.72201,5 c 4.79711,2.75 8.73461,5.3259 8.75,5.7243 0.0234,0.6045 -21.84681,25.8354 -22.31709,25.7464 -0.0852,-0.016 -4.65492,-3.9955 -10.15492,-8.8431 z m -51.81182,-57.8776 c -8.77161,-12.4744 -16.45222,-25.6655 -24.66629,-42.3635 -6.92364,-14.0747 -16.58849,-37.6532 -15.76971,-38.472 0.17796,-0.178 2.40269,3.1435 4.94385,7.381 11.11777,18.5394 27.98118,40.0034 45.21607,57.5518 8.3261,8.4775 9.49971,10.0771 8.43744,11.5 -2.25516,3.0206 -11.26984,12.1527 -11.9965,12.1527 -0.39341,0 -3.16759,-3.4875 -6.16486,-7.75 z m 232.86182,-41.1055 c 1.30018,-1.1708 251.41307,-200.73525 269.25477,-214.8377 l 14.30477,-11.30679 16.94523,0 c 9.31988,0 16.94523,0.19085 16.94523,0.4241 0,0.23326 -9.1125,7.60998 -20.25,16.39272 -11.1375,8.78274 -74.925,59.66397 -141.75,113.06937 l -121.5,97.1007 -17.45,0.01 c -9.74112,0 -17.03032,-0.3713 -16.5,-0.8489 z m -64.05,-183.88746 c -23.1,-0.79565 -42.20455,-1.64602 -42.45455,-1.88971 -0.25,-0.24369 3.14864,-4.04626 7.55254,-8.45015 l 8.00707,-8.00708 55.3984,2.04495 c 30.46912,1.12473 56.08493,2.04496 56.92401,2.04496 0.83909,0 -2.05328,3.6 -6.42747,8 l -7.95308,8 -14.52346,-0.14816 c -7.9879,-0.0815 -33.42346,-0.79915 -56.52346,-1.59481 z m 213.0119,-76.10892 c 2.74346,-2.66855 29.02866,-27.28544 58.41156,-54.70421 l 53.42346,-49.85231 7.30004,7.95421 7.30003,7.9542 -4.2235,4.10851 c -2.32292,2.25967 -24.79491,23.29717 -49.93776,46.75 l -45.71427,42.64149 -15.77383,0 -15.77382,0 4.98809,-4.85189 z"
         id="path4490"
         inkscape:connector-curvature="0" />
      <path
         style="fill:#aa5300"
         d="m -146.88211,1317.4677 c -11.58628,-4.7367 -13.44495,-5.6814 -12.60942,-6.4085 0.22917,-0.1994 46.31667,-25.8969 102.41667,-57.1055 56.1,-31.2086 104.32032,-58.0543 107.15627,-59.6571 l 5.15627,-2.9143 21.69494,0.2698 21.69493,0.2697 -7.8512,4.3977 c -13.28853,7.4432 -213.47111,119.1257 -219.85121,122.6557 l -6,3.3196 -11.80725,-4.8271 z m -80.44275,-84.7952 c -14.9875,-0.1556 -27.25,-0.6372 -27.25,-1.0703 0,-0.4331 3.65311,-4.3633 8.11802,-8.7339 l 8.11802,-7.9465 29.13198,0.3117 c 16.02259,0.1715 29.92439,0.5408 30.89288,0.8209 1.41807,0.41 0.26698,2.1502 -5.91223,8.9383 -7.41434,8.1448 -7.811,8.4212 -11.7609,8.1959 -2.24827,-0.1283 -16.35027,-0.3605 -31.33777,-0.5161 z m 172.3,-70.1062 c 1.30018,-1.1708 251.41307,-200.73525 269.25477,-214.8377 l 14.30477,-11.30679 8.19523,0.006 c 4.50738,0.003 11.89988,0.29439 16.42779,0.64688 l 8.23257,0.64088 -141.23257,112.85033 -141.23256,112.8503 -17.45,0 c -9.74142,0 -17.03034,-0.3751 -16.5,-0.8527 z m -64.05,-183.88746 c -23.1,-0.79565 -42.20455,-1.64602 -42.45455,-1.88971 -0.25,-0.24369 3.14864,-4.04626 7.55254,-8.45015 l 8.00707,-8.00708 55.3984,2.04495 c 30.46912,1.12473 56.08493,2.04496 56.92401,2.04496 0.83909,0 -2.05328,3.6 -6.42747,8 l -7.95308,8 -14.52346,-0.14816 c -7.9879,-0.0815 -33.42346,-0.79915 -56.52346,-1.59481 z m 213.0119,-76.10892 c 2.74346,-2.66855 29.02866,-27.28544 58.41156,-54.70421 l 53.42346,-49.85231 7.29929,7.95421 7.2993,7.9542 -3.72276,3.60816 c -2.04751,1.98448 -24.51185,23.02198 -49.92076,46.75 l -46.19801,43.14184 -15.79008,0 -15.79009,0 4.98809,-4.85189 z"
         id="path4488"
         inkscape:connector-curvature="0" />
    </g>
  </g>
</svg>
