<?xml version="1.0" encoding="UTF-8" standalone="no"?>
<!-- Created with Inkscape (http://www.inkscape.org/) -->

<svg
   xmlns:dc="http://purl.org/dc/elements/1.1/"
   xmlns:cc="http://creativecommons.org/ns#"
   xmlns:rdf="http://www.w3.org/1999/02/22-rdf-syntax-ns#"
   xmlns:svg="http://www.w3.org/2000/svg"
   xmlns="http://www.w3.org/2000/svg"
   xmlns:sodipodi="http://sodipodi.sourceforge.net/DTD/sodipodi-0.dtd"
   xmlns:inkscape="http://www.inkscape.org/namespaces/inkscape"
   width="64"
   height="64"
   viewBox="0 0 64 64"
   id="svg2"
   version="1.1"
   inkscape:version="0.91 r13725"
   sodipodi:docname="icon.svg">
  <defs
     id="defs4" />
  <sodipodi:namedview
     id="base"
     pagecolor="#ffffff"
     bordercolor="#666666"
     borderopacity="1.0"
     inkscape:pageopacity="0.0"
     inkscape:pageshadow="2"
     inkscape:zoom="7.9195959"
     inkscape:cx="52.539311"
     inkscape:cy="14.910154"
     inkscape:document-units="px"
     inkscape:current-layer="layer1"
     showgrid="false"
     units="px"
     inkscape:window-width="1855"
     inkscape:window-height="1056"
     inkscape:window-x="65"
     inkscape:window-y="24"
     inkscape:window-maximized="1" />
  <metadata
     id="metadata7">
    <rdf:RDF>
      <cc:Work
         rdf:about="">
        <dc:format>image/svg+xml</dc:format>
        <dc:type
           rdf:resource="http://purl.org/dc/dcmitype/StillImage" />
        <dc:title></dc:title>
      </cc:Work>
    </rdf:RDF>
  </metadata>
  <g
     inkscape:label="Vrstva 1"
     inkscape:groupmode="layer"
     id="layer1"
     transform="translate(0,-988.36216)">
    <g
       id="g4695"
       transform="matrix(0.18005536,0,0,0.18005536,19.288784,834.58962)">
      <path
         style="fill:#fcdd9f"
         d="m -18.416583,1147.8526 c -57.475295,-6.5553 -94.093337,-27.0733 -88.062947,-49.3438 3.60871,-13.3271 15.76115,-27.4946 34.058679,-39.7059 l 6.614859,-4.4146 0.684958,-14.7631 c 0.922218,-19.8767 2.340847,-31.039 4.386003,-34.5106 0.934626,-1.5865 5.467215,-6.00984 10.072418,-9.82969 6.179129,-5.12537 9.899209,-9.26172 14.197375,-15.78603 6.452805,-9.79491 17.5323,-20.7561 26.27184,-25.99131 27.068178,-16.21456 67.738658,-17.27664 96.894778,-2.53034 19.133,9.6769 37.61652,28.49135 52.8081,53.75357 l 6.6939,11.1314 15.88045,2.7595 c 18.98472,3.2989 52.18306,11.2975 54.34232,13.0929 0.84598,0.7034 4.8464,2.5446 8.88983,4.0915 8.36351,3.1997 18.56324,9.7393 21.53008,13.8041 1.59724,2.1883 1.81069,3.3025 1.04807,5.471 -1.13676,3.2324 -8.70601,7.3532 -16.85752,9.1774 l -5.40247,1.209 0.91507,3.1907 c 0.5033,1.7549 0.91508,3.6997 0.91508,4.3219 0,0.6222 -4.1625,2.5769 -9.25,4.3438 -13.00678,4.5172 -32.08032,14.6042 -54.25,28.6901 -10.45,6.6396 -23.725,14.5678 -29.5,17.6183 -21.32918,11.2666 -44.70343,18.7541 -71.5,22.9035 -17.27947,2.6757 -62.98226,3.4151 -81.380873,1.3167 z"
         id="path4711"
         inkscape:connector-curvature="0" />
      <path
         style="fill:#fcd061"
         d="m -22.667477,1146.8418 c -32.082631,-4.3778 -57.253579,-12.5789 -71.368233,-23.2531 -2.75,-2.0796 -6.4625,-5.9572 -8.25,-8.6169 -2.86538,-4.2634 -3.25,-5.6318 -3.25,-11.5629 0,-5.5605 0.55386,-7.839 3.1934,-13.137 3.981384,-7.9914 18.988353,-23.3966 29.879626,-30.6726 l 7.573027,-5.0592 0.221961,-10.839 c 0.325871,-15.9131 1.956009,-32.982 3.50363,-36.686 0.793509,-1.8991 5.32175,-6.6347 10.936626,-11.43739 6.704083,-5.73435 10.986283,-10.37695 14.256113,-15.45593 5.57819,-8.66454 17.936415,-20.95794 25.749265,-25.61421 7.081692,-4.22052 15.511282,-7.63987 25.444192,-10.32109 9.84174,-2.6566 32.12235,-3.60167 43.11779,-1.82891 22.71035,3.66153 45.33121,16.78934 61.66862,35.78883 7.21333,8.3887 19.08277,25.5728 22.99129,33.2859 2.12396,4.1914 2.95214,4.9191 6.2077,5.4542 26.84036,4.4114 63.21813,12.5784 66.12032,14.8444 0.74996,0.5856 5.24996,2.6681 10,4.6279 9.5719,3.9491 19.63047,10.1895 21.22423,13.1674 1.62434,3.0351 0.65837,6.9552 -2.24569,9.1136 -1.46184,1.0864 -6.18684,3.0008 -10.5,4.254 -8.29913,2.4115 -8.525,2.6877 -6.93433,8.481 0.6582,2.3972 0.33635,2.6248 -7.00423,4.9521 -12.58989,3.9917 -29.74262,12.9291 -54.02086,28.1475 -12.58548,7.889 -28.80329,17.3242 -36.03959,20.9672 -21.59896,10.8735 -45.28346,17.7811 -73.18483,21.3444 -15.56811,1.9882 -64.874046,2.0229 -79.290027,0.056 z M 8.94426,1121.0644 c 1.66188,-3.9775 4.24567,-20.8305 5.09034,-33.2022 l 0.61447,-9 -2.00733,3 c -1.10403,1.65 -4.31555,5.2406 -7.13671,7.979 -6.32186,6.1366 -6.52491,9.0861 -0.81011,11.7679 4.24539,1.9921 5.67465,5.4708 3.8727,9.4256 -1.28916,2.8294 -2.40694,2.8505 -17.159697,0.3235 l -7.556366,-1.2944 -4.535217,4.6003 -4.535216,4.6003 4.591583,0.9804 c 4.895201,1.0452 15.638463,2.8457 20.591583,3.4511 7.2108,0.8813 7.55429,0.7806 8.97997,-2.6315 z m -8.48267,-13.4522 c -0.001,-0.4125 -1.67501,-1.65 -3.71895,-2.75 -2.82786,-1.5219 -3.92281,-2.88 -4.580336,-5.6811 l -0.864089,-3.6811 -6.996386,3.6546 c -3.848012,2.0101 -6.398145,3.8555 -5.666962,4.101 3.866159,1.2981 18.571713,4.9935 20.079423,5.0458 0.9625,0.033 1.74878,-0.2767 1.7473,-0.6892 z m -52.669965,-50.4293 c -2.270991,-3.8884 -4.878874,-5.1338 -3.829949,-1.8289 0.933156,2.9401 4.866093,7.4177 5.319809,6.0566 0.195694,-0.5871 -0.474743,-2.4895 -1.48986,-4.2277 z m -3.125013,-8.7121 c 2.107555,-1.4347 9.458406,-7.9744 16.335225,-14.5326 l 12.503307,-11.9239 -2.407879,-2.5761 c -1.324334,-1.4168 -3.260642,-4.273 -4.302907,-6.347 l -1.895027,-3.771 -11.894805,12.0432 c -7.1154,7.2041 -12.168669,11.6 -12.576388,10.9403 -1.158812,-1.875 -1.968593,4.8379 -1.86176,15.4335 0.08848,8.775 0.246498,9.6728 1.185202,6.7336 0.669175,-2.0952 2.547576,-4.3883 4.915032,-6 z m 48.781038,-12.3586 c 0.0213,-3.5243 -0.69794,-3.4872 -12.06795,0.6235 -9.999764,3.6152 -13.067808,6.1542 -6.087871,5.0381 3.34167,-0.5344 4.220287,-0.3079 5.259203,1.3557 1.223885,1.9597 1.356436,1.9384 7.063631,-1.1351 4.905777,-2.6419 5.818947,-3.5627 5.832987,-5.8822 z m 1.92996,-35.25 c 3.041,0 1.10408,-4.04067 -6.189734,-12.91251 l -2.394446,-2.91249 0.245323,3.41249 c 0.134928,1.87687 0.791086,6.68073 1.458129,10.67524 l 1.212805,7.26277 2.373957,-2.7628 c 1.305676,-1.5195 2.787966,-2.7627 3.293966,-2.7627 z"
         id="path4709"
         inkscape:connector-curvature="0" />
      <path
         style="fill:#fcca1a"
         d="m -22.667477,1146.8418 c -40.175455,-5.4821 -69.216699,-16.9396 -79.299443,-31.2855 -2.47452,-3.5209 -3.07703,-5.4969 -3.39572,-11.137 -0.35977,-6.3671 -0.11688,-7.3716 3.40158,-14.0672 4.923709,-9.3699 15.777739,-20.8532 27.694774,-29.3006 l 9.379784,-6.6488 0.220384,-10.7703 c 0.324314,-15.8493 1.956853,-32.9191 3.502052,-36.6173 0.794846,-1.9023 5.337915,-6.6485 10.998671,-11.49046 6.546322,-5.59941 11.167424,-10.56439 14.385424,-15.45593 16.065536,-24.4205 40.206351,-37.21351 72.540901,-38.44179 15.89497,-0.6038 25.14521,0.57999 37.58459,4.80983 16.16421,5.49643 33.43626,17.49061 45.66302,31.70965 7.21333,8.3887 19.08277,25.5728 22.99129,33.2859 2.12396,4.1914 2.95214,4.9191 6.2077,5.4542 26.84036,4.4114 63.21813,12.5784 66.12032,14.8444 0.74996,0.5856 5.24996,2.6681 10,4.6279 9.5719,3.9491 19.63047,10.1895 21.22423,13.1674 1.62434,3.0351 0.65837,6.9552 -2.24569,9.1136 -1.46184,1.0864 -6.18684,3.0008 -10.5,4.254 -8.29913,2.4115 -8.525,2.6877 -6.93433,8.481 0.6582,2.3972 0.33635,2.6248 -7.00423,4.9521 -12.58989,3.9917 -29.74262,12.9291 -54.02086,28.1475 -12.58548,7.889 -28.80329,17.3242 -36.03959,20.9672 -21.59896,10.8735 -45.28346,17.7811 -73.18483,21.3444 -15.56811,1.9882 -64.874046,2.0229 -79.290027,0.056 z M 8.48452,1122.3244 c 2.31537,-4.3263 7.03315,-38.3951 6.94936,-50.1838 -0.0262,-3.682 -0.1857,-3.9996 -1.14445,-2.2784 -0.61272,1.1 -3.9375,4.7 -7.38841,8 l -6.27436,6 -0.19621,6.5 c -0.29424,9.7477 -0.2629,9.845 3.78384,11.7437 3.21074,1.5064 3.79407,2.289 4.05647,5.4424 0.49295,5.9243 -1.23863,6.1952 -17.692771,2.7685 -16.175407,-3.3687 -16.113699,-3.3619 -16.113699,-1.7756 0,1.6569 -6.929697,7.821 -8.792359,7.821 -8.30551,0 28.208969,7.3703 39.007179,7.8735 1.79503,0.084 3.08431,-0.5639 3.80541,-1.9113 z m -7.02023,-14.4488 c 0,-0.8176 -1.57786,-2.1458 -3.50636,-2.9516 -4.25166,-1.7765 -5.49364,-4.65 -5.49364,-12.7103 0,-3.31 -0.399444,-5.8682 -0.887653,-5.6848 -6.67377,2.5061 -11.151901,5.6714 -12.154172,8.591 -1.240442,3.6133 -3.934173,5.5141 -7.154499,5.0485 -1.164773,-0.1684 -2.282183,0.174 -2.483132,0.761 -0.215195,0.6286 5.706288,2.5447 14.407046,4.6619 17.3234,4.2154 17.27241,4.2086 17.27241,2.2843 z m -56.170233,-40.2634 c -0.08066,-0.9625 -0.07535,-3.3242 0.01179,-5.2481 l 0.158443,-3.4982 3.227402,5.2482 c 1.775071,2.8864 3.575071,5.2481 4,5.2481 0.661831,0 1.30908,-7.8306 0.855932,-10.3553 -0.08443,-0.4704 0.367382,-1.4829 1.004024,-2.25 0.636642,-0.7671 0.914236,-1.3947 0.616874,-1.3947 -0.297361,0 -1.200358,-0.2532 -2.006658,-0.5626 -1.197989,-0.4597 -1.383846,0.3173 -1.01662,4.25 l 0.449382,4.8126 -2.815168,-5 c -1.750829,-3.1096 -3.600324,-5.1122 -4.891898,-5.2969 -1.925357,-0.2752 -2.031809,0.053 -1.460447,4.5071 0.338956,2.6421 0.317819,6.2632 -0.04697,8.0468 -0.489725,2.3945 -0.306932,3.243 0.698657,3.243 0.749051,0 1.295916,-0.7875 1.215257,-1.75 z m -5.513706,-2.3506 c 0.350875,-1.3418 0.992449,-1.8268 1.775941,-1.3426 0.943628,0.5832 1.085014,-0.7583 0.612839,-5.8147 -0.767749,-8.2216 0.166786,-9.2728 7.474598,-8.4073 l 5.143911,0.6093 13.088325,-12.7949 c 25.939145,-25.3576 32.799675,-31.6443 34.210205,-31.349 0.78874,0.1652 -2.16176,-4.4313 -6.55667,-10.21441 -4.394913,-5.7831 -9.145645,-12.66822 -10.557184,-15.30027 -1.411538,-2.63205 -2.313017,-3.82046 -2.003286,-2.64091 0.337781,1.28636 -0.08311,2.79088 -1.051709,3.75948 -1.486476,1.48648 -1.411635,1.85637 0.941398,4.65279 5.14377,6.11303 6.93766,17.67732 4.05467,26.13842 -5.31638,15.6028 -18.813528,10.3976 -21.166249,-8.1627 l -0.78285,-6.17575 -11.75,11.58195 c -7.560973,7.4528 -11.755459,10.9543 -11.765313,9.8215 -0.01229,-1.4127 -0.190598,-1.4835 -0.903016,-0.3582 -1.606548,2.5375 -3.770405,48.0979 -2.284372,48.0979 0.533191,0 1.216634,-0.9453 1.518762,-2.1006 z m 19.903832,-3.6682 c 1.110965,-4.2874 2.496148,-4.8466 5.354135,-2.1617 2.72504,2.5601 3.329837,1.5867 0.770984,-1.2408 -3.418574,-3.7775 -9.345012,-0.981 -9.345012,4.4096 0,3.8278 2.140533,3.1583 3.219893,-1.0071 z m 32.699113,-15.2312 c 1.044224,0 2.080994,-5.0444 2.080994,-10.125 0,-2.5846 -0.44914,-3.875 -1.34869,-3.875 -0.741774,0 -6.029274,1.7309 -11.749996,3.8465 -11.861275,4.3864 -14.346952,7.1035 -6.23957,6.8203 l 4.776352,-0.1668 0.874332,4.669 0.874332,4.669 4.950626,-2.919 c 2.722845,-1.6055 5.324574,-2.919 5.78162,-2.919 z"
         id="path4707"
         inkscape:connector-curvature="0" />
      <path
         style="fill:#f06a4f"
         d="m -22.667477,1146.8418 c -40.175455,-5.4821 -69.216699,-16.9396 -79.299443,-31.2855 -2.47452,-3.5209 -3.07703,-5.4969 -3.39572,-11.137 -0.35977,-6.3671 -0.11688,-7.3716 3.40158,-14.0672 4.923709,-9.3699 15.777739,-20.8532 27.694774,-29.3006 l 9.379784,-6.6488 0.220384,-10.7703 c 0.324314,-15.8493 1.956853,-32.9191 3.502052,-36.6173 0.794846,-1.9023 5.337915,-6.6485 10.998671,-11.49046 6.546322,-5.59941 11.167424,-10.56439 14.385424,-15.45593 16.065536,-24.4205 40.206351,-37.21351 72.540901,-38.44179 15.89497,-0.6038 25.14521,0.57999 37.58459,4.80983 16.16421,5.49643 33.43626,17.49061 45.66302,31.70965 7.21333,8.3887 19.08277,25.5728 22.99129,33.2859 2.12396,4.1914 2.95214,4.9191 6.2077,5.4542 26.84036,4.4114 63.21813,12.5784 66.12032,14.8444 0.74996,0.5856 5.24996,2.6681 10,4.6279 9.5719,3.9491 19.63047,10.1895 21.22423,13.1674 1.62434,3.0351 0.65837,6.9552 -2.24569,9.1136 -1.46184,1.0864 -6.18684,3.0008 -10.5,4.254 -8.29913,2.4115 -8.525,2.6877 -6.93433,8.481 0.6582,2.3972 0.33635,2.6248 -7.00423,4.9521 -12.58989,3.9917 -29.74262,12.9291 -54.02086,28.1475 -12.58548,7.889 -28.80329,17.3242 -36.03959,20.9672 -21.59896,10.8735 -45.28346,17.7811 -73.18483,21.3444 -15.56811,1.9882 -64.874046,2.0229 -79.290027,0.056 z M 8.48452,1122.3244 c 2.96335,-5.5371 6.55705,-35.6686 7.39005,-61.9622 0.37428,-11.8141 0.2511,-15.223 -0.43374,-12.0034 -0.52605,2.4732 -1.43609,4.6566 -2.02229,4.852 -0.58621,0.1954 -1.60323,1.0059 -2.26004,1.8012 -1.51192,1.8307 -2.44327,2.724 -6.3709,6.1109 l -3.17668,2.7393 -0.88231,16.5 c -0.48526,9.075 -0.59719,17.3514 -0.24871,18.392 0.34847,1.0406 2.17502,2.617 4.05899,3.503 2.86642,1.3482 3.47541,2.2119 3.73187,5.2926 0.49952,6.0007 -0.9781,6.1556 -20.857816,2.1858 -11.808644,-2.3581 -17.852697,-4.013 -18.698654,-5.12 -1.545092,-2.0218 -1.607478,-5.6775 -0.146238,-8.5692 0.967664,-1.9149 0.797939,-1.8669 -1.376482,0.3889 -1.364133,1.4153 -2.80148,3.5853 -3.194103,4.8224 -0.453194,1.4278 -1.247562,2.0443 -2.175456,1.6883 -0.803878,-0.3085 -1.227335,-0.1819 -0.941016,0.2814 0.28632,0.4633 -0.590308,1.3485 -1.948062,1.9671 -1.357754,0.6187 -2.468643,1.8095 -2.468643,2.6462 0,0.8368 -0.498145,1.5215 -1.106989,1.5215 -0.608844,0 -0.847967,0.675 -0.531385,1.5 0.340938,0.8885 0.01084,1.5 -0.809677,1.5 -0.761905,0 -1.559251,-0.5219 -1.771879,-1.1598 -0.271319,-0.814 -0.920773,-0.8609 -2.178022,-0.1573 -3.91055,2.1885 38.54081,12.4417 54.612772,13.1906 1.79503,0.084 3.08431,-0.5639 3.80541,-1.9113 z m -61.52023,-11.9622 c -0.339919,-0.55 -1.153976,-0.9931 -1.809017,-0.9847 -0.715616,0.01 -0.592275,0.4022 0.309017,0.9847 1.921123,1.2415 2.267305,1.2415 1.5,0 z m 54.5,-2.4866 c 0,-0.8176 -1.57786,-2.1458 -3.50636,-2.9516 -2.14443,-0.896 -3.93487,-2.552 -4.60958,-4.2634 -1.101988,-2.7953 -0.64321,-38.2402 0.76428,-59.0484 0.52738,-7.7967 0.39226,-9.25 -0.86002,-9.25 -3.509674,0 -22.301506,7.7605 -22.609848,9.3372 -0.273194,1.397 0.345874,1.5527 4.118147,1.0356 2.992361,-0.4101 4.685129,-0.2114 5.192612,0.6098 1.042911,1.6874 0.625025,45.6041 -0.48044,50.4906 -1.028375,4.5457 -3.424946,6.7343 -6.916619,6.3162 -1.329718,-0.1592 -2.579517,0.1908 -2.77733,0.7778 -0.211434,0.6274 5.728494,2.5487 14.412748,4.6619 17.3234,4.2154 17.27241,4.2086 17.27241,2.2843 z m -24,-15.5724 c 0,-1.6825 -0.411565,-2.8047 -0.91459,-2.4938 -0.503024,0.3109 -1.142498,-1e-4 -1.421052,-0.691 -0.278555,-0.6909 -0.54199,-0.2919 -0.585411,0.8868 -0.04342,1.1786 -0.866447,2.4868 -1.828947,2.9071 -1.435899,0.6269 -1.211541,0.8941 1.25,1.4887 1.65,0.3985 3.1125,0.7778 3.25,0.8429 0.1375,0.065 0.25,-1.2583 0.25,-2.9407 z m -34.356503,-14.6411 c 2.267803,-2.1388 2.954185,-3.2999 1.950758,-3.2999 -0.851482,0 -2.287017,-1.1277 -3.190078,-2.5059 -1.391723,-2.1241 -1.45037,-2.9684 -0.384856,-5.5408 0.809397,-1.954 1.039014,-5.1211 0.644762,-8.8931 -0.847719,-8.1105 -0.02235,-8.6711 10.606741,-7.2033 4.526047,0.6249 10.031508,1.2682 12.234358,1.4294 2.20285,0.1612 4.523384,0.6133 5.156741,1.0047 0.777053,0.4803 0.977728,0.047 0.617049,-1.3322 -0.29398,-1.1242 -0.139514,-1.9715 0.343259,-1.883 2.362864,0.4334 2.605957,-0.2277 0.600275,-1.6325 -2.591832,-1.8154 -3.128263,-8.4467 -0.837103,-10.3482 2.637589,-2.189 25.729007,-10.9889 27.418257,-10.4488 1.24566,0.3982 1.35167,0.2946 0.39901,-0.3903 -1.04356,-0.7501 -0.99466,-1.1838 0.25,-2.2167 0.85103,-0.7063 1.54733,-1.6609 1.54733,-2.1214 0,-0.4604 1.8,-2.6735 4,-4.9179 2.2,-2.2445 4,-3.6608 4,-3.1474 0,0.5134 0.71131,1.2064 1.58068,1.54 0.86937,0.3336 -0.50456,-1.9808 -3.0532,-5.143 -10.55549,-13.09699 -19.710244,-25.67677 -22.059151,-30.31212 -1.376111,-2.71563 -3.083526,-4.9375 -3.794254,-4.9375 -0.710729,0 -4.496704,3.53169 -8.413278,7.84819 -3.916575,4.31651 -12.276454,12.23803 -18.577511,17.60343 -6.301056,5.3653 -11.930797,10.7962 -12.510535,12.0686 -1.577782,3.4628 -3.040474,19.9753 -3.364288,37.9798 -0.318463,17.7069 0.298319,40.2421 0.931935,34.0499 0.298251,-2.9148 1.321274,-4.8151 3.903099,-7.25 z m 32.356503,-56.0194 c -4.671425,-1.6865 -8.659963,-8.5311 -9.58968,-16.4565 -1.577513,-13.44762 7.367158,-25.47597 15.151744,-20.37531 5.915153,3.87576 9.067682,18.12851 6.031614,27.26921 -2.317653,6.9778 -7.321443,11.105 -11.593678,9.5626 z m 5.525282,-6.9023 c 2.911158,-3.1412 3.873224,-7.5592 3.258993,-14.96604 -0.592936,-7.15002 -3.276696,-10.91218 -7.784275,-10.91218 -8.949187,0 -11.796031,18.06072 -4.216513,26.75002 2.202404,2.5249 5.93924,2.1522 8.741795,-0.8718 z m -7.910254,-0.6147 c -0.182932,-0.6949 -0.846149,-2.8705 -1.473816,-4.8345 -1.542826,-4.8277 -1.512701,-4.929 1.465777,-4.929 1.838821,0 2.44674,0.4176 2.063142,1.4172 -0.299115,0.7795 0.133746,1.6773 0.961914,1.9951 1.109101,0.4256 1.421753,-0.01 1.186858,-1.6471 -0.207203,-1.4457 -1.369688,-2.5682 -3.318903,-3.205 -4.085296,-1.3345 -4.115899,-1.3827 -1.926999,-3.03875 1.059849,-0.80182 1.412644,-1.47218 0.783988,-1.48967 -2.479992,-0.069 -2.06299,-2.87305 0.734888,-4.94161 2.839929,-2.09965 3.005516,-2.11135 5.354945,-0.37842 1.675475,1.23583 2.266852,2.44141 1.914397,3.90269 -0.326362,1.3531 0.0569,2.33201 1.06439,2.71862 2.093542,0.80334 2.010702,5.29994 -0.177163,9.61654 -1.915936,3.7801 -8.010967,7.1786 -8.633418,4.8139 z m 0.384972,59.7955 c 0,-0.7925 -0.418906,-1.6999 -0.930902,-2.0163 -1.188889,-0.7348 -2.384603,1.1378 -1.569098,2.4573 0.919555,1.4879 2.5,1.2091 2.5,-0.441 z m -6.333073,-2.135 c 2.172783,-2.1728 2.491568,-3.2057 2.036519,-6.5983 -1.400144,-10.4389 -12.703446,-11.9673 -12.703446,-1.7178 0,4.7907 1.61656,8.3921 4.364082,9.7225 3.110885,1.5063 3.470301,1.4261 6.302845,-1.4064 z m -6.02407,0.076 c -2.075701,-2.0757 -2.205088,-10.3593 -0.203975,-13.0589 1.337821,-1.8048 1.556538,-1.8253 3.114039,-0.2914 2.243522,2.2095 2.433536,11.2924 0.281263,13.4446 -1.39796,1.398 -1.708154,1.3888 -3.191327,-0.094 z m -7.536426,-7.8251 c 0.101942,-3.7055 0.617742,-7.0045 1.146222,-7.3311 0.889512,-0.5497 -0.891305,-2.2922 -2.379816,-2.3285 -0.344939,-0.01 -0.428114,2.1222 -0.184832,4.7347 l 0.442331,4.75 -2.815168,-5 c -1.750829,-3.1097 -3.600324,-5.1123 -4.891898,-5.2969 -1.925357,-0.2752 -2.031809,0.053 -1.460447,4.5071 0.338956,2.6421 0.317819,6.2632 -0.04697,8.0468 -0.489725,2.3945 -0.306932,3.243 0.698657,3.243 0.749051,0 1.295916,-0.7875 1.215257,-1.75 -0.08066,-0.9625 -0.05967,-3.325 0.04665,-5.25 l 0.193305,-3.5 3.583479,6.2983 c 1.970914,3.4641 3.737469,6.1443 3.92568,5.9561 0.18821,-0.1882 0.425607,-3.3739 0.52755,-7.0794 z"
         id="path4705"
         inkscape:connector-curvature="0" />
      <path
         style="fill:#dfa518"
         d="m -16.03571,1147.2478 c -23.079527,-2.8402 -41.650507,-6.9899 -55.991077,-12.5113 -9.916,-3.8178 -20.906833,-9.9434 -24.011121,-13.3824 -1.651529,-1.8295 -1.131167,-1.6886 3.002198,0.8131 6.448251,3.9027 9.714373,4.9172 8.886719,2.7604 -0.330383,-0.861 -0.102552,-1.5654 0.506292,-1.5654 0.608844,0 1.106989,-0.675 1.106989,-1.5 0,-0.825 0.45,-1.5 1,-1.5 0.55,0 1,-0.5692 1,-1.2648 0,-0.6957 0.9,-2.944 2,-4.9964 1.1,-2.0524 2,-4.3385 2,-5.0802 0,-0.7418 0.902759,-2.1656 2.006131,-3.1642 1.103372,-0.9985 1.794259,-2.0274 1.535305,-2.2863 -0.258954,-0.259 0.188287,-1.4119 0.993869,-2.562 0.805582,-1.1501 1.471586,-3.6785 1.480008,-5.6186 0.01148,-2.6456 0.257666,-3.1525 0.984687,-2.0275 0.836927,1.295 0.971467,1.2706 0.984687,-0.1786 0.0084,-0.9232 0.615634,-2.2789 1.349359,-3.0126 0.998451,-0.9985 1.498602,-7.3684 1.988183,-25.3214 0.7387,-27.0884 2.294867,-50.1861 3.75259,-55.6987 0.739393,-2.796 2.885524,-5.3759 8.703287,-10.46223 4.247042,-3.71308 14.10793,-13.18052 21.913085,-21.03877 14.620538,-14.71999 16.723509,-16.03237 20.383208,-12.72039 1.590746,1.43961 2.120379,1.27078 6.499221,-2.07166 8.94222,-6.82576 23.08143,-12.50064 38.67638,-15.52307 5.10082,-0.98858 6.20673,-1.75922 5.90447,-4.11446 -0.2041,-1.59034 9.07926,-1.77461 17.28061,-0.34302 33.16157,5.78854 59.50417,25.93103 80.52002,61.5685 7.66518,12.9981 7.24384,12.5882 13.75049,13.38 15.14887,1.8436 62.08487,12.5793 63.25193,14.4676 0.30721,0.4971 3.70494,2.0851 7.55052,3.5288 8.75939,3.2886 19.70139,9.7195 22.42165,13.1777 5.14893,6.5458 1.08165,9.8408 -19.65037,15.9191 -0.93785,0.275 -0.88671,1.3045 0.22068,4.4432 1.10707,3.1378 1.15825,4.1663 0.22068,4.4348 -15.85691,4.5413 -35.16486,14.264 -60.72068,30.5766 -53.07893,33.8808 -88.24062,44.1771 -149.78825,43.8621 -13.59146,-0.07 -27.86175,-0.5142 -31.71175,-0.9879 z m 25.35268,-25.4616 c 2.69983,-5.9255 7.36417,-45.2747 6.40849,-54.0632 -0.24756,-2.2766 0.014,-5.0064 0.58115,-6.0662 0.62395,-1.1659 0.78274,-5.0605 0.40202,-9.8608 -0.61615,-7.7689 -0.64581,-7.8403 -1.42675,-3.4372 -0.43863,2.4732 -1.27714,4.6566 -1.86334,4.852 -0.58621,0.1954 -1.60323,1.0059 -2.26004,1.8012 -1.51192,1.8307 -2.44327,2.724 -6.3709,6.1109 l -3.17668,2.7393 -0.88231,16.5 c -0.48526,9.075 -0.59719,17.3514 -0.24871,18.392 0.34847,1.0406 2.17502,2.617 4.05899,3.503 2.86642,1.3482 3.47541,2.2119 3.73187,5.2926 0.49952,6.0007 -0.9781,6.1556 -20.857816,2.1858 -11.808644,-2.3581 -17.852697,-4.013 -18.698654,-5.12 -1.545092,-2.0218 -1.607478,-5.6775 -0.146238,-8.5692 0.967664,-1.9149 0.797939,-1.8669 -1.376482,0.3889 -1.364133,1.4153 -2.80148,3.5853 -3.194103,4.8224 -0.453194,1.4278 -1.247562,2.0443 -2.175456,1.6883 -0.803878,-0.3085 -1.227335,-0.1819 -0.941016,0.2814 0.28632,0.4633 -0.590308,1.3485 -1.948062,1.9671 -1.357754,0.6187 -2.468643,1.8095 -2.468643,2.6462 0,0.8368 -0.498145,1.5215 -1.106989,1.5215 -0.608844,0 -0.847967,0.675 -0.531385,1.5 0.340938,0.8885 0.01084,1.5 -0.809677,1.5 -0.761905,0 -1.559251,-0.5219 -1.771879,-1.1598 -0.289361,-0.8681 -0.876231,-0.8757 -2.333333,-0.03 -1.730783,1.0041 -1.752608,1.1328 -0.196737,1.1598 0.9625,0.017 1.75,0.5069 1.75,1.0894 0,0.5825 0.412238,0.8043 0.916084,0.4928 0.503846,-0.3113 2.191346,-0.052 3.75,0.5759 1.558654,0.6281 3.880152,1.2792 5.158884,1.4469 1.278733,0.1677 2.874268,0.7608 3.545634,1.318 0.671366,0.5572 6.82513,2.133 13.675032,3.5017 14.975776,2.9925 16.859436,3.2633 24.043846,3.4559 5.10316,0.1368 5.69161,-0.074 6.7632,-2.4262 z m -62.311561,-11.3575 c -0.362534,-0.5866 -1.100337,-1.0665 -1.639563,-1.0665 -0.539225,0 -0.400167,0.6296 0.309017,1.3991 1.435658,1.5578 2.356609,1.3276 1.330546,-0.3326 z m 54.458881,-2.5531 c 0,-0.8176 -1.57786,-2.1458 -3.50636,-2.9516 -2.14443,-0.896 -3.93487,-2.552 -4.60958,-4.2634 -1.101988,-2.7953 -0.64321,-38.2402 0.76428,-59.0484 0.52738,-7.7967 0.39226,-9.25 -0.86002,-9.25 -3.509674,0 -22.301506,7.7605 -22.609848,9.3372 -0.273194,1.397 0.345874,1.5527 4.118147,1.0356 2.992361,-0.4101 4.685129,-0.2114 5.192612,0.6098 1.042911,1.6874 0.625025,45.6041 -0.48044,50.4906 -1.028375,4.5457 -3.424946,6.7343 -6.916619,6.3162 -1.329718,-0.1592 -2.579517,0.1908 -2.77733,0.7778 -0.211434,0.6274 5.728494,2.5487 14.412748,4.6619 17.3234,4.2154 17.27241,4.2086 17.27241,2.2843 z m -58.274757,-30.2634 c 2.238478,-2.129 2.883157,-3.25 1.869012,-3.25 -0.851482,0 -2.287017,-1.1277 -3.190078,-2.5059 -1.391723,-2.1241 -1.45037,-2.9684 -0.384856,-5.5408 0.809397,-1.954 1.039014,-5.1211 0.644762,-8.8931 -0.847719,-8.1105 -0.02235,-8.6711 10.606741,-7.2033 4.526047,0.6249 10.031508,1.2682 12.234358,1.4294 2.20285,0.1612 4.523384,0.6133 5.156741,1.0047 0.777053,0.4803 0.977728,0.047 0.617049,-1.3322 -0.29398,-1.1242 -0.139514,-1.9715 0.343259,-1.883 2.362864,0.4334 2.605957,-0.2277 0.600275,-1.6325 -2.591832,-1.8154 -3.128263,-8.4467 -0.837103,-10.3482 2.637589,-2.189 25.729007,-10.9889 27.418257,-10.4488 1.24566,0.3982 1.35167,0.2946 0.39901,-0.3903 -1.04356,-0.7501 -0.99466,-1.1838 0.25,-2.2167 0.85103,-0.7063 1.54733,-1.6609 1.54733,-2.1214 0,-0.4604 1.8,-2.6735 4,-4.9179 2.2,-2.2445 4,-3.6608 4,-3.1474 0,0.5134 0.70617,1.2044 1.56927,1.5356 1.53194,0.5879 0.49655,-0.8973 -11.42502,-16.38822 -7.680528,-9.98007 -13.14425,-18.18409 -13.14425,-19.73665 0,-0.69484 -0.419676,-1.26335 -0.932612,-1.26335 -0.512937,0 -1.21536,-0.89086 -1.560941,-1.97969 -0.817353,-2.57525 -2.25298,-2.19827 -5.42663,1.42498 -6.973852,7.96181 -21.86797,22.15316 -30.368731,28.93583 -3.183902,2.5404 -5.494647,4.6189 -5.13499,4.6189 0.359658,0 -0.107025,1.1613 -1.037074,2.5808 -0.930048,1.4194 -1.444426,3.2233 -1.143062,4.0086 0.301364,0.7854 0.04205,2.6615 -0.576264,4.1693 -0.752639,1.8352 -1.157392,14.4744 -1.224629,38.2413 -0.07255,25.646 0.151255,33.4182 0.806292,28 0.807238,-6.6771 1.281651,-7.8566 4.323884,-10.75 z m 32.274757,-55.9695 c -4.671425,-1.6865 -8.659963,-8.5311 -9.58968,-16.4565 -1.577513,-13.44762 7.367158,-25.47597 15.151744,-20.37531 5.915153,3.87576 9.067682,18.12851 6.031614,27.26921 -2.317653,6.9778 -7.321443,11.105 -11.593678,9.5626 z m 5.525282,-6.9023 c 2.911158,-3.1412 3.873224,-7.5592 3.258993,-14.96604 -0.592936,-7.15002 -3.276696,-10.91218 -7.784275,-10.91218 -8.949187,0 -11.796031,18.06072 -4.216513,26.75002 2.202404,2.5249 5.93924,2.1522 8.741795,-0.8718 z m -7.910254,-0.6147 c -0.182932,-0.6949 -0.846149,-2.8705 -1.473816,-4.8345 -1.542826,-4.8277 -1.512701,-4.929 1.465777,-4.929 1.838821,0 2.44674,0.4176 2.063142,1.4172 -0.299115,0.7795 0.133746,1.6773 0.961914,1.9951 1.109101,0.4256 1.421753,-0.01 1.186858,-1.6471 -0.207203,-1.4457 -1.369688,-2.5682 -3.318903,-3.205 -4.085296,-1.3345 -4.115899,-1.3827 -1.926999,-3.03875 1.059849,-0.80182 1.412644,-1.47218 0.783988,-1.48967 -2.479992,-0.069 -2.06299,-2.87305 0.734888,-4.94161 2.839929,-2.09965 3.005516,-2.11135 5.354945,-0.37842 1.675475,1.23583 2.266852,2.44141 1.914397,3.90269 -0.326362,1.3531 0.0569,2.33201 1.06439,2.71862 2.093542,0.80334 2.010702,5.29994 -0.177163,9.61654 -1.915936,3.7801 -8.010967,7.1786 -8.633418,4.8139 z m 4.384972,78.1775 c 0,-1.6825 -0.411565,-2.8047 -0.91459,-2.4938 -0.503024,0.3109 -1.142498,-1e-4 -1.421052,-0.691 -0.278555,-0.6909 -0.54199,-0.2919 -0.585411,0.8868 -0.04342,1.1786 -0.866447,2.4868 -1.828947,2.9071 -1.435899,0.6269 -1.211541,0.8941 1.25,1.4887 1.65,0.3985 3.1125,0.7778 3.25,0.8429 0.1375,0.065 0.25,-1.2583 0.25,-2.9407 z m -4,-18.382 c 0,-0.7925 -0.418906,-1.6999 -0.930902,-2.0163 -1.188889,-0.7348 -2.384603,1.1378 -1.569098,2.4573 0.919555,1.4879 2.5,1.2091 2.5,-0.441 z m -6.333073,-2.135 c 2.172783,-2.1728 2.491568,-3.2057 2.036519,-6.5983 -1.400144,-10.4389 -12.703446,-11.9673 -12.703446,-1.7178 0,4.7907 1.61656,8.3921 4.364082,9.7225 3.110885,1.5063 3.470301,1.4261 6.302845,-1.4064 z m -6.02407,0.076 c -2.075701,-2.0757 -2.205088,-10.3593 -0.203975,-13.0589 1.337821,-1.8048 1.556538,-1.8253 3.114039,-0.2914 2.243522,2.2095 2.433536,11.2924 0.281263,13.4446 -1.39796,1.398 -1.708154,1.3888 -3.191327,-0.094 z m -7.536426,-7.8251 c 0.101942,-3.7055 0.617742,-7.0045 1.146222,-7.3311 0.889512,-0.5497 -0.891305,-2.2922 -2.379816,-2.3285 -0.344939,-0.01 -0.428114,2.1222 -0.184832,4.7347 l 0.442331,4.75 -2.815168,-5 c -1.750829,-3.1097 -3.600324,-5.1123 -4.891898,-5.2969 -1.925357,-0.2752 -2.031809,0.053 -1.460447,4.5071 0.338956,2.6421 0.317819,6.2632 -0.04697,8.0468 -0.489725,2.3945 -0.306932,3.243 0.698657,3.243 0.749051,0 1.295916,-0.7875 1.215257,-1.75 -0.08066,-0.9625 -0.05967,-3.325 0.04665,-5.25 l 0.193305,-3.5 3.583479,6.2983 c 1.970914,3.4641 3.737469,6.1443 3.92568,5.9561 0.18821,-0.1882 0.425607,-3.3739 0.52755,-7.0794 z M 37.46429,998.27693 c 0,-0.46859 0.7875,-0.5694 1.75,-0.22404 0.9625,0.34537 1.39613,0.23988 0.96362,-0.23443 -0.78458,-0.8604 14.21723,-6.35305 17.53638,-6.42064 0.9625,-0.0196 1.75,-0.41341 1.75,-0.87513 0,-1.31461 4.66706,-3.10979 6.9445,-2.6712 2.54847,0.49079 2.56263,0.719 -0.40919,-6.5947 -3.08587,-7.59436 -12.38802,-21.68009 -16.98005,-25.71195 -6.67783,-5.86321 -17.61942,-5.17244 -28.39587,1.79272 -9.57857,6.19093 -12.33347,12.94631 -8.10684,19.87905 1.12479,1.84494 6.31972,7.75967 11.54428,13.14383 7.18594,7.40546 9.97455,9.66506 11.45119,9.27893 1.07359,-0.28075 1.95198,-0.89385 1.95198,-1.36244 z m 42.81918,-15.61515 c -0.18011,-0.93522 0.6869,-2.71477 1.92668,-3.95455 1.23978,-1.23978 2.25414,-3.10583 2.25414,-4.14678 0,-1.04095 1.0125,-2.38095 2.25,-2.97778 1.2375,-0.59682 1.68369,-1.11559 0.99153,-1.15281 -0.99693,-0.0536 -1.0055,-0.47277 -0.0412,-2.01684 0.91565,-1.46618 1.54289,-1.67892 2.53137,-0.85856 1.01217,0.84003 1.17354,0.72432 0.70233,-0.50362 -0.72439,-1.88775 -8.12514,-6.78599 -14.44316,-9.55932 -6.57501,-2.88614 -11.36869,-3.58393 -12.7971,-1.86281 -0.94736,1.1415 0.48455,3.92466 7.31413,14.21621 4.67065,7.03826 8.4921,13.18393 8.4921,13.65705 0,0.47311 0.258,0.86021 0.57332,0.86021 0.31533,0 0.42597,-0.76518 0.24586,-1.7004 z"
         id="path4703"
         inkscape:connector-curvature="0" />
      <path
         style="fill:#d22327"
         d="m -16.03571,1147.2478 c -23.079527,-2.8402 -41.650507,-6.9899 -55.991077,-12.5113 -9.916,-3.8178 -20.906833,-9.9434 -24.011121,-13.3824 -1.651529,-1.8295 -1.131167,-1.6886 3.002198,0.8131 6.448251,3.9027 9.714373,4.9172 8.886719,2.7604 -0.330383,-0.861 -0.102552,-1.5654 0.506292,-1.5654 0.608844,0 1.106989,-0.675 1.106989,-1.5 0,-0.825 0.45,-1.5 1,-1.5 0.55,0 1,-0.5692 1,-1.2648 0,-0.6957 0.9,-2.944 2,-4.9964 1.1,-2.0524 2,-4.3385 2,-5.0802 0,-0.7418 0.902759,-2.1656 2.006131,-3.1642 1.103372,-0.9985 1.794259,-2.0274 1.535305,-2.2863 -0.258954,-0.259 0.188287,-1.4119 0.993869,-2.562 0.805582,-1.1501 1.471586,-3.6785 1.480008,-5.6186 0.01148,-2.6456 0.257666,-3.1525 0.984687,-2.0275 0.836927,1.295 0.971467,1.2706 0.984687,-0.1786 0.0084,-0.9232 0.615634,-2.2789 1.349359,-3.0126 0.998451,-0.9985 1.498602,-7.3684 1.988183,-25.3214 0.7387,-27.0884 2.294867,-50.1861 3.75259,-55.6987 0.739393,-2.796 2.885524,-5.3759 8.703287,-10.46223 4.247042,-3.71308 14.10793,-13.18052 21.913085,-21.03877 14.620538,-14.71999 16.723509,-16.03237 20.383208,-12.72039 1.590746,1.43961 2.120379,1.27078 6.499221,-2.07166 8.94222,-6.82576 23.08143,-12.50064 38.67638,-15.52307 5.10082,-0.98858 6.20673,-1.75922 5.90447,-4.11446 -0.2041,-1.59034 9.07926,-1.77461 17.28061,-0.34302 33.16157,5.78854 59.50417,25.93103 80.52002,61.5685 7.66518,12.9981 7.24384,12.5882 13.75049,13.38 15.14887,1.8436 62.08487,12.5793 63.25193,14.4676 0.30721,0.4971 3.70494,2.0851 7.55052,3.5288 8.75939,3.2886 19.70139,9.7195 22.42165,13.1777 5.14893,6.5458 1.08165,9.8408 -19.65037,15.9191 -0.93785,0.275 -0.88671,1.3045 0.22068,4.4432 1.10707,3.1378 1.15825,4.1663 0.22068,4.4348 -15.85691,4.5413 -35.16486,14.264 -60.72068,30.5766 -53.07893,33.8808 -88.24062,44.1771 -149.78825,43.8621 -13.59146,-0.07 -27.86175,-0.5142 -31.71175,-0.9879 z m 25.35268,-25.4616 c 2.86265,-6.2829 6.0852,-34.334 8.26272,-71.924 0.66907,-11.55 0.90785,-22.6266 0.53062,-24.6147 -0.47919,-2.5254 -3.33574,-6.7442 -9.47951,-14 -12.79578,-15.11187 -19.883204,-24.6727 -22.748531,-30.6874 -1.389216,-2.91615 -3.223202,-5.56968 -4.075525,-5.89675 -1.065642,-0.40893 -4.128656,2.1842 -9.806468,8.30208 -4.541234,4.89321 -13.249027,13.12649 -19.350652,18.29617 -6.946839,5.8858 -11.478482,10.5027 -12.122774,12.351 -1.950592,5.5954 -3.304179,34.886 -2.896128,62.6699 0.467981,31.8644 0.409455,31.6371 9.168282,35.612 10.781136,4.8926 43.731939,12.2132 55.754766,12.3869 5.07225,0.073 5.6981,-0.1576 6.7632,-2.4952 z M 37.46429,998.27693 c 0,-0.46859 0.7875,-0.5694 1.75,-0.22404 0.9625,0.34537 1.39613,0.23988 0.96362,-0.23443 -0.78458,-0.8604 14.21723,-6.35305 17.53638,-6.42064 0.9625,-0.0196 1.75,-0.41341 1.75,-0.87513 0,-1.31461 4.66706,-3.10979 6.9445,-2.6712 2.54847,0.49079 2.56263,0.719 -0.40919,-6.5947 -3.08587,-7.59436 -12.38802,-21.68009 -16.98005,-25.71195 -6.67783,-5.86321 -17.61942,-5.17244 -28.39587,1.79272 -9.57857,6.19093 -12.33347,12.94631 -8.10684,19.87905 1.12479,1.84494 6.31972,7.75967 11.54428,13.14383 7.18594,7.40546 9.97455,9.66506 11.45119,9.27893 1.07359,-0.28075 1.95198,-0.89385 1.95198,-1.36244 z m 42.81918,-15.61515 c -0.18011,-0.93522 0.6869,-2.71477 1.92668,-3.95455 1.23978,-1.23978 2.25414,-3.10583 2.25414,-4.14678 0,-1.04095 1.0125,-2.38095 2.25,-2.97778 1.2375,-0.59682 1.68369,-1.11559 0.99153,-1.15281 -0.99693,-0.0536 -1.0055,-0.47277 -0.0412,-2.01684 0.91565,-1.46618 1.54289,-1.67892 2.53137,-0.85856 1.01217,0.84003 1.17354,0.72432 0.70233,-0.50362 -0.72439,-1.88775 -8.12514,-6.78599 -14.44316,-9.55932 -6.57501,-2.88614 -11.36869,-3.58393 -12.7971,-1.86281 -0.94736,1.1415 0.48455,3.92466 7.31413,14.21621 4.67065,7.03826 8.4921,13.18393 8.4921,13.65705 0,0.47311 0.258,0.86021 0.57332,0.86021 0.31533,0 0.42597,-0.76518 0.24586,-1.7004 z"
         id="path4701"
         inkscape:connector-curvature="0" />
      <path
         style="fill:#981d21"
         d="m -16.03571,1147.2478 c -23.079527,-2.8402 -41.650507,-6.9899 -55.991077,-12.5113 -10.077411,-3.8799 -20.986744,-9.9939 -24.011121,-13.4565 -1.83524,-2.1012 -1.713006,-2.0782 1.502198,0.2832 10.170002,7.4693 26.106615,12.4123 53.191673,16.4983 15.948173,2.4059 61.300377,2.3646 82.723937,-0.075 26.63639,-3.0337 50.03574,-8.0934 64.08439,-13.8573 4.125,-1.6924 7.66607,-3.2109 7.86905,-3.3743 0.82137,-0.6614 -2.92765,-3.4742 -3.86138,-2.8971 -0.55422,0.3425 -1.00767,0.1462 -1.00767,-0.4363 0,-0.5825 -1.05615,-1.059 -2.34699,-1.059 -1.29084,0 -3.39185,-0.9062 -4.6689,-2.0138 -1.27705,-1.1076 -3.0334,-1.8117 -3.90301,-1.5647 -0.8696,0.247 -4.7311,1.3618 -8.5811,2.4772 -21.3135,6.1751 -45.07973,10.1013 -61.1451,10.1013 -7.10712,0 -7.17171,0.024 -9.20334,3.4677 -2.6104,4.4243 -5.21226,5.033 -15.41826,3.6074 -29.438057,-4.1121 -55.595673,-11.1572 -62.367511,-16.7975 -4.548608,-3.7886 -4.869303,-7.1394 -4.81184,-50.2776 0.05709,-42.8568 0.961585,-55.4977 4.29319,-60 1.01747,-1.375 5.180602,-5.37993 9.251404,-8.89982 9.889437,-8.55106 21.143734,-19.34752 28.053595,-26.91233 7.917106,-8.66752 10.811529,-8.24056 15.861022,2.3397 3.61677,7.57826 11.19675,17.84639 23.78107,32.21475 12.74897,14.5563 12.59707,14.114 11.73228,34.164 -0.39364,9.1265 -0.89866,18.1687 -1.12226,20.0937 -1.21941,10.4976 -1.60375,34.8155 -0.57819,36.5823 1.01271,1.7447 1.11587,1.7579 1.14353,0.1462 0.0362,-2.108 4.80628,-9.6948 7.2342,-11.5059 0.94184,-0.7025 1.45353,-1.952 1.1371,-2.7767 -0.3369,-0.8779 0.50934,-2.5045 2.04188,-3.9249 1.43948,-1.334 2.61723,-3.3204 2.61723,-4.4142 0,-1.0939 0.38656,-2.2277 0.85903,-2.5197 0.47246,-0.292 1.15924,-3.581 1.52618,-7.309 1.14492,-11.6319 1.86224,-16.364 2.39918,-15.8271 0.28482,0.2849 1.12596,-0.2626 1.86919,-1.2166 1.17157,-1.5037 1.27542,-1.5151 0.7807,-0.086 -0.31385,0.9069 -0.0899,1.946 0.49755,2.3091 0.58749,0.3631 1.08248,2.7711 1.09997,5.3511 0.0294,4.3403 0.139,4.5415 1.4659,2.691 0.78875,-1.1 1.80944,-2.45 2.26821,-3 0.45877,-0.55 1.71162,-2.575 2.78411,-4.5 3.2709,-5.8709 4.84238,-7.492 7.44998,-7.6853 3.73463,-0.2768 12.13999,-4.2792 11.42302,-5.4393 -0.34334,-0.5555 0.25203,-1.2392 1.32304,-1.5193 1.75773,-0.4596 1.95368,-1.469 2.01296,-10.3692 0.06301,-9.4598 1.63556,-16.9869 3.54886,-16.9869 0.49835,0 0.63811,0.6984 0.31056,1.5519 -0.34149,0.8899 -0.17385,1.2913 0.39301,0.941 0.5437,-0.336 1.02492,-1.5969 1.06937,-2.8019 0.15521,-4.2075 5.62417,14.9491 8.37061,29.3205 1.52285,7.9687 3.19343,15.1635 3.71239,15.9885 0.68207,1.0843 0.844,0.6393 0.58427,-1.6056 -0.27992,-2.4194 -0.0156,-3.0156 1.1963,-2.6987 1.77199,0.4634 1.85918,-0.1984 1.96627,-14.9245 0.0682,-9.3788 -1.37156,-18.8316 -4.44786,-29.2027 -1.8041,-6.08215 -1.80936,-6.56852 -0.07095,-6.56852 2.31231,0 11.18784,8.65012 16.19972,15.78832 6.04811,8.6141 6.33722,8.9164 6.14993,6.43 -0.0862,-1.1439 -0.51326,-1.8594 -0.94909,-1.59 -0.43582,0.2693 -0.79241,-0.2384 -0.79241,-1.1283 0,-0.8899 0.40595,-1.3672 0.9021,-1.0605 1.10463,0.6827 5.56981,-6.4119 5.21748,-8.2899 -0.15072,-0.8033 0.21926,-1.0582 0.91331,-0.6293 0.82785,0.5116 0.80167,0.033 -0.0902,-1.6496 -3.02735,-5.71047 -11.2972,-18.48328 -15.52158,-23.97318 -3.97597,-5.16706 -4.41805,-6.19637 -3.2604,-7.59125 0.73658,-0.88752 1.22674,-1.76952 1.08924,-1.95999 -0.1375,-0.19046 -0.24311,-0.6838 -0.23469,-1.0963 0.008,-0.4125 0.45153,-0.075 0.98469,0.75 0.74542,1.15346 0.97291,1.18717 0.98469,0.14593 0.008,-0.74474 -2.79719,-4.10619 -6.23469,-7.46989 -5.98498,-5.8565 -6.05662,-5.98278 -1.6894,-2.9782 13.1097,9.01928 30.54552,29.22535 40.45687,46.88478 2.57274,4.584 5.19629,8.7315 5.83012,9.2167 0.63382,0.4852 5.87741,1.6378 11.65241,2.5613 22.67295,3.6258 58,12.0652 58,13.8559 0,0.5572 -0.77236,0.6801 -1.75,0.2784 -3.92162,-1.6115 -18.4955,-5.2677 -36.24963,-9.0941 -7.64216,-1.6471 -15.40313,-1.8616 -14.50032,-0.4008 0.33992,0.55 1.49477,1 2.56634,1 1.07157,0 4.18351,1.2072 6.91542,2.6826 4.29887,2.3218 5.28054,2.515 7.29689,1.4358 1.97034,-1.0544 4.19195,-0.7767 14.39993,1.8004 22.30076,5.6301 36.75137,11.2063 43.28242,16.7018 4.54903,3.8278 5.31085,6.35 2.75744,9.1294 -2.03704,2.2173 -2.03823,2.25 -0.0813,2.25 2.29518,0 6.36288,-3.4548 6.36288,-5.4041 0,-0.7294 -0.94398,-2.6244 -2.09774,-4.2111 l -2.09774,-2.8848 2.59774,2.8057 c 1.42876,1.5432 2.59774,3.6578 2.59774,4.6991 0,2.8167 -5.60293,6.5479 -13.5,8.9901 -3.85,1.1907 -7.54931,2.3348 -8.22068,2.5424 -0.93848,0.2901 -0.88747,1.3219 0.22068,4.4627 1.10707,3.1378 1.15825,4.1663 0.22068,4.4348 -15.85693,4.5413 -35.16488,14.264 -60.7207,30.5766 -53.07893,33.8808 -88.24062,44.1771 -149.78825,43.8621 -13.59146,-0.07 -27.86175,-0.5142 -31.71175,-0.9879 z m 25.29969,-25.3453 c 4.01028,-8.8016 11.46817,-88.3646 9.0902,-96.9769 -0.57551,-2.0844 -4.27708,-7.4992 -8.69596,-12.721 -14.46659,-17.09504 -19.187832,-23.34567 -22.778983,-30.15794 -1.976075,-3.74854 -4.29767,-7.08598 -5.159099,-7.41654 -1.088428,-0.41767 -4.493303,2.47378 -11.161042,9.47808 -5.277143,5.5435 -14.021299,13.79171 -19.431456,18.3293 -5.410158,4.5377 -10.235771,9.3001 -10.723584,10.5831 -3.130305,8.2333 -4.076441,88.9664 -1.10379,94.1856 2.377172,4.1738 16.261068,8.9756 39.164024,13.5451 15.03272,2.9992 16.90717,3.2685 24.08948,3.4611 5.0374,0.135 5.70019,-0.093 6.71021,-2.3099 z m 203.20031,-77.174 c 0,-3.4764 -7.90761,-8.0957 -23.83145,-13.9213 -5.04584,-1.8459 -7.65364,-2.3599 -8.3649,-1.6487 -0.71127,0.7113 -0.0779,1.5277 2.03179,2.6186 1.68588,0.8718 3.67773,1.5851 4.42634,1.5851 0.7486,0 2.32713,0.9 3.50785,2 1.18071,1.1 2.814,2 3.62954,2 0.81554,0 1.71084,0.369 1.98957,0.82 0.27873,0.4509 3.68029,2.0975 7.55902,3.659 3.87873,1.5614 7.05224,3.2174 7.05224,3.68 0,0.4625 0.45,0.841 1,0.841 0.55,0 1,-0.7352 1,-1.6337 z m 22.75,-1.9383 c -3.73844,-2.0281 -3.51088,-2.8728 0.25,-0.928 1.65,0.8532 3,1.7648 3,2.0257 0,0.6435 -0.10745,0.6072 -3.25,-1.0977 z m -164.25,-6.428 c 0.33992,-0.55 0.81648,-1 1.05902,-1 0.24254,0 0.44098,0.45 0.44098,1 0,0.55 -0.47656,1 -1.05902,1 -0.58246,0 -0.7809,-0.45 -0.44098,-1 z"
         id="path4699"
         inkscape:connector-curvature="0" />
      <path
         style="fill:#691214"
         d="m -3.78571,1147.6999 c 0.6875,-0.2774 1.8125,-0.2774 2.5,0 0.6875,0.2774 0.125,0.5044 -1.25,0.5044 -1.375,0 -1.9375,-0.227 -1.25,-0.5044 z m 12.5,-0.082 c 4.8125,-0.1833 12.6875,-0.1833 17.5,0 4.8125,0.1833 0.875,0.3333 -8.75,0.3333 -9.625,0 -13.5625,-0.15 -8.75,-0.3333 z m 27.5625,0.062 c 0.72187,-0.2889 1.58437,-0.2534 1.91667,0.079 0.33229,0.3323 -0.25834,0.5686 -1.3125,0.5252 -1.16495,-0.048 -1.4019,-0.2849 -0.60417,-0.6041 z m 26,-3 c 0.72187,-0.2889 1.58437,-0.2534 1.91667,0.079 0.33229,0.3323 -0.25834,0.5686 -1.3125,0.5252 -1.16495,-0.048 -1.4019,-0.2849 -0.60417,-0.6041 z m 6,-1 c 0.72187,-0.2889 1.58437,-0.2534 1.91667,0.079 0.33229,0.3323 -0.25834,0.5686 -1.3125,0.5252 -1.16495,-0.048 -1.4019,-0.2849 -0.60417,-0.6041 z m 3.9375,-0.9792 c 0.6875,-0.2774 1.8125,-0.2774 2.5,0 0.6875,0.2774 0.125,0.5044 -1.25,0.5044 -1.375,0 -1.9375,-0.227 -1.25,-0.5044 z m 6.0625,-1.0208 c 0.72187,-0.2889 1.58437,-0.2534 1.91667,0.079 0.33229,0.3323 -0.25834,0.5686 -1.3125,0.5252 -1.16495,-0.048 -1.4019,-0.2849 -0.60417,-0.6041 z m 4,-1 c 0.72187,-0.2889 1.58437,-0.2534 1.91667,0.079 0.33229,0.3323 -0.25834,0.5686 -1.3125,0.5252 -1.16495,-0.048 -1.4019,-0.2849 -0.60417,-0.6041 z m 4.1875,-1.3169 c 0.825,-0.5332 2.41249,-0.9763 3.52776,-0.9847 1.11527,-0.01 2.79836,-0.9153 3.74021,-2.0153 1.61808,-1.8898 1.61655,-2.0044 -0.0278,-2.079 -1.04474,-0.047 -1.24065,-0.2805 -0.49021,-0.5833 0.6875,-0.2774 1.25,-0.9434 1.25,-1.4801 0,-0.5366 -0.35899,-0.7538 -0.79775,-0.4826 -0.43876,0.2712 -1.45126,0.08 -2.25,-0.4257 -1.23748,-0.7828 -1.21768,-0.921 0.13388,-0.934 2.95541,-0.029 24.71276,-9.0951 34.79443,-14.4993 5.51464,-2.9561 16.68501,-9.8213 24.82303,-15.2561 22.20765,-14.8307 37.29645,-24.0157 37.29645,-22.7033 0,0.3525 1.60072,-0.3035 3.55716,-1.4578 3.64023,-2.1478 9.876,-2.825 10.89098,-1.1827 0.31139,0.5038 0.12346,2.0805 -0.41763,3.5036 l -0.98379,2.5876 3.59876,-1.5037 c 7.75945,-3.2421 5.03538,-1.2241 -5.90022,4.3709 -6.31508,3.231 -17.7287,9.8287 -25.36361,14.6617 -36.50361,23.107 -49.24196,29.7521 -70.91352,36.9925 -12.68967,4.2395 -20.06139,5.7934 -16.46813,3.4713 z m 126,-62 c 0.825,-0.5332 1.95,-0.9694 2.5,-0.9694 0.55,0 0.325,0.4362 -0.5,0.9694 -0.825,0.5331 -1.95,0.9693 -2.5,0.9693 -0.55,0 -0.325,-0.4362 0.5,-0.9693 z m -68.98173,-61.4659 c -0.72584,-1.3562 -1.69672,-2.2328 -2.15753,-1.9481 -0.46081,0.2848 -0.54151,-0.2543 -0.17935,-1.1981 0.44376,-1.1564 0.28072,-1.4825 -0.5,-1 -0.78071,0.4825 -0.94376,0.1564 -0.5,-1 0.44376,-1.1564 0.28072,-1.4825 -0.5,-1 -0.75689,0.4678 -0.95204,0.178 -0.56295,-0.836 0.32755,-0.8535 0.20724,-1.5519 -0.26734,-1.5519 -0.47458,0 -1.47006,-1.3718 -2.21218,-3.0483 -0.74212,-1.6766 -2.37183,-4.2641 -3.62159,-5.75001 -2.64045,-3.13945 -6.97591,-10.60316 -5.7016,-9.8156 2.27551,1.40635 19.71065,29.61391 18.3044,29.61391 -0.43019,0 -1.37603,-1.1097 -2.10186,-2.4659 z"
         id="path4697"
         inkscape:connector-curvature="0" />
    </g>
  </g>
</svg>
