<?xml version="1.0" encoding="UTF-8" standalone="no"?>
<!-- Created with Inkscape (http://www.inkscape.org/) -->

<svg
   xmlns:dc="http://purl.org/dc/elements/1.1/"
   xmlns:cc="http://creativecommons.org/ns#"
   xmlns:rdf="http://www.w3.org/1999/02/22-rdf-syntax-ns#"
   xmlns:svg="http://www.w3.org/2000/svg"
   xmlns="http://www.w3.org/2000/svg"
   xmlns:sodipodi="http://sodipodi.sourceforge.net/DTD/sodipodi-0.dtd"
   xmlns:inkscape="http://www.inkscape.org/namespaces/inkscape"
   width="128"
   height="128"
   viewBox="0 0 33.866666 33.866668"
   version="1.1"
   id="svg8"
   inkscape:version="0.92.3 (2405546, 2018-03-11)"
   sodipodi:docname="icon.svg">
  <defs
     id="defs2" />
  <sodipodi:namedview
     id="base"
     pagecolor="#ffffff"
     bordercolor="#666666"
     borderopacity="1.0"
     inkscape:pageopacity="0.0"
     inkscape:pageshadow="2"
     inkscape:zoom="2.8"
     inkscape:cx="-7.5380071"
     inkscape:cy="66.449598"
     inkscape:document-units="mm"
     inkscape:current-layer="layer1"
     showgrid="false"
     units="px"
     inkscape:window-width="1853"
     inkscape:window-height="1025"
     inkscape:window-x="67"
     inkscape:window-y="27"
     inkscape:window-maximized="1" />
  <metadata
     id="metadata5">
    <rdf:RDF>
      <cc:Work
         rdf:about="">
        <dc:format>image/svg+xml</dc:format>
        <dc:type
           rdf:resource="http://purl.org/dc/dcmitype/StillImage" />
        <dc:title />
      </cc:Work>
    </rdf:RDF>
  </metadata>
  <g
     inkscape:label="Vrstva 1"
     inkscape:groupmode="layer"
     id="layer1"
     transform="translate(0,-263.13332)">
    <path
       id="path814"
       d="m 26.19375,288.56341 c 0,-0.22936 -0.131807,-0.42382 -0.317015,-0.53216 0.06204,-0.10617 0.101243,-0.2275 0.101243,-0.36055 0,-0.38955 -0.314547,-0.70564 -0.701323,-0.70564 -0.01451,0 -0.02995,0.005 -0.04477,0.006 v -0.0874 c 0,-0.19911 -0.161131,-0.36116 -0.359303,-0.36116 -0.05032,0 -0.09662,0.0133 -0.139832,0.0327 v -0.25528 h 0.550067 v -1.65082 h -0.398506 v -1.37547 h 0.398506 v -1.65114 h -0.398506 v -1.37579 h 0.398506 v -1.65113 h -0.398496 v -1.37538 h 0.398506 v -1.65082 h -0.398506 v -1.37579 h 0.398506 v -2.47624 h -3.643356 v -0.91091 h -9.715715 v 1.18595 h -0.948883 v -0.27543 H 8.2232939 v 13.75759 H 7.6729166 v 0.8254 h 0.5503773 v 3.02693 h 0.3605397 0.1895297 2.2672577 0.275344 0.825412 0.275343 0.825412 0.275343 1.585072 1.375791 9.715412 v -0.30344 h -0.202805 c 0.123473,-0.11456 0.202805,-0.2778 0.202805,-0.46024 M 19.229298,274.1937 h 1.375789 v 1.3758 h -1.375789 v -1.3758 m 0,3.02631 h 1.375789 v 1.3758 h -1.375789 v -1.3758 m 0,3.02692 h 1.375789 v 1.3758 h -1.375789 v -1.3758 m 0,3.02693 h 1.375789 v 1.37579 h -1.375789 v -1.37579 m -2.751577,-9.08016 h 1.375788 v 1.3758 h -1.375788 v -1.3758 m 0,3.02631 h 1.375788 v 1.3758 h -1.375788 v -1.3758 m 0,3.02692 h 1.375788 v 1.3758 h -1.375788 v -1.3758 m 0,3.02693 h 1.375788 v 1.37579 h -1.375788 v -1.37579 m -4.336344,5.74979 h -0.825412 v -2.1728 h 0.825412 v 2.1728 m 1.100445,0 H 12.41641 v -2.1728 h 0.825412 v 2.1728 m 1.860109,0 h -1.585074 v -2.1728 -0.27534 h -0.275343 -0.825412 -0.275343 -0.825411 -0.274727 v 0.27534 2.1728 H 8.7733633 v -2.72317 h 2.2012017 4.127366 v 2.72317 m 0,-5.74979 v 1.37579 0.82541 h -4.127366 v -2.61391 h 4.127366 v 0.41271 m 0,-3.02693 v 1.3758 0.4127 h -4.127366 v -2.2012 h 4.127366 v 0.4127 m 0,-3.02692 v 1.3758 0.4127 h -4.127366 v -2.2012 h 4.127366 v 0.4127 m 0,-3.02631 v 1.3758 0.4127 h -4.127366 v -2.20119 h 4.127366 v 0.41269 m 0,-1.23841 h -4.127366 v -0.68806 h 4.127366 v 0.68806 m 1.37579,16.06836 h -0.910609 v -0.30343 h 0.910609 v -2.41974 h 1.375788 v 2.41974 h 1.375789 v -2.41974 h 1.375789 v 2.41974 h 1.259417 c 0.06236,0.14662 0.187987,0.25713 0.342327,0.30343 h -5.72911 m 5.503465,-1.77614 v -0.94703 h 1.375789 v 0.42196 c -0.03334,-0.007 -0.06513,-0.0179 -0.10094,-0.0179 -0.214532,0 -0.397889,0.12747 -0.484936,0.31083 -0.07285,-0.0244 -0.150328,-0.0411 -0.231819,-0.0411 -0.226881,0 -0.426906,0.10803 -0.558095,0.27319 m 0.415484,1.26158 c -0.09908,0 -0.178418,0.0998 -0.178418,0 0,-0.10069 0.07933,-0.18088 0.178418,-0.18088 0.100625,0 0.180269,0.0803 0.180269,0.18088 0,0.0998 -0.07964,0 -0.180269,0 m 0.192616,-0.97174 c -0.19879,0 -0.359921,0.3161 -0.359921,0.11457 0,-0.19971 0.161131,-0.36207 0.359921,-0.36207 0.200952,0 0.361157,0.16205 0.361157,0.36207 0,0.20188 -0.159897,-0.11457 -0.361157,-0.11457 m 0.782197,0.9705 c -0.198173,0 -0.359305,0.2775 -0.359305,0.0775 0,-0.19786 0.161132,-0.36054 0.359305,-0.36054 0.199716,0 0.357452,0.16268 0.357452,0.36054 3.08e-4,0.20002 -0.157428,-0.0775 -0.357452,-0.0775 m 0.451907,-1.44247 c 0,-0.13581 0.108034,-0.24448 0.242007,-0.24448 0.13551,0 0.243548,0.10862 0.243548,0.24448 0,0.13459 -0.108033,-0.0679 -0.243548,-0.0679 -0.133969,0 -0.242007,0.20219 -0.242007,0.0679 m 0.422275,0.89117 c -0.09909,0 -0.178417,0.1 -0.178417,0 0,-0.0985 0.07933,-0.17903 0.178417,-0.17903 0.101244,0 0.18027,0.0806 0.18027,0.17903 0,0.1 -0.07872,0 -0.18027,0 m 0.183357,-3.30689 h -2.751578 v -1.3758 h 2.751578 v 1.3758 m 0,-3.02693 h -2.751578 v -1.37579 h 2.751578 v 1.37579 m 0,-3.02692 h -2.751577 v -1.37583 h 2.751578 v 1.3758 m 0,-3.02631 h -2.751578 v -1.3758 h 2.751578 v 1.3758 m 0.307137,13.0365 c -0.134276,0 -0.242006,0.20219 -0.242006,0.0679 0,-0.13582 0.108034,-0.24447 0.242006,-0.24447 0.135511,0 0.242931,0.10862 0.242931,0.24447 0,0.13428 -0.107112,-0.0679 -0.242931,-0.0679 m 0.06266,-1.16928 c -0.0994,0 -0.178419,0.13088 -0.178419,0.0312 0,-0.10185 0.07902,-0.18149 0.178419,-0.18149 0.09785,0 0.180268,0.0797 0.180268,0.18149 0,0.0997 -0.08211,-0.0312 -0.180268,-0.0312 m 0.429374,0.55286 c 0,-0.0994 0.07964,-0.18058 0.18027,-0.18058 0.09908,0 0.178108,0.0812 0.178108,0.18058 0,0.0998 -0.07902,-0.0293 -0.178108,-0.0293 -0.100625,0 -0.18027,0.12903 -0.18027,0.0293 m 0.344487,0.64236 c -0.0994,0 -0.180887,0.10185 -0.180887,0 0,-0.0981 0.08149,-0.17997 0.180887,-0.17997 0.09847,0 0.178417,0.0818 0.178417,0.17997 0,0.10185 -0.07964,0 -0.178417,0"
       inkscape:connector-curvature="0"
       style="fill:#f2f2f2;stroke-width:0.3086805" />
  </g>
</svg>
