<?xml version="1.0" encoding="UTF-8" standalone="no"?>
<!-- Created with Inkscape (http://www.inkscape.org/) -->

<svg
   xmlns:dc="http://purl.org/dc/elements/1.1/"
   xmlns:cc="http://creativecommons.org/ns#"
   xmlns:rdf="http://www.w3.org/1999/02/22-rdf-syntax-ns#"
   xmlns:svg="http://www.w3.org/2000/svg"
   xmlns="http://www.w3.org/2000/svg"
   xmlns:sodipodi="http://sodipodi.sourceforge.net/DTD/sodipodi-0.dtd"
   xmlns:inkscape="http://www.inkscape.org/namespaces/inkscape"
   width="64"
   height="64"
   viewBox="0 0 64 64"
   id="svg2"
   version="1.1"
   inkscape:version="0.91 r13725"
   sodipodi:docname="icon.svg">
  <defs
     id="defs4" />
  <sodipodi:namedview
     id="base"
     pagecolor="#ffffff"
     bordercolor="#666666"
     borderopacity="1.0"
     inkscape:pageopacity="0.0"
     inkscape:pageshadow="2"
     inkscape:zoom="7.9195959"
     inkscape:cx="17.586528"
     inkscape:cy="6.0894666"
     inkscape:document-units="px"
     inkscape:current-layer="g4191"
     showgrid="false"
     units="px"
     inkscape:window-width="1855"
     inkscape:window-height="1056"
     inkscape:window-x="65"
     inkscape:window-y="24"
     inkscape:window-maximized="1" />
  <metadata
     id="metadata7">
    <rdf:RDF>
      <cc:Work
         rdf:about="">
        <dc:format>image/svg+xml</dc:format>
        <dc:type
           rdf:resource="http://purl.org/dc/dcmitype/StillImage" />
        <dc:title />
      </cc:Work>
    </rdf:RDF>
  </metadata>
  <g
     inkscape:label="Vrstva 1"
     inkscape:groupmode="layer"
     id="layer1"
     transform="translate(0,-988.36216)">
    <g
       id="g4191"
       transform="matrix(0.77641751,0,0,0.77641751,11.964387,239.77186)"
       style="fill:#000080">
      <path
         style="fill:#000080"
         d="m 15.363553,979.62182 0,10.44716 0,0.8005 0,9.64672 -13.7158537,0 c -13.5914013,0 -13.7079203,0.031 -12.9359923,3.6145 0.172328,0.8 0.326628,2.5161 0.45817,4.5484 0.01114,2.3267 0.04541,4.9017 0.126727,7.7666 l 0.220962,7.8313 0.0098,6.776 1.2932754,0 13.5631345,0 0.090984,0 13.4721471,0 1.29003,0 0,-4.0186 c 0,-1.6136 0.31333,-2.997 0.757116,-3.6348 0.360657,-0.4348 0.791717,-0.3249 1.179546,0.2344 0.378762,0.7027 0.646634,1.9362 0.646633,3.4004 l 0,4.0186 1.293275,0 19.376374,0 16.968537,0 3.697857,0.081 0,-9.7276 0,-0.014 c 0,-5.3909 -0.290107,-8.314 -1.039814,-9.7235 -0.618954,-1.8947 -1.571002,-3.3311 -2.982982,-4.5525 -0.391237,-0.9125 -1.580036,-1.6126 -3.155201,-2.0539 -0.555917,-0.2916 -1.101054,-0.5844 -1.741693,-0.8731 -3.715194,-1.6745 -5.00065,-1.5002 -9.319379,1.241 l -4.887143,3.097 c -0.01509,8e-4 -0.04778,0.016 -0.06173,0.016 -0.02136,0 -0.04082,-0.017 -0.06173,-0.025 l 0,-14.40535 0,-14.49817 -1.293276,0 -10.979835,0 -12.269859,0 z m 4.519963,4.81929 c 1.06568,0 1.936664,0.72515 1.936663,1.60911 1e-6,0.88396 -0.870983,1.60508 -1.936663,1.60508 -0.761642,0 -1.409324,-0.37618 -1.725446,-0.90968 0.0082,-0.0577 4.57e-4,-0.0896 0.0101,-0.14959 0.128804,-0.83218 0.44573,-1.47899 0.841601,-1.96087 0.265622,-0.11403 0.555858,-0.19405 0.874097,-0.19405 z m 7.103263,0 c 0.710459,0 1.293277,0.72515 1.293277,1.60911 0,0.88396 -0.582818,1.60508 -1.293277,1.60508 -0.710451,0 -1.290021,-0.72112 -1.290021,-1.60508 0,-0.88396 0.57957,-1.60911 1.290021,-1.60911 z m 6.459875,0 c 0.710455,0 1.290027,0.72515 1.290027,1.60911 0,0.88396 -0.579572,1.60508 -1.290027,1.60508 -0.710453,0 -1.293275,-0.72112 -1.293275,-1.60508 0,-0.88396 0.582822,-1.60911 1.293275,-1.60911 z m -13.563138,8.0375 c 1.06568,0 1.936664,0.72514 1.936663,1.60914 1e-6,0.8839 -0.870983,1.605 -1.936663,1.605 -1.065672,0 -1.936654,-0.7211 -1.936654,-1.605 -2e-6,-0.884 0.870982,-1.60914 1.936654,-1.60914 z m 7.103263,0 c 0.710459,0 1.293277,0.72514 1.293277,1.60914 0,0.8839 -0.582818,1.605 -1.293277,1.605 -0.710451,0 -1.290021,-0.7211 -1.290021,-1.605 0,-0.884 0.57957,-1.60914 1.290021,-1.60914 z m 6.459875,0 c 0.710455,0 1.290027,0.72514 1.290027,1.60914 0,0.8839 -0.579572,1.605 -1.290027,1.605 -0.710453,0 -1.293275,-0.7211 -1.293275,-1.605 0,-0.884 0.582822,-1.60914 1.293275,-1.60914 z m -37.6934249,12.87299 c 0.00333,-2e-4 0.00642,2e-4 0.00977,0 0.823651,0.024 1.4228278,0.1337 1.8326812,0.4812 0.029169,0.027 0.063455,0.046 0.090983,0.077 0.078688,0.078 0.1393308,0.1904 0.2047146,0.2911 0.00438,0.014 0.00868,0.014 0.012997,0.02 0.2553279,0.4296 0.4238218,1.0607 0.5231603,1.9527 0.0038,0.034 0.00938,0.062 0.012997,0.096 0.00555,0.058 0.014423,0.1015 0.019497,0.1618 0.00316,0.037 0.00677,0.062 0.00975,0.1002 0.025446,0.2989 0.020818,0.7822 0.035745,1.1361 0.027804,0.7111 0.052505,1.4609 0.055241,2.4339 l 0,0.014 c -0.023465,4.9907 -0.4786061,6.0765 -2.5735514,6.0765 -2.15289,0 -2.5833,-1.071 -2.5833,-6.4284 0,-5.143 0.4127694,-6.325 2.3493412,-6.4122 z m 16.7865709,0.1699 c 0.216074,0.072 0.399162,0.1758 0.5589,0.3113 0.02918,0.027 0.06344,0.046 0.09098,0.077 0.08017,0.08 0.138318,0.196 0.204714,0.2992 0.270186,0.4465 0.4467,1.1041 0.5459,2.062 0.0093,0.094 0.02147,0.1631 0.02925,0.2627 0.02546,0.2987 0.0208,0.7823 0.03577,1.1362 0.02777,0.7111 0.05252,1.4609 0.05523,2.4339 -0.02263,5.0031 -0.476605,6.0887 -2.573549,6.0887 -2.1528927,0 -2.5833007,-1.0711 -2.5833007,-6.4284 0,-4.1968 0.27708,-5.7483 1.4265017,-6.2303 l 2.209615,-0.014 z m -7.6394167,0.044 c 0.1683595,0.067 0.3174411,0.1559 0.448422,0.2669 0.02917,0.026 0.063455,0.046 0.090984,0.077 0.080205,0.08 0.1383202,0.196 0.2047149,0.2992 0.270184,0.4465 0.4467057,1.1041 0.5459046,2.062 0.009,0.094 0.021477,0.1631 0.029239,0.2627 0.025442,0.2987 0.020814,0.7823 0.03574,1.1362 0.027805,0.7111 0.052505,1.4609 0.055244,2.4339 -0.022653,5.0031 -0.4766095,6.0887 -2.5735514,6.0887 -2.1528903,0 -2.5832984,-1.0711 -2.5832984,-6.4284 0,-4.0329 0.244494,-5.6351 1.2835253,-6.1818 l 2.4630704,-0.016 z m 39.5261047,9.4122 c 1.004759,0 1.809017,0.9778 1.900922,2.1994 -0.144604,1.5755 -0.803673,2.3993 -2.069892,2.5794 -0.201967,-0.024 -0.405298,-0.051 -0.584899,-0.1456 -0.69481,-0.3671 -1.182795,-1.2252 -1.182795,-2.2196 0,-1.326 0.870983,-2.4136 1.936664,-2.4136 z m 12.916494,0 c 1.065684,0 1.936665,1.0876 1.936665,2.4136 0,1.2515 -0.784384,2.2527 -1.767686,2.3652 -1.266226,-0.1801 -1.925292,-1.0039 -2.069892,-2.5794 0.06752,-0.8976 0.508447,-1.6702 1.150296,-2.0094 0.231603,-0.1228 0.484197,-0.19 0.750617,-0.19 z m -61.5962513,6.4485 c 0,0 0.00322,0 0.00322,0 0.748676,0.031 1.3324684,0.1418 1.7481944,0.4044 0.1639902,0.1027 0.3045753,0.2294 0.4256751,0.38 0.4263057,0.5305 0.5942605,1.3988 0.6303914,2.6886 -0.07579,1.9497 -0.9241959,2.9393 -2.5670528,2.9393 -1.7223106,0 -2.5833001,-1.0754 -2.5833001,-3.2183 0,-2.0368 0.7866835,-3.0932 2.3428428,-3.194 z m 14.5184693,0.2346 c 1.01468,0.021 2.043192,0.05 2.677529,0.1455 0.780599,0.46 1.065297,1.4065 1.111307,3.1091 -0.07994,1.9388 -0.928806,2.9231 -2.567058,2.9231 -1.7223067,0 -2.5832977,-1.0754 -2.5832977,-3.2183 0,-1.5522 0.457879,-2.5315 1.3615197,-2.9594 z m -5.3225746,0.036 c 0.9589845,0.4084 1.3095457,1.347 1.3615134,3.2022 -0.075786,1.9495 -0.924196,2.9391 -2.5670529,2.9391 -1.7223104,0 -2.5832983,-1.0753 -2.5832983,-3.2182 0,-1.3108 0.3238643,-2.216 0.9683308,-2.7249 0.6539659,-0.1211 1.7343574,-0.1611 2.820507,-0.1982 z m 39.4838626,2.9231 c 1.065683,0 1.936664,0.7252 1.936664,1.6091 0,0.884 -0.870981,1.6091 -1.936664,1.6091 -1.065681,0 -1.936664,-0.7251 -1.936664,-1.6091 0,-0.8839 0.870983,-1.6091 1.936664,-1.6091 z m 12.916494,0 c 1.065684,0 1.936665,0.7252 1.936665,1.6091 0,0.884 -0.870981,1.6091 -1.936665,1.6091 -1.065674,0 -1.936665,-0.7251 -1.936665,-1.6091 3e-6,-0.8839 0.870991,-1.6091 1.936665,-1.6091 z"
         id="path4197"
         inkscape:connector-curvature="0" />
    </g>
  </g>
</svg>
