<?xml version="1.0" encoding="UTF-8" standalone="no"?>
<!-- Created with Inkscape (http://www.inkscape.org/) -->

<svg
   xmlns:dc="http://purl.org/dc/elements/1.1/"
   xmlns:cc="http://creativecommons.org/ns#"
   xmlns:rdf="http://www.w3.org/1999/02/22-rdf-syntax-ns#"
   xmlns:svg="http://www.w3.org/2000/svg"
   xmlns="http://www.w3.org/2000/svg"
   xmlns:sodipodi="http://sodipodi.sourceforge.net/DTD/sodipodi-0.dtd"
   xmlns:inkscape="http://www.inkscape.org/namespaces/inkscape"
   width="64"
   height="64"
   viewBox="0 0 63.999999 63.999999"
   id="svg4147"
   version="1.1"
   inkscape:version="0.91 r13725"
   sodipodi:docname="icon.svg">
  <defs
     id="defs4149" />
  <sodipodi:namedview
     id="base"
     pagecolor="#ffffff"
     bordercolor="#666666"
     borderopacity="1.0"
     inkscape:pageopacity="0.0"
     inkscape:pageshadow="2"
     inkscape:zoom="1.979899"
     inkscape:cx="-23.454306"
     inkscape:cy="159.91695"
     inkscape:document-units="px"
     inkscape:current-layer="layer1"
     showgrid="false"
     units="px"
     inkscape:window-width="1855"
     inkscape:window-height="1056"
     inkscape:window-x="65"
     inkscape:window-y="24"
     inkscape:window-maximized="1" />
  <metadata
     id="metadata4152">
    <rdf:RDF>
      <cc:Work
         rdf:about="">
        <dc:format>image/svg+xml</dc:format>
        <dc:type
           rdf:resource="http://purl.org/dc/dcmitype/StillImage" />
        <dc:title></dc:title>
      </cc:Work>
    </rdf:RDF>
  </metadata>
  <g
     inkscape:label="Vrstva 1"
     inkscape:groupmode="layer"
     id="layer1"
     transform="translate(0,-988.3622)">
    <g
       id="g4162"
       transform="matrix(0.24873754,0,0,0.24873754,48.10248,801.06315)">
      <path
         style="fill:#c5c5c9"
         d="m -148.52878,974.97975 c -0.36667,-0.36666 -0.66667,-2.08873 -0.66667,-3.8268 0,-2.93944 -0.20862,-3.12952 -2.9872,-2.72172 -4.34764,0.6381 -7.85394,-0.51035 -10.59803,-3.47128 -2.99739,-3.23424 -3.24985,-9.06068 -0.53773,-12.41001 1.34716,-1.66367 1.73947,-3.34375 1.38971,-5.95145 -0.4078,-3.04031 -0.0613,-3.96854 2.12295,-5.68665 1.43567,-1.12929 2.6103,-2.80558 2.6103,-3.72508 0,-2.8518 1.79571,-5.21308 4.96178,-6.52451 l 3.03822,-1.25847 -0.0119,-46.12868 -0.0119,-46.12868 5.26185,-4.72745 5.26185,-4.72744 21.75,-0.0226 21.75,-0.0225 0,-15.28759 0,-15.28759 4.78435,-4.71241 4.78435,-4.71241 23.1114,0 23.11141,0 3.10424,4.83755 3.10425,4.83755 0,14.66245 0,14.66245 22.34346,0 22.34347,0 4.15653,4.92941 4.15654,4.9294 0,46.50126 0,46.50125 2.25,3.52701 c 1.59916,2.50678 2.99505,3.53926 4.82569,3.56934 4.95428,0.0814 8.6219,6.81107 5.98401,10.97997 -0.61779,0.97635 -0.29202,2.22285 1.01532,3.88486 2.09349,2.66145 2.53282,8.17322 0.89534,11.23289 -1.4347,2.68076 -6.20574,4.94461 -10.4207,4.94461 -3.4746,0 -3.54966,0.0846 -3.54966,4 l 0,4 -84.33333,0 c -46.38334,0 -84.63334,-0.3 -85,-0.66667 z"
         id="path4178"
         inkscape:connector-curvature="0" />
      <path
         style="fill:#9d9fa9"
         d="m -148.04614,971.28525 0.35069,-4.36117 -2.77511,0.96775 c -9.5516,3.33088 -18.91463,-7.84973 -12.84785,-15.34189 1.34716,-1.66367 1.73947,-3.34375 1.38971,-5.95145 -0.4078,-3.04031 -0.0613,-3.96854 2.12295,-5.68665 1.43567,-1.12929 2.6103,-2.7509 2.6103,-3.60358 0,-2.29233 4.12641,-6.49926 7.04328,-7.18072 3.07164,-0.71761 7.95672,2.69603 7.95672,5.56008 0,1.28449 0.4896,1.70815 1.51796,1.31353 2.53435,-0.97252 7.23704,1.63957 8.51757,4.73106 1.20516,2.90949 1.22148,2.91421 10.08579,2.91421 l 8.87868,0 0,11 0,11 -9.85331,0 c -5.41932,0 -12.61932,0.28911 -16,0.64246 l -6.14669,0.64245 0,3.85755 c 0,2.87011 -0.40974,3.85754 -1.60069,3.85754 -1.27651,0 -1.52967,-0.88325 -1.25,-4.36117 z m 166.51736,3.6945 c -0.36667,-0.36666 -0.66667,-2.44676 -0.66667,-4.62244 0,-3.37438 -0.21695,-3.77573 -1.47608,-2.73074 -0.98884,0.82066 -3.05194,1.00374 -6.25,0.55463 -2.62566,-0.36872 -9.16142,-0.89478 -14.52392,-1.16901 l -9.75,-0.4986 0,-10.93358 0,-10.93359 9.33948,0 c 8.9917,0 9.38191,-0.0931 10.47857,-2.5 0.62649,-1.375 1.59872,-2.5 2.16051,-2.5 0.56179,0 1.02144,-0.79987 1.02144,-1.77749 0,-2.57569 2.81756,-6.20265 5.65712,-7.28225 3.02746,-1.15104 7.89694,1.07936 8.8394,4.04877 0.41321,1.30191 1.51201,2.01097 3.11632,2.01097 5.00528,0 9.03535,6.84651 6.44245,10.94478 -0.62035,0.98051 -0.29408,2.31549 1.01531,4.15437 5.16328,7.25116 -1.08918,17.00573 -10.05666,15.68959 -2.95569,-0.43381 -3.01394,-0.35874 -3.01394,3.88445 0,4.04475 -0.75866,5.23481 -2.33333,3.66014 z m -92.66667,-16.83333 0,-15.5 10.5,0 10.5,0 0,15.5 0,15.5 -10.5,0 -10.5,0 0,-15.5 z m -31,-2.5 0,-11 11,0 11,0 0,11 0,11 -11,0 -11,0 0,-11 z m 61,0 0,-11 10.5,0 10.5,0 0,11 0,11 -10.5,0 -10.5,0 0,-11 z m -90.78383,-34.75 0.28383,-10.75 10.75,-0.28383 10.75,-0.28383 0,11.03383 0,11.03383 -11.03383,0 -11.03383,0 0.28383,-10.75 z m 30,0 0.28383,-10.75 10.75,-0.28383 10.75,-0.28383 0,11.03383 0,11.03383 -11.03383,0 -11.03383,0 0.28383,-10.75 z m 30.78383,-0.25 0,-11 10.5,0 10.5,0 0,11 0,11 -10.5,0 -10.5,0 0,-11 z m 30,0 0,-11 10.5,0 10.5,0 0,11 0,11 -10.5,0 -10.5,0 0,-11 z m 30,0 0,-11 10.5,0 10.5,0 0,11 0,11 -10.5,0 -10.5,0 0,-11 z m -121,-31 0,-11 11,0 11,0 0,11 0,11 -11,0 -11,0 0,-11 z m 30,0 0,-11 11,0 11,0 0,11 0,11 -11,0 -11,0 0,-11 z m 31,0 0,-11 10.5,0 10.5,0 0,11 0,11 -10.5,0 -10.5,0 0,-11 z m 30,0 0,-11 10.5,0 10.5,0 0,11 0,11 -10.5,0 -10.5,0 0,-11 z m 30,0 0,-11 10.5,0 10.5,0 0,11 0,11 -10.5,0 -10.5,0 0,-11 z m -120,-31 0,-11 11,0 11,0 0,11 0,11 -11,0 -11,0 0,-11 z m 30,0 0,-11 11,0 11,0 0,11 0,11 -11,0 -11,0 0,-11 z m 30,0 0,-11 11,0 11,0 0,11 0,11 -11,0 -11,0 0,-11 z m 30,0 0,-11 11,0 11,0 0,11 0,11 -11,0 -11,0 0,-11 z m 30,0 0,-11 11,0 11,0 0,11 0,11 -11,0 -11,0 0,-11 z m -134,-21.445 c 0,-0.24475 2.1375,-2.48432 4.75,-4.97682 l 4.75,-4.53182 21.75,-0.0232 21.75,-0.0232 0,5 0,5 -26.5,0 c -14.575,0 -26.5,-0.20025 -26.5,-0.445 z m 114.66667,-0.22167 c -0.36667,-0.36666 -0.66667,-2.84166 -0.66667,-5.5 l 0,-4.83333 22.65407,0 22.65407,0 3.59593,4.15415 c 6.39139,7.38358 8.05564,6.84585 -21.18771,6.84585 -14.51067,0 -26.68303,-0.3 -27.04969,-0.66667 z m -34.66667,-5.28343 0,-4.95009 -5.75,-0.29991 -5.75,-0.2999 0,-4 0,-4 5.75,-0.2999 5.75,-0.29991 0,-5.95009 0,-5.9501 4,0 4,0 0,6 0,6 6.5575,0 6.5575,0 -0.3075,4.25 -0.3075,4.25 -6.25,0.29772 -6.25,0.29771 0,4.95229 0,4.95228 -4,0 -4,0 0,-4.9501 z m -22.5,-39.0499 4.92482,-5 23.03759,0.002 23.03759,0.002 2.75,4.35307 c 1.5125,2.39419 2.75,4.64338 2.75,4.99821 0,0.35481 -13.82058,0.64512 -30.71241,0.64512 l -30.71241,0 4.92482,-5 z"
         id="path4176"
         inkscape:connector-curvature="0" />
      <path
         style="fill:#7b818b"
         d="m -147.84172,971.08232 c 0.60361,-4.40381 0.54692,-4.53573 -1.61407,-3.75611 -1.23181,0.4444 -3.98548,0.78678 -6.11927,0.76085 -7.61843,-0.0926 -12.29542,-9.40294 -7.71604,-15.36009 1.3267,-1.72585 1.71872,-3.47189 1.36747,-6.09066 -0.42042,-3.13442 -0.0821,-3.99395 2.31371,-5.8785 1.54336,-1.21402 2.95672,-3.19822 3.14078,-4.40934 0.85974,-5.65686 8.924,-8.08707 12.43748,-3.7481 1.00992,1.24719 1.83621,2.81777 1.83621,3.49017 0,0.69055 1.29986,1.22255 2.98709,1.22255 3.44014,0 7.01291,2.79606 7.01291,5.48832 0,1.66387 0.93268,1.84501 9.5,1.84501 l 9.5,0 0,11.04647 0,11.04646 -11.75,0.0703 c -6.4625,0.0387 -13.6625,0.11835 -16,0.17706 l -4.25,0.10676 0,4.27647 c 0,3.29257 -0.37638,4.27648 -1.63592,4.27648 -1.36699,0 -1.53309,-0.75031 -1.01035,-4.5641 z m 166.25105,2.97657 c -0.33263,-0.86683 -0.60478,-2.90507 -0.60478,-4.52944 0,-2.61006 -0.22486,-2.83306 -1.93426,-1.91821 -2.46909,1.32142 -8.75651,1.34454 -9.56574,0.0352 -0.34496,-0.55816 -5.01038,-1 -10.55902,-1 l -9.94098,-2e-5 0,-11 0,-11 9.31194,0 c 9.11546,0 9.35718,-0.0612 11.45577,-2.89968 1.17911,-1.59483 2.44015,-4.08033 2.80232,-5.52333 1.33568,-5.32178 8.5959,-7.41106 12.42997,-3.57699 1.1,1.1 2,2.45 2,3 0,0.55 1.14545,1 2.54545,1 5.03007,0 9.12316,6.8165 6.54137,10.89377 -0.57414,0.9067 -0.22064,2.47927 1.01157,4.5 2.17011,3.55882 2.38978,6.44071 0.76305,10.01099 -1.42451,3.12647 -7.14857,5.92687 -10.96861,5.3662 -2.75371,-0.40416 -2.89283,-0.24338 -2.89283,3.34322 0,4.00836 -1.38885,5.92085 -2.39522,3.29829 z m -92.60478,-15.91247 0,-15.5 10.5,0 10.5,0 0,15.5 0,15.5 -10.5,0 -10.5,0 0,-15.5 z m -30,-2.5 0,-11 10.5,0 10.5,0 0,11 0,11 -10.5,0 -10.5,0 0,-11 z m 60,0 0,-11 10.5,0 10.5,0 0,11 0,11 -10.5,0 -10.5,0 0,-11 z m -90,-34.5 0,-10.5 10.5,0 10.5,0 0,10.5 0,10.5 -10.5,0 -10.5,0 0,-10.5 z m 30,0 0,-10.5 10.5,0 10.5,0 0,10.5 0,10.5 -10.5,0 -10.5,0 0,-10.5 z m 30,0 0,-10.5 10.5,0 10.5,0 0,10.5 0,10.5 -10.5,0 -10.5,0 0,-10.5 z m 30,0 0,-10.5 10.5,0 10.5,0 0,10.5 0,10.5 -10.5,0 -10.5,0 0,-10.5 z m 30,0 0,-10.5 10.5,0 10.5,0 0,10.5 0,10.5 -10.5,0 -10.5,0 0,-10.5 z m -120,-31.5 0,-11 10.5,0 10.5,0 0,11 0,11 -10.5,0 -10.5,0 0,-11 z m 30,0 0,-11 10.5,0 10.5,0 0,11 0,11 -10.5,0 -10.5,0 0,-11 z m 30,0 0,-11 10.5,0 10.5,0 0,11 0,11 -10.5,0 -10.5,0 0,-11 z m 30,0 0,-11 10.5,0 10.5,0 0,11 0,11 -10.5,0 -10.5,0 0,-11 z m 30,0 0,-11 10.5,0 10.5,0 0,11 0,11 -10.5,0 -10.5,0 0,-11 z m -120,-31 0,-11 10.5,0 10.5,0 0,11 0,11 -10.5,0 -10.5,0 0,-11 z m 30,0 0,-11 10.5,0 10.5,0 0,11 0,11 -10.5,0 -10.5,0 0,-11 z m 30,0 0,-11.06766 10.75,0.28383 10.75,0.28383 0,10.5 0,10.5 -10.75,0.28383 -10.75,0.28383 0,-11.06766 z m 30.44227,9.71016 c -0.28707,-0.7481 -0.39152,-5.60144 -0.23211,-10.78518 l 0.28984,-9.42498 10.5,0 10.5,0 0,10.5 0,10.5 -10.26788,0.28518 c -7.93658,0.22043 -10.3864,-0.0237 -10.78985,-1.07502 z m 30,0 c -0.28707,-0.7481 -0.39152,-5.60144 -0.23211,-10.78518 l 0.28984,-9.42498 10.5,0 10.5,0 0,10.5 0,10.5 -10.26788,0.28518 c -7.93658,0.22043 -10.3864,-0.0237 -10.78985,-1.07502 z m -129.73099,-35.73516 4.21127,-3.975 22.03873,0 22.03872,0 0,4 0,4 -26.25,-0.025 -26.25,-0.025 4.21128,-3.97499 z m 75.28872,-1.475 0,-5.5 -5.5,0 -5.5,0 0,-4 0,-4 5.5,0 5.5,0 0,-6 0,-6 4,0 4,0 0,5.95228 0,5.95229 6.25,0.29771 6.25,0.29772 0.31037,3.75 0.31036,3.75 -6.56036,0 -6.56037,0 0,5.5 0,5.5 -4,0 -4,0 0,-5.5 z m 35,0.5 0,-5 21.80383,0 21.80384,0 2.99833,3.25 c 6.7986,7.36926 8.6778,6.75 -20.48356,6.75 l -26.12244,0 0,-5 z m -56.52738,-39.54481 4.97262,-4.45519 22.22934,0 22.22934,0 3.09608,4.5 3.09608,4.5 -30.29804,-0.0448 -30.29804,-0.0448 4.97262,-4.45519 z"
         id="path4174"
         inkscape:connector-curvature="0" />
      <path
         style="fill:#74788a"
         d="m -147.8505,971.14642 c 0.33923,-2.475 0.46755,-4.5 0.28514,-4.5 -0.1824,0 -1.73535,0.48934 -3.45099,1.08741 -6.16645,2.14964 -14.18401,-2.92506 -14.17536,-8.97227 0.002,-1.43833 0.90619,-4.09532 2.00919,-5.90442 1.30705,-2.14378 1.78974,-4.14878 1.38603,-5.75729 -0.71337,-2.84226 1.83807,-7.45343 4.12409,-7.45343 0.95651,0 1.47695,-1.00252 1.47695,-2.84501 0,-3.64084 2.78936,-6.15499 6.82874,-6.15499 3.36013,0 7.17126,2.92295 7.17126,5.5 0,1.03438 1.03833,1.5 3.34501,1.5 3.56331,0 6.65499,2.47555 6.65499,5.32874 0,1.4444 1.28956,1.67126 9.5,1.67126 l 9.5,0 0,11.03919 0,11.03919 -12.25,0.0707 c -6.7375,0.0389 -13.9375,0.0662 -16,0.0607 -3.16948,-0.008 -3.75211,0.32288 -3.76365,2.14013 -0.0215,3.37958 -1.12255,6.65009 -2.2389,6.65009 -0.63277,0 -0.7854,-1.70647 -0.4025,-4.5 z m 166.40892,2.75 c -0.2003,-0.4125 -0.31025,-2.22864 -0.24435,-4.03587 0.0967,-2.65255 -0.18176,-3.14247 -1.44485,-2.54184 -0.86057,0.40921 -3.36467,0.6462 -5.56467,0.52664 -2.2,-0.11957 -8.8375,-0.46719 -14.75,-0.7725 l -10.75,-0.55511 0,-10.93566 0,-10.93566 9.25,-3e-5 9.25,-3e-5 2.75,-3.44654 c 1.5125,-1.8956 2.75,-4.34507 2.75,-5.44327 0,-1.0982 1.00013,-2.69724 2.22251,-3.55343 3.45118,-2.4173 7.27277,-1.94524 9.94306,1.22822 1.28884,1.53171 3.91635,3.23534 5.83889,3.78586 4.52986,1.29712 6.61214,5.22167 5.08891,9.59123 -0.89391,2.56426 -0.74543,3.46487 0.92039,5.58261 2.83451,3.6035 2.51643,7.63044 -0.90519,11.4599 -2.45512,2.74776 -3.58637,3.24055 -7.49681,3.26577 l -4.60539,0.0297 -0.003,3.75 c -0.003,3.33749 -1.26686,5.02337 -2.24932,3 z m -92.75387,-15.75 0,-15.5 10.5,0 10.5,0 0,15.5 0,15.5 -10.5,0 -10.5,0 0,-15.5 z m -30,-2.5 0,-11 10.5,0 10.5,0 0,11 0,11 -10.5,0 -10.5,0 0,-11 z m 60,0 0,-11 10.5,0 10.5,0 0,11 0,11 -10.5,0 -10.5,0 0,-11 z m -90,-34.5 0,-10.5 10.5,0 10.5,0 0,10.5 0,10.5 -10.5,0 -10.5,0 0,-10.5 z m 30,0 0,-10.5 10.5,0 10.5,0 0,10.5 0,10.5 -10.5,0 -10.5,0 0,-10.5 z m 30,0 0,-10.5 10.5,0 10.5,0 0,10.5 0,10.5 -10.5,0 -10.5,0 0,-10.5 z m 30,0 0,-10.5 10.5,0 10.5,0 0,10.5 0,10.5 -10.5,0 -10.5,0 0,-10.5 z m 30,0 0,-10.5 10.5,0 10.5,0 0,10.5 0,10.5 -10.5,0 -10.5,0 0,-10.5 z m -120,-31.5 0,-11 10.5,0 10.5,0 0,11 0,11 -10.5,0 -10.5,0 0,-11 z m 30,0 0,-11 10.5,0 10.5,0 0,11 0,11 -10.5,0 -10.5,0 0,-11 z m 30,0 0,-11 10.5,0 10.5,0 0,11 0,11 -10.5,0 -10.5,0 0,-11 z m 30,0 0,-11 10.5,0 10.5,0 0,11 0,11 -10.5,0 -10.5,0 0,-11 z m 30,0 0,-11 10.5,0 10.5,0 0,11 0,11 -10.5,0 -10.5,0 0,-11 z M -133.76668,868.3214 c -0.27965,-0.72876 -0.37802,-5.56626 -0.21861,-10.75 l 0.28984,-9.42498 10.25,-0.28498 10.25,-0.28499 0,11.03499 0,11.03498 -10.03138,0 c -7.40552,0 -10.16449,-0.34684 -10.53985,-1.32502 z m 30,0 c -0.27965,-0.72876 -0.37802,-5.56626 -0.21861,-10.75 l 0.28984,-9.42498 10.25,-0.28498 10.25,-0.28499 0,11.03499 0,11.03498 -10.03138,0 c -7.40552,0 -10.16449,-0.34684 -10.53985,-1.32502 z m 30.0135,0.0352 c -0.28707,-0.7481 -0.39152,-5.60144 -0.23211,-10.78518 l 0.28984,-9.425 10.5,0 10.5,0 0,10.5 0,10.5 -10.26788,0.28518 c -7.93658,0.22043 -10.3864,-0.0237 -10.78985,-1.07502 z m 30,0 c -0.28707,-0.7481 -0.39152,-5.60144 -0.23211,-10.78518 l 0.28984,-9.425 10.5,0 10.5,0 0,10.5 0,10.5 -10.26788,0.28518 c -7.93658,0.22043 -10.3864,-0.0237 -10.78985,-1.07502 z m 30,0 c -0.28707,-0.7481 -0.39152,-5.60144 -0.23211,-10.78518 l 0.28984,-9.425 10.5,0 10.5,0 0,10.5 0,10.5 -10.26788,0.28518 c -7.93658,0.22043 -10.3864,-0.0237 -10.78985,-1.07502 z m -54.44227,-37.21018 0,-5.5 -5.5,0 -5.5,0 0,-3.5 0,-3.5 5.45228,0 5.45229,0 0.29771,-6.25 0.29772,-6.25 3.5,0 3.5,0 0.29772,6.25 0.29771,6.25 5.95229,0 5.95228,0 0,3.5 0,3.5 -6,0 -6,0 0,5.5 0,5.5 -4,0 -4,0 0,-5.5 z"
         id="path4172"
         inkscape:connector-curvature="0" />
      <path
         style="fill:#ab182b"
         d="m -147.56481,971.32454 0.59238,-4.32187 -5.86151,0.41956 c -4.87605,0.34903 -6.3176,0.0596 -8.57433,-1.72145 -3.51415,-2.77346 -4.4994,-7.77639 -2.35,-11.93288 0.8878,-1.71681 2.06846,-3.12148 2.62368,-3.12148 0.64408,0 0.604,-0.75769 -0.11071,-2.09314 -1.56963,-2.93289 -0.34958,-6.76774 2.57744,-8.10138 1.778,-0.81011 2.47241,-1.91755 2.47241,-3.94294 0,-6.29707 8.92326,-7.83429 12.48649,-2.15106 1.45589,2.32209 2.7751,3.22215 4.76351,3.25 3.23079,0.0453 6.75,3.19353 6.75,6.03852 0,1.85965 0.66667,2 9.5,2 l 9.5,0 0,9.91844 0,9.91845 -12.75,0.55368 c -7.0125,0.30452 -14.16204,0.57046 -15.88787,0.59097 -2.94359,0.035 -3.17956,0.31532 -3.81127,4.52788 -0.37037,2.46982 -1.08722,4.49058 -1.593,4.49058 -0.50899,0 -0.6551,-1.92976 -0.32722,-4.32188 z m 166.36936,-1.2038 0,-4.52568 -2.95034,1.52568 c -3.69261,1.90952 -5.78175,1.91385 -9.41397,0.0195 -1.91384,-0.99812 -5.81283,-1.49382 -11.75,-1.49382 l -8.88569,0 0,-10 0,-10 9.52475,0 c 9.26537,0 9.5509,-0.0688 10.48499,-2.52563 0.52814,-1.38909 1.642,-2.78723 2.47525,-3.10698 0.83326,-0.31975 1.51501,-1.62608 1.51501,-2.90295 0,-7.05907 11.33088,-8.29874 13.49615,-1.47656 0.35631,1.12264 1.04475,1.79586 1.52986,1.49605 1.91147,-1.18136 6.11518,0.88841 7.58768,3.73593 1.24672,2.41087 1.3192,3.52795 0.37659,5.80361 -1.01118,2.44121 -0.86401,3.2283 1.10048,5.88542 1.93593,2.61848 2.1318,3.6129 1.33851,6.79559 -1.20882,4.84982 -6.38961,8.52838 -11.40498,8.09797 -3.45971,-0.29691 -3.52429,-0.23373 -3.52429,3.44821 0,2.06286 -0.3375,3.75036 -0.75,3.75 -0.4125,-3.6e-4 -0.75,-2.03722 -0.75,-4.52634 z m -93,-11.47432 0,-15 10.5,0 10.5,0 0,15 0,15 -10.5,0 -10.5,0 0,-15 z m -30,-3 0,-10 10.5,0 10.5,0 0,10 0,10 -10.5,0 -10.5,0 0,-10 z m 60,0 0,-10 10.5,0 10.5,0 0,10 0,10 -10.5,0 -10.5,0 0,-10 z m -90,-34.5 0,-10.5 10.5,0 10.5,0 0,10.5 0,10.5 -10.5,0 -10.5,0 0,-10.5 z m 30,0 0,-10.5 10.5,0 10.5,0 0,10.5 0,10.5 -10.5,0 -10.5,0 0,-10.5 z m 30,0 0,-10.5 10.5,0 10.5,0 0,10.5 0,10.5 -10.5,0 -10.5,0 0,-10.5 z m 30,0 0,-10.5 10.5,0 10.5,0 0,10.5 0,10.5 -10.5,0 -10.5,0 0,-10.5 z m 30,0 0,-10.5 10.5,0 10.5,0 0,10.5 0,10.5 -10.5,0 -10.5,0 0,-10.5 z m -120,-31.5 0,-10 10.5,0 10.5,0 0,10 0,10 -10.5,0 -10.5,0 0,-10 z m 30,0 0,-10 10.5,0 10.5,0 0,10 0,10 -10.5,0 -10.5,0 0,-10 z m 30,0 0,-10 10.5,0 10.5,0 0,10 0,10 -10.5,0 -10.5,0 0,-10 z m 30,0 0,-10 10.5,0 10.5,0 0,10 0,10 -10.5,0 -10.5,0 0,-10 z m 30,0 0,-10 10.5,0 10.5,0 0,10 0,10 -10.5,0 -10.5,0 0,-10 z m -120,-31 0,-10 10.5,0 10.5,0 0,10 0,10 -10.5,0 -10.5,0 0,-10 z m 30,0 0,-10 10.5,0 10.5,0 0,10 0,10 -10.5,0 -10.5,0 0,-10 z m 30,0 0,-10 10.5,0 10.5,0 0,10 0,10 -10.5,0 -10.5,0 0,-10 z m 31,0 0,-10 10,0 10,0 0,10 0,10 -10,0 -10,0 0,-10 z m 30,0 0,-10 10,0 10,0 0,10 0,10 -10,0 -10,0 0,-10 z m -55,-27.5 0,-5.5 -5.5,0 -5.5,0 0,-3.5 0,-3.5 5.45228,0 5.45229,0 0.29771,-6.25 0.29772,-6.25 3.5,0 3.5,0 0.29772,6.25 0.29771,6.25 5.95229,0 5.95228,0 0,3.5 0,3.5 -6,0 -6,0 0,5.5 0,5.5 -4,0 -4,0 0,-5.5 z"
         id="path4170"
         inkscape:connector-curvature="0" />
      <path
         style="fill:#442709"
         d="m -147.56481,971.32454 0.59238,-4.32187 -5.86151,0.41956 c -4.87605,0.34903 -6.3176,0.0596 -8.57433,-1.72145 -3.51415,-2.77346 -4.4994,-7.77639 -2.35,-11.93288 0.8878,-1.71681 2.06846,-3.12148 2.62368,-3.12148 0.64408,0 0.604,-0.75769 -0.11071,-2.09314 -1.56963,-2.93289 -0.34958,-6.76774 2.57744,-8.10138 1.778,-0.81011 2.47241,-1.91755 2.47241,-3.94294 0,-6.29707 8.92326,-7.83429 12.48649,-2.15106 1.45589,2.32209 2.7751,3.22215 4.76351,3.25 3.23079,0.0453 6.75,3.19353 6.75,6.03852 0,1.85965 0.66667,2 9.5,2 l 9.5,0 0,9.91844 0,9.91845 -12.75,0.55368 c -7.0125,0.30452 -14.16204,0.57046 -15.88787,0.59097 -2.94359,0.035 -3.17956,0.31532 -3.81127,4.52788 -0.37037,2.46982 -1.08722,4.49058 -1.593,4.49058 -0.50899,0 -0.6551,-1.92976 -0.32722,-4.32188 z m 166.36936,-1.2038 0,-4.52568 -2.95034,1.52568 c -3.69261,1.90952 -5.78175,1.91385 -9.41397,0.0195 -1.91384,-0.99812 -5.81283,-1.49382 -11.75,-1.49382 l -8.88569,0 0,-10 0,-10 9.52475,0 c 9.26537,0 9.5509,-0.0688 10.48499,-2.52563 0.52814,-1.38909 1.642,-2.78723 2.47525,-3.10698 0.83326,-0.31975 1.51501,-1.62608 1.51501,-2.90295 0,-7.05907 11.33088,-8.29874 13.49615,-1.47656 0.35631,1.12264 1.04475,1.79586 1.52986,1.49605 1.91147,-1.18136 6.11518,0.88841 7.58768,3.73593 1.24672,2.41087 1.3192,3.52795 0.37659,5.80361 -1.01118,2.44121 -0.86401,3.2283 1.10048,5.88542 1.93593,2.61848 2.1318,3.6129 1.33851,6.79559 -1.20882,4.84982 -6.38961,8.52838 -11.40498,8.09797 -3.45971,-0.29691 -3.52429,-0.23373 -3.52429,3.44821 0,2.06286 -0.3375,3.75036 -0.75,3.75 -0.4125,-3.6e-4 -0.75,-2.03722 -0.75,-4.52634 z m -93,-11.47432 0,-15 10.5,0 10.5,0 0,15 0,15 -10.5,0 -10.5,0 0,-15 z m -30,-3 0,-10 10.5,0 10.5,0 0,10 0,10 -10.5,0 -10.5,0 0,-10 z m 60,0 0,-10 10.5,0 10.5,0 0,10 0,10 -10.5,0 -10.5,0 0,-10 z m -90,-34.5 0,-10.5 10.5,0 10.5,0 0,10.5 0,10.5 -10.5,0 -10.5,0 0,-10.5 z m 30,0 0,-10.5 10.5,0 10.5,0 0,10.5 0,10.5 -10.5,0 -10.5,0 0,-10.5 z m 30,0 0,-10.5 10.5,0 10.5,0 0,10.5 0,10.5 -10.5,0 -10.5,0 0,-10.5 z m 30,0 0,-10.5 10.5,0 10.5,0 0,10.5 0,10.5 -10.5,0 -10.5,0 0,-10.5 z m 30,0 0,-10.5 10.5,0 10.5,0 0,10.5 0,10.5 -10.5,0 -10.5,0 0,-10.5 z m -120,-31.5 0,-10 10.5,0 10.5,0 0,10 0,10 -10.5,0 -10.5,0 0,-10 z m 30,0 0,-10 10.5,0 10.5,0 0,10 0,10 -10.5,0 -10.5,0 0,-10 z m 30,0 0,-10 10.5,0 10.5,0 0,10 0,10 -10.5,0 -10.5,0 0,-10 z m 30,0 0,-10 10.5,0 10.5,0 0,10 0,10 -10.5,0 -10.5,0 0,-10 z m 30,0 0,-10 10.5,0 10.5,0 0,10 0,10 -10.5,0 -10.5,0 0,-10 z m -120,-31 0,-10 10.5,0 10.5,0 0,10 0,10 -10.5,0 -10.5,0 0,-10 z m 30,0 0,-10 10.5,0 10.5,0 0,10 0,10 -10.5,0 -10.5,0 0,-10 z m 30,0 0,-10 10.5,0 10.5,0 0,10 0,10 -10.5,0 -10.5,0 0,-10 z m 31,0 0,-10 10,0 10,0 0,10 0,10 -10,0 -10,0 0,-10 z m 30,0 0,-10 10,0 10,0 0,10 0,10 -10,0 -10,0 0,-10 z"
         id="path4168"
         inkscape:connector-curvature="0" />
      <path
         style="fill:#09164e"
         d="m -74.19545,958.64642 0,-15 10.5,0 10.5,0 0,15 0,15 -10.5,0 -10.5,0 0,-15 z m 80.63569,8.49384 c -1.91384,-0.99814 -5.81283,-1.49384 -11.75,-1.49384 l -8.88569,0 0,-10 0,-10 9.52475,0 c 9.26537,0 9.5509,-0.0688 10.48499,-2.52563 0.52814,-1.38909 1.642,-2.78723 2.47525,-3.10698 0.83326,-0.31975 1.51501,-1.62608 1.51501,-2.90295 0,-7.05907 11.33088,-8.29874 13.49615,-1.47656 0.35631,1.12264 1.04475,1.79586 1.52986,1.49605 1.91147,-1.18136 6.11518,0.88841 7.58768,3.73593 1.24672,2.41087 1.3192,3.52795 0.37659,5.80361 -1.00813,2.43385 -0.86524,3.22665 1.04804,5.81449 1.73883,2.3519 2.07251,3.75772 1.55132,6.53589 -1.02204,5.44798 -7.5788,9.71653 -12.51747,8.14906 -1.84784,-0.58649 -2.07217,-1.45088 -2.07217,-7.98454 0,-6.76062 0.23185,-7.57505 3,-10.53837 1.65,-1.76633 3,-3.38892 3,-3.60576 0,-1.12144 -2.64492,-0.137 -4.6219,1.72028 l -2.2508,2.11452 -2.81365,-5.10011 c -2.6102,-4.73133 -4.31365,-6.39729 -4.31365,-4.21872 0,0.50062 1.34964,3.76312 2.99921,7.25 2.93899,6.21249 3.85179,10.83979 2.13829,10.83979 -0.47437,0 -2.56124,-1.35 -4.6375,-3 -3.71803,-2.95472 -6.5,-3.8565 -6.5,-2.10699 0,0.49116 0.62041,1.13109 1.37869,1.42207 0.75828,0.29098 3.43043,2.02662 5.93811,3.85699 5.52861,4.03536 6.09002,7.04907 1.73286,9.30225 -3.69261,1.90952 -5.78175,1.91385 -9.41397,0.0195 z m -167.96365,-1.53717 c -3.39755,-2.67251 -4.35395,-7.73733 -2.23486,-11.83519 0.8878,-1.71681 2.06846,-3.12148 2.62368,-3.12148 0.64408,0 0.604,-0.75769 -0.11071,-2.09314 -1.56963,-2.93289 -0.34958,-6.76774 2.57744,-8.10138 1.778,-0.81011 2.47241,-1.91755 2.47241,-3.94294 0,-6.29707 8.92326,-7.83429 12.48649,-2.15106 1.45589,2.32209 2.7751,3.22215 4.76351,3.25 3.23079,0.0453 6.75,3.19353 6.75,6.03852 0,1.85965 0.66667,2 9.5,2 l 9.5,0 0,10 0,10 -10.9349,0 c -6.0142,0 -12.08471,0.43716 -13.49004,0.97146 -1.40532,0.5343 -3.47983,0.62939 -4.61002,0.21131 -1.77677,-0.65727 -2.0988,-1.76863 -2.37937,-8.21139 -0.3136,-7.2012 1.43065,-13.97138 3.59954,-13.97138 0.44814,0 0.81479,-0.45 0.81479,-1 0,-2.14638 -2.90438,-0.84083 -4.80403,2.15947 l -2.00044,3.15948 -1.83248,-5.15948 c -1.82677,-5.14336 -3.38277,-6.73122 -3.34109,-3.40947 0.0121,0.9625 0.9438,3.775 2.07049,6.25 1.12669,2.475 2.41732,6.45861 2.86807,8.85247 l 0.81956,4.35247 -2.79433,-3.0594 c -2.79739,-3.06275 -6.76493,-4.73997 -9.19284,-3.88613 -0.7111,0.25008 0.3031,1.13283 2.25378,1.96167 6.50591,2.76433 11.29216,10.66744 7.37152,12.17193 -3.49594,1.34152 -10.17095,0.58933 -12.74617,-1.43634 z m 57.32796,-9.95667 0,-10 10.5,0 10.5,0 0,10 0,10 -10.5,0 -10.5,0 0,-10 z m 60,0 0,-10 10.5,0 10.5,0 0,10 0,10 -10.5,0 -10.5,0 0,-10 z m -90,-34.5 0,-10.5 10.5,0 10.5,0 0,10.5 0,10.5 -10.5,0 -10.5,0 0,-10.5 z m 30,0 0,-10.5 10.5,0 10.5,0 0,10.5 0,10.5 -10.5,0 -10.5,0 0,-10.5 z m 30,0 0,-10.5 10.5,0 10.5,0 0,10.5 0,10.5 -10.5,0 -10.5,0 0,-10.5 z m 30,0 0,-10.5 10.5,0 10.5,0 0,10.5 0,10.5 -10.5,0 -10.5,0 0,-10.5 z m 30,0 0,-10.5 10.5,0 10.5,0 0,10.5 0,10.5 -10.5,0 -10.5,0 0,-10.5 z m -120,-31.5 0,-10 10.5,0 10.5,0 0,10 0,10 -10.5,0 -10.5,0 0,-10 z m 30,0 0,-10 10.5,0 10.5,0 0,10 0,10 -10.5,0 -10.5,0 0,-10 z m 30,0 0,-10 10.5,0 10.5,0 0,10 0,10 -10.5,0 -10.5,0 0,-10 z m 30,0 0,-10 10.5,0 10.5,0 0,10 0,10 -10.5,0 -10.5,0 0,-10 z m 30,0 0,-10 10.5,0 10.5,0 0,10 0,10 -10.5,0 -10.5,0 0,-10 z m -120,-31 0,-10 10.5,0 10.5,0 0,10 0,10 -10.5,0 -10.5,0 0,-10 z m 30,0 0,-10 10.5,0 10.5,0 0,10 0,10 -10.5,0 -10.5,0 0,-10 z m 30,0 0,-10 10.5,0 10.5,0 0,10 0,10 -10.5,0 -10.5,0 0,-10 z m 31,0 0,-10 10,0 10,0 0,10 0,10 -10,0 -10,0 0,-10 z m 30,0 0,-10 10,0 10,0 0,10 0,10 -10,0 -10,0 0,-10 z"
         id="path4166"
         inkscape:connector-curvature="0" />
      <path
         style="fill:#084e14"
         d="m 7.11285,967.63682 c -5.27592,-2.12515 -7.33008,-9.82919 -4.03165,-15.12052 1.15536,-1.85344 2.1709,-4.90667 2.25676,-6.78496 0.0984,-2.15346 0.9523,-4.05981 2.31135,-5.16029 1.18538,-0.95987 2.15524,-2.65344 2.15524,-3.76349 0,-2.51056 2.37317,-4.96571 5.57721,-5.76988 2.89957,-0.72774 6.98097,1.64134 7.91894,4.59662 0.35631,1.12264 1.04475,1.79586 1.52986,1.49605 1.91147,-1.18136 6.11518,0.88841 7.58768,3.73593 1.24672,2.41087 1.3192,3.52795 0.37659,5.80361 -1.00813,2.43385 -0.86524,3.22665 1.04804,5.81449 1.73883,2.3519 2.07251,3.75772 1.55132,6.53589 -1.02204,5.44798 -7.5788,9.71653 -12.51747,8.14906 -1.84784,-0.58649 -2.07217,-1.45088 -2.07217,-7.98454 0,-6.76062 0.23185,-7.57505 3,-10.53837 1.65,-1.76633 3,-3.38892 3,-3.60576 0,-1.12144 -2.64492,-0.137 -4.6219,1.72028 l -2.2508,2.11452 -2.81365,-5.10011 c -2.6102,-4.73133 -4.31365,-6.39729 -4.31365,-4.21872 0,0.50062 1.34964,3.76312 2.99921,7.25 2.93899,6.21249 3.85179,10.83979 2.13829,10.83979 -0.47437,0 -2.56124,-1.35 -4.6375,-3 -3.71803,-2.95472 -6.5,-3.8565 -6.5,-2.10699 0,0.49116 0.62041,1.13109 1.37869,1.42207 0.75828,0.29098 3.43043,2.02662 5.93811,3.85699 5.52861,4.03536 6.09002,7.04907 1.73286,9.30225 -3.28332,1.69787 -5.48478,1.82784 -8.74136,0.51608 z m -168.63626,-2.03373 c -3.39755,-2.67251 -4.35395,-7.73733 -2.23486,-11.83519 0.8878,-1.71681 2.06846,-3.12148 2.62368,-3.12148 0.64408,0 0.604,-0.75769 -0.11071,-2.09314 -1.56963,-2.93289 -0.34958,-6.76774 2.57744,-8.10138 1.778,-0.81011 2.47241,-1.91755 2.47241,-3.94294 0,-6.29707 8.92326,-7.83429 12.48649,-2.15106 1.45589,2.32209 2.7751,3.22215 4.76351,3.25 5.44069,0.0762 8.54337,6.20368 5.35155,10.56876 -1.2224,1.67172 -1.15945,2.21634 0.5,4.32599 2.10904,2.68121 2.46885,7.20946 0.81796,10.29417 -1.43802,2.68697 -7.2111,5.04721 -9.90649,4.05012 -1.83476,-0.67872 -2.14423,-1.72787 -2.42735,-8.22914 -0.3136,-7.2012 1.43065,-13.97138 3.59954,-13.97138 0.44814,0 0.81479,-0.45 0.81479,-1 0,-2.14638 -2.90438,-0.84083 -4.80403,2.15947 l -2.00044,3.15948 -1.83248,-5.15948 c -1.82677,-5.14336 -3.38277,-6.73122 -3.34109,-3.40947 0.0121,0.9625 0.9438,3.775 2.07049,6.25 1.12669,2.475 2.41732,6.45861 2.86807,8.85247 l 0.81956,4.35247 -2.79433,-3.0594 c -2.79739,-3.06275 -6.76493,-4.73997 -9.19284,-3.88613 -0.7111,0.25008 0.3031,1.13283 2.25378,1.96167 6.50591,2.76433 11.29216,10.66744 7.37152,12.17193 -3.49594,1.34152 -10.17095,0.58933 -12.74617,-1.43634 z"
         id="path4164"
         inkscape:connector-curvature="0" />
    </g>
  </g>
</svg>
