<?xml version="1.0" encoding="UTF-8" standalone="no"?>
<!-- Created with Inkscape (http://www.inkscape.org/) -->

<svg
   xmlns:dc="http://purl.org/dc/elements/1.1/"
   xmlns:cc="http://creativecommons.org/ns#"
   xmlns:rdf="http://www.w3.org/1999/02/22-rdf-syntax-ns#"
   xmlns:svg="http://www.w3.org/2000/svg"
   xmlns="http://www.w3.org/2000/svg"
   xmlns:sodipodi="http://sodipodi.sourceforge.net/DTD/sodipodi-0.dtd"
   xmlns:inkscape="http://www.inkscape.org/namespaces/inkscape"
   width="64"
   height="64"
   viewBox="0 0 64 64.000001"
   id="svg2"
   version="1.1"
   inkscape:version="0.91 r13725"
   sodipodi:docname="icon.svg">
  <defs
     id="defs4" />
  <sodipodi:namedview
     id="base"
     pagecolor="#ffffff"
     bordercolor="#666666"
     borderopacity="1.0"
     inkscape:pageopacity="0.0"
     inkscape:pageshadow="2"
     inkscape:zoom="1.979899"
     inkscape:cx="27.395286"
     inkscape:cy="-5.6250774"
     inkscape:document-units="px"
     inkscape:current-layer="layer1"
     showgrid="false"
     units="px"
     inkscape:window-width="1855"
     inkscape:window-height="1056"
     inkscape:window-x="65"
     inkscape:window-y="24"
     inkscape:window-maximized="1" />
  <metadata
     id="metadata7">
    <rdf:RDF>
      <cc:Work
         rdf:about="">
        <dc:format>image/svg+xml</dc:format>
        <dc:type
           rdf:resource="http://purl.org/dc/dcmitype/StillImage" />
        <dc:title></dc:title>
      </cc:Work>
    </rdf:RDF>
  </metadata>
  <g
     inkscape:label="Vrstva 1"
     inkscape:groupmode="layer"
     id="layer1"
     transform="translate(0,-988.36216)">
    <g
       id="g4161"
       transform="matrix(-0.25612436,0,0,0.25612436,37.464307,754.13924)">
      <path
         style="fill:#9da1a6"
         d="m 29.90649,1115.7701 c -23.64177,-2.9043 -44.53031,-8.2557 -68.196085,-17.471 l -10.196086,-3.9703 -5.235416,1.5547 c -7.470398,2.2185 -13.024307,2.0098 -16.361053,-0.6149 -2.566692,-2.019 -2.722921,-2.5606 -2.248375,-7.7939 l 0.509983,-5.6242 -8.136484,-1.1208 c -9.269038,-1.2767 -16.880124,-3.6373 -20.886484,-6.4778 -4.99382,-3.5407 -3.89998,-5.756 9,-18.2275 50.849637,-49.1606 103.48818,-81.33541 149.25,-91.22757 11.82691,-2.55658 36.80114,-2.56456 46,-0.0147 18.39075,5.0978 30.45835,14.62659 38.09211,30.07822 4.33007,8.76455 4.40789,9.10025 4.40789,19.01535 0,9.4607 -0.21353,10.5274 -3.40686,17.0193 -4.20581,8.5502 -13.83207,18.3817 -23.62802,24.1317 -6.61289,3.8816 -6.99873,4.3115 -7.62977,8.5 -0.62019,4.1165 -0.45298,4.5751 2.5,6.8569 1.74056,1.345 6.39432,5.6662 10.3417,9.6027 5.50099,5.4859 7.34348,8.0445 7.88973,10.9563 1.80301,9.6109 -3.09445,13.0835 -26.06678,18.4832 -23.90445,5.6188 -35.45355,7.0396 -55.78438,6.8627 -9.46859,-0.082 -18.56562,-0.3157 -20.21562,-0.5184 z m -8.77083,-4.936 c -0.3323,-0.3323 -1.1948,-0.3678 -1.91667,-0.079 -0.79773,0.3192 -0.56078,0.5562 0.60417,0.6042 1.05416,0.043 1.64479,-0.1929 1.3125,-0.5252 z m -18.65334,-4.9672 c -8.4833,-2.4455 -19.626178,-5.7923 -24.76196,-7.4374 -9.666019,-3.0963 -14.205984,-3.8847 -11.31387,-1.9648 4.212489,2.7965 43.63473,13.8198 49.5,13.8412 1.1,0 -4.94088,-1.9935 -13.42417,-4.439 z m 119.33559,-4.752 c 2.15128,-1.1971 4.80524,-3.3854 5.8977,-4.8629 1.72039,-2.3267 1.82292,-3.0807 0.76592,-5.6325 -0.6712,-1.6205 -2.49877,-4.171 -4.06127,-5.668 l -2.84092,-2.7218 1.63123,4.5363 c 1.51945,4.2254 1.51409,4.7819 -0.0783,8.1211 -1.00582,2.1093 -3.66813,4.8591 -6.46765,6.6802 -4.1495,2.6994 -4.37439,3.0077 -1.75814,2.4098 1.65,-0.377 4.76014,-1.665 6.91142,-2.8622 z"
         id="path4171"
         inkscape:connector-curvature="0" />
      <path
         style="fill:#fac700"
         d="m 32.90649,1115.8476 c -1.65,-0.2323 -6.6,-0.8962 -11,-1.4754 -18.08561,-2.3807 -43.824914,-9.454 -62.23768,-17.1035 l -7.23768,-3.0068 -7.343305,1.7312 c -13.171869,3.1053 -18.564893,0.1634 -17.291936,-9.4326 l 0.642406,-4.8427 -7.765903,-1.2512 c -16.553461,-2.667 -25.339482,-7.0704 -23.798002,-11.9272 0.36117,-1.1379 6.591147,-7.666 13.844388,-14.5069 57.178591,-53.9277 110.787102,-84.46959 159.187712,-90.69255 35.91422,-4.61755 66.07387,11.43325 74.44068,39.61695 3.05652,10.2959 2.52858,17.5971 -1.95741,27.07 -4.06791,8.5901 -15.61392,20.3932 -24.60301,25.1508 -6.05425,3.2044 -6.1271,3.2945 -6.80802,8.4276 -0.57107,4.3049 -0.3992,5.3503 1.00923,6.1385 0.93363,0.5225 4.44724,3.2745 7.80802,6.1155 7.17699,6.0671 12.61051,13.657 12.61051,17.6153 0,3.2561 -3.93734,8.3628 -8.1124,10.5218 -3.20972,1.6598 -26.56417,7.4126 -40.3876,9.9485 -8.61869,1.5811 -43.92835,2.8984 -51,1.9027 z m -19,-7.3729 c -8.25,-2.1419 -22.2,-6.1279 -31,-8.8579 -15.096144,-4.6831 -18.294968,-5.2738 -16.972567,-3.1341 1.02594,1.66 28.780237,10.0215 42.972567,12.9463 19.96627,4.1147 22.59341,3.6133 5,-0.9543 z m 104.2002,-5.1972 c 6.68236,-2.5002 11.2998,-6.6332 11.2998,-10.1144 0,-2.9133 -3.57993,-8.4165 -6.88516,-10.5841 l -2.38517,-1.5641 1.63517,3.162 c 3.79306,7.335 0.85546,14.0215 -8.24197,18.7603 -5.78356,3.0126 -3.0985,3.2122 4.57733,0.3403 z"
         id="path4169"
         inkscape:connector-curvature="0" />
      <path
         style="fill:#003163"
         d="m 32.90649,1115.8476 c -1.65,-0.2323 -6.6,-0.8962 -11,-1.4754 -18.08561,-2.3807 -43.824914,-9.454 -62.23768,-17.1035 l -7.23768,-3.0068 -7.343305,1.7312 c -13.171869,3.1053 -18.564893,0.1634 -17.291936,-9.4326 l 0.642406,-4.8427 -7.765903,-1.2512 c -16.553461,-2.667 -25.339482,-7.0704 -23.798002,-11.9272 0.36117,-1.1379 6.591147,-7.666 13.844388,-14.5069 57.178591,-53.9277 110.787102,-84.46959 159.187712,-90.69255 35.91422,-4.61755 66.07387,11.43325 74.44068,39.61695 3.05652,10.2959 2.52858,17.5971 -1.95741,27.07 -4.06791,8.5901 -15.61392,20.3932 -24.60301,25.1508 -6.05425,3.2044 -6.1271,3.2945 -6.80802,8.4276 -0.57107,4.3049 -0.3992,5.3503 1.00923,6.1385 0.93363,0.5225 4.44724,3.2745 7.80802,6.1155 7.17699,6.0671 12.61051,13.657 12.61051,17.6153 0,3.2561 -3.93734,8.3628 -8.1124,10.5218 -3.20972,1.6598 -26.56417,7.4126 -40.3876,9.9485 -8.61869,1.5811 -43.92835,2.8984 -51,1.9027 z m -19,-7.3729 c -8.25,-2.1419 -22.2,-6.1279 -31,-8.8579 -15.096144,-4.6831 -18.294968,-5.2738 -16.972567,-3.1341 1.02594,1.66 28.780237,10.0215 42.972567,12.9463 19.96627,4.1147 22.59341,3.6133 5,-0.9543 z m 104.2002,-5.1972 c 6.68236,-2.5002 11.2998,-6.6332 11.2998,-10.1144 0,-2.9133 -3.57993,-8.4165 -6.88516,-10.5841 l -2.38517,-1.5641 1.63517,3.162 c 3.79306,7.335 0.85546,14.0215 -8.24197,18.7603 -5.78356,3.0126 -3.0985,3.2122 4.57733,0.3403 z m -33.10024,-56.6816 c 9.4602,-6.8947 16.3244,-17.315 17.16436,-26.0566 l 0.4422,-4.6021 -4.57905,-2.2247 c -4.39014,-2.1329 -9.82521,-8.1712 -11.1707,-12.4104 -0.56767,-1.7886 -0.8846,-1.69535 -4.23438,1.2458 -4.4788,3.9324 -10.60434,6.7069 -16.63177,7.533 -4.40437,0.6037 -4.59062,0.7637 -4.59062,3.9441 0,5.2322 2.04456,13.4404 4.79784,19.2619 2.67712,5.6604 11.54497,16.1514 13.65246,16.1514 0.68729,0 3.00464,-1.2791 5.14966,-2.8424 z"
         id="path4167"
         inkscape:connector-curvature="0" />
      <path
         style="fill:#00102a"
         d="m 33.90649,1115.7547 c -22.53062,-1.9565 -56.69194,-10.7166 -76.580947,-19.638 l -5.419053,-2.4307 3,-1.2331 c 1.65,-0.6782 9.975,-3.0071 18.5,-5.1753 39.43099,-10.0287 88.06813,-17.697 117.5,-18.5256 l 19,-0.5348 6.62986,5.0531 c 9.67965,7.3776 15.87014,15.5825 15.87014,21.0343 0,3.1119 -5.40881,8.6394 -10.22639,10.4508 -7.13283,2.682 -35.55349,8.7741 -47.77361,10.2405 -10.47167,1.2566 -30.45581,1.6311 -40.5,0.7588 z m -17.5,-6.7719 c -9.075,-2.363 -24.09261,-6.6371 -33.372468,-9.498 -11.684799,-3.6023 -17.192345,-4.8817 -17.91284,-4.1612 -0.720495,0.7205 -0.298511,1.3154 1.372469,1.9349 1.327061,0.492 5.002979,1.8534 8.168705,3.0253 12.487664,4.6229 48.370744,12.9868 55.744134,12.9933 1.375,10e-4 -4.925,-1.9312 -14,-4.2943 z m 101.7656,-5.7627 c 11.38941,-4.1901 14.09683,-9.8535 8.15602,-17.0607 -1.69311,-2.0541 -3.9668,-4.2101 -5.05265,-4.7912 -1.93826,-1.0374 -1.93683,-0.9833 0.0784,2.9669 4.14713,8.129 1.77125,13.2064 -8.94735,19.1208 -6.07593,3.3527 -3.72718,3.2566 5.7656,-0.2358 z m -194.7656,-22.4479 c -18.808201,-2.9623 -28.38651,-7.5571 -26.42246,-12.6754 0.68683,-1.7898 24.628682,-24.3048 37.034841,-34.8277 C 14.01461,965.41726 94.47984,943.97522 130.8908,980.80755 c 10.16201,10.27961 16.44321,25.69115 15.13318,37.13075 -1.43742,12.552 -12.91311,27.8771 -27.21572,36.345 l -7.09822,4.2026 -6.40178,-1.5624 c -9.06057,-2.2113 -30.97064,-2.9439 -47.40177,-1.585 -34.3832,2.8435 -86.703563,12.9876 -119.460243,23.1615 -9.374876,2.9118 -10.193514,3.0355 -15.039757,2.2722 z m 161.59996,-34.1763 c 9.4602,-6.8947 16.3244,-17.315 17.16436,-26.0566 l 0.4422,-4.6021 -4.57905,-2.2247 c -4.39014,-2.1329 -9.82521,-8.1712 -11.1707,-12.4104 -0.56767,-1.7886 -0.8846,-1.69535 -4.23438,1.2458 -4.4788,3.9324 -10.60434,6.7069 -16.63177,7.533 -4.40437,0.6037 -4.59062,0.7637 -4.59062,3.9441 0,5.2322 2.04456,13.4404 4.79784,19.2619 2.67712,5.6604 11.54497,16.1514 13.65246,16.1514 0.68729,0 3.00464,-1.2791 5.14966,-2.8424 z"
         id="path4165"
         inkscape:connector-curvature="0" />
      <path
         style="fill:#000000"
         d="m 34.3846,1115.4369 c -24.48029,-2.2057 -51.243338,-8.9748 -76.442257,-19.3344 l -5.964147,-2.452 7.290434,-2.1711 c 37.08621,-11.0448 102.32412,-21.848 134.73235,-22.3114 l 16.06587,-0.2297 4.178,2.8917 c 5.71765,3.9573 13.84294,12.0913 15.73693,15.7539 3.39129,6.558 1.37019,12.3111 -5.56858,15.851 -4.53789,2.315 -30.02295,8.4317 -43.81086,10.5149 -12.23918,1.8493 -34.31437,2.5596 -46.21774,1.4871 z m -1.97811,-2.7212 c -6.65034,-1.1977 -34.25484,-8.6909 -48.877351,-13.2676 -15.070044,-4.7169 -20.197332,-5.5577 -18.653033,-3.059 0.633857,1.0256 20.659614,7.7486 31.530384,10.5853 10.52601,2.7467 30.17957,6.3048 34.5,6.246 2.57366,-0.035 3.10854,-0.215 1.5,-0.5047 z m 83.41158,-8.3228 c 13.79705,-4.2615 17.14091,-11.1453 9.46106,-19.4769 -5.10024,-5.5332 -6.55006,-5.7259 -3.89296,-0.5175 4.11176,8.0597 1.84709,12.7302 -8.97968,18.519 -7.39093,3.9517 -6.23058,4.4535 3.41158,1.4754 z"
         id="path4163"
         inkscape:connector-curvature="0" />
    </g>
  </g>
</svg>
