<?xml version="1.0" encoding="UTF-8" standalone="no"?>
<!-- Created with Inkscape (http://www.inkscape.org/) -->

<svg
   xmlns:dc="http://purl.org/dc/elements/1.1/"
   xmlns:cc="http://creativecommons.org/ns#"
   xmlns:rdf="http://www.w3.org/1999/02/22-rdf-syntax-ns#"
   xmlns:svg="http://www.w3.org/2000/svg"
   xmlns="http://www.w3.org/2000/svg"
   xmlns:sodipodi="http://sodipodi.sourceforge.net/DTD/sodipodi-0.dtd"
   xmlns:inkscape="http://www.inkscape.org/namespaces/inkscape"
   width="64"
   height="64"
   viewBox="0 0 64 64"
   id="svg2"
   version="1.1"
   inkscape:version="0.91 r13725"
   sodipodi:docname="icon.svg">
  <defs
     id="defs4" />
  <sodipodi:namedview
     id="base"
     pagecolor="#ffffff"
     bordercolor="#666666"
     borderopacity="1.0"
     inkscape:pageopacity="0.0"
     inkscape:pageshadow="2"
     inkscape:zoom="7.9195959"
     inkscape:cx="32.502672"
     inkscape:cy="20.326982"
     inkscape:document-units="px"
     inkscape:current-layer="g4146"
     showgrid="false"
     units="px"
     inkscape:window-width="1855"
     inkscape:window-height="1056"
     inkscape:window-x="65"
     inkscape:window-y="24"
     inkscape:window-maximized="1" />
  <metadata
     id="metadata7">
    <rdf:RDF>
      <cc:Work
         rdf:about="">
        <dc:format>image/svg+xml</dc:format>
        <dc:type
           rdf:resource="http://purl.org/dc/dcmitype/StillImage" />
        <dc:title></dc:title>
      </cc:Work>
    </rdf:RDF>
  </metadata>
  <g
     inkscape:label="Vrstva 1"
     inkscape:groupmode="layer"
     id="layer1"
     transform="translate(0,-988.36216)">
    <g
       id="g4191"
       transform="matrix(0.77641751,0,0,0.77641751,11.964387,239.77186)"
       style="fill:#000080">
      <g
         id="g4146"
         transform="matrix(0.125,0,0,0.12499609,23.950266,880.04215)">
        <path
           style="fill:#a05a2c"
           d="m -221.96888,1247.7271 c -2.3546,-1.2429 -5.58794,-4.115 -7.1852,-6.3823 l -2.90411,-4.1225 -0.26631,-118.7266 c -0.29224,-130.28025 -0.57956,-123.38915 5.39648,-129.42705 2.92179,-2.9521 112.81603,-76.51022 119.07186,-79.70127 8.864057,-4.52149 19.541117,-1.44869 24.875477,7.159 l 2.90411,4.68607 0.31405,30.8092 0.31406,30.809 6.46356,0 6.46357,0 54.638566,-36.4242 c 30.051208,-20.0333 56.064662,-37.01996 57.807668,-37.74813 3.784585,-1.58108 10.762894,-1.72238 14.542696,-0.29447 3.874282,1.4636 7.999557,5.59509 10.086197,10.1014 1.622495,3.5039 1.794757,6.744 1.814002,34.1185 l 0.02125,30.2469 18.876697,0 18.876697,0 0,66.94655 c 0,36.8205 0.22032,66.7263 0.48959,66.457 0.26926,-0.2693 7.42184,-78.5687 15.8946,-173.99885 l 15.40504,-173.50925 2.74007,-4.42318 c 1.74811,-2.82189 4.2846,-5.23878 7.00648,-6.6761 4.21679,-2.22672 4.63338,-2.25267 35.81732,-2.23167 28.72106,0.0194 31.9083,0.18353 35.53545,1.83046 4.89353,2.22193 8.62641,6.94017 10.03533,12.68432 0.98375,4.01076 29.07419,450.97457 29.06281,462.43587 -0.007,6.5467 -2.69605,11.8942 -7.47726,14.8664 l -3.66023,2.2753 -234.339721,0.2496 -234.339719,0.2498 -4.28109,-2.2598 z m 84.29418,-102.773 0,-28.553 -18.8767,0 -18.8767,0 0,28.553 0,28.5531 18.8767,0 18.8767,0 0,-28.5531 z m 95.835537,0 0,-28.553 -18.8767,0 -18.8767,0 0,28.553 0,28.5531 18.8767,0 18.8767,0 0,-28.5531 z m 94.867501,0 0,-28.553 -18.876696,0 -18.876698,0 0,28.553 0,28.5531 18.876698,0 18.876696,0 0,-28.5531 z m -190.703038,-94.8543 0,-28.553 -18.8767,0 -18.8767,0 0,28.553 0,28.5531 18.8767,0 18.8767,0 0,-28.5531 z m 95.835537,0 0,-28.553 -18.8767,0 -18.8767,0 0,28.553 0,28.5531 18.8767,0 18.8767,0 0,-28.5531 z m 94.867501,0 0,-28.553 -18.876696,0 -18.876698,0 0,28.553 0,28.5531 18.876698,0 18.876696,0 0,-28.5531 z"
           id="path4148"
           inkscape:connector-curvature="0" />
      </g>
    </g>
  </g>
</svg>
