<?xml version="1.0" encoding="UTF-8" standalone="no"?>
<!-- Created with Inkscape (http://www.inkscape.org/) -->

<svg
   xmlns:dc="http://purl.org/dc/elements/1.1/"
   xmlns:cc="http://creativecommons.org/ns#"
   xmlns:rdf="http://www.w3.org/1999/02/22-rdf-syntax-ns#"
   xmlns:svg="http://www.w3.org/2000/svg"
   xmlns="http://www.w3.org/2000/svg"
   xmlns:sodipodi="http://sodipodi.sourceforge.net/DTD/sodipodi-0.dtd"
   xmlns:inkscape="http://www.inkscape.org/namespaces/inkscape"
   width="128"
   height="128"
   viewBox="0 0 33.866666 33.866668"
   version="1.1"
   id="svg8"
   inkscape:version="0.92.3 (2405546, 2018-03-11)"
   sodipodi:docname="icon.svg">
  <defs
     id="defs2" />
  <sodipodi:namedview
     id="base"
     pagecolor="#ffffff"
     bordercolor="#666666"
     borderopacity="1.0"
     inkscape:pageopacity="0.0"
     inkscape:pageshadow="2"
     inkscape:zoom="2.8"
     inkscape:cx="35.319136"
     inkscape:cy="52.163884"
     inkscape:document-units="mm"
     inkscape:current-layer="layer1"
     showgrid="false"
     units="px"
     inkscape:window-width="1853"
     inkscape:window-height="1025"
     inkscape:window-x="67"
     inkscape:window-y="27"
     inkscape:window-maximized="1" />
  <metadata
     id="metadata5">
    <rdf:RDF>
      <cc:Work
         rdf:about="">
        <dc:format>image/svg+xml</dc:format>
        <dc:type
           rdf:resource="http://purl.org/dc/dcmitype/StillImage" />
        <dc:title />
      </cc:Work>
    </rdf:RDF>
  </metadata>
  <g
     inkscape:label="Vrstva 1"
     inkscape:groupmode="layer"
     id="layer1"
     transform="translate(0,-263.13332)">
    <g
       id="g869"
       transform="matrix(0.09108621,0,0,0.09108621,7.6729172,270.80628)"
       style="fill:#f2f2f2">
      <path
         id="path814"
         d="m 203.333,104.983 v 82.451 c 0,2.761 -2.239,5 -5,5 H 5 c -2.761,0 -5,-2.239 -5,-5 v -58.34 c 0,-1.896 1.072,-3.628 2.768,-4.474 l 48.333,-24.111 c 1.55,-0.773 3.39,-0.689 4.862,0.222 1.473,0.911 2.37,2.52 2.37,4.252 v 16.029 L 87.93,106.248 V 57.416 c 0,-2.761 2.239,-5 5,-5 h 9.074 c 2.761,0 5,2.239 5,5 v 63.428 l 33.021,-16.472 2.044,-88.589 c 0.063,-2.716 2.282,-4.885 4.999,-4.885 h 21.797 c 2.716,0 4.936,2.169 4.999,4.885 l 2.186,94.729 20.051,-10.002 c 1.55,-0.773 3.389,-0.689 4.862,0.222 1.473,0.911 2.37,2.519 2.37,4.251 z M 35.078,151.969 H 21.553 v 19.006 h 13.525 z m 36.625,0 H 58.178 v 19.006 h 13.525 z m 36.626,0 H 94.804 v 19.006 h 13.525 z m 36.626,0 H 131.43 v 19.006 h 13.525 z"
         inkscape:connector-curvature="0"
         style="fill:#f2f2f2" />
      <g
         id="g816"
         style="fill:#f2f2f2">
</g>
      <g
         id="g818"
         style="fill:#f2f2f2">
</g>
      <g
         id="g820"
         style="fill:#f2f2f2">
</g>
      <g
         id="g822"
         style="fill:#f2f2f2">
</g>
      <g
         id="g824"
         style="fill:#f2f2f2">
</g>
      <g
         id="g826"
         style="fill:#f2f2f2">
</g>
      <g
         id="g828"
         style="fill:#f2f2f2">
</g>
      <g
         id="g830"
         style="fill:#f2f2f2">
</g>
      <g
         id="g832"
         style="fill:#f2f2f2">
</g>
      <g
         id="g834"
         style="fill:#f2f2f2">
</g>
      <g
         id="g836"
         style="fill:#f2f2f2">
</g>
      <g
         id="g838"
         style="fill:#f2f2f2">
</g>
      <g
         id="g840"
         style="fill:#f2f2f2">
</g>
      <g
         id="g842"
         style="fill:#f2f2f2">
</g>
      <g
         id="g844"
         style="fill:#f2f2f2">
</g>
    </g>
  </g>
</svg>
