<?xml version="1.0" encoding="UTF-8" standalone="no"?>
<!-- Created with Inkscape (http://www.inkscape.org/) -->

<svg
   xmlns:dc="http://purl.org/dc/elements/1.1/"
   xmlns:cc="http://creativecommons.org/ns#"
   xmlns:rdf="http://www.w3.org/1999/02/22-rdf-syntax-ns#"
   xmlns:svg="http://www.w3.org/2000/svg"
   xmlns="http://www.w3.org/2000/svg"
   xmlns:sodipodi="http://sodipodi.sourceforge.net/DTD/sodipodi-0.dtd"
   xmlns:inkscape="http://www.inkscape.org/namespaces/inkscape"
   width="64"
   height="64"
   viewBox="0 0 63.999999 63.999999"
   id="svg4147"
   version="1.1"
   inkscape:version="0.91 r13725"
   sodipodi:docname="icon.svg">
  <defs
     id="defs4149" />
  <sodipodi:namedview
     id="base"
     pagecolor="#ffffff"
     bordercolor="#666666"
     borderopacity="1.0"
     inkscape:pageopacity="0.0"
     inkscape:pageshadow="2"
     inkscape:zoom="1.979899"
     inkscape:cx="-23.454306"
     inkscape:cy="159.91695"
     inkscape:document-units="px"
     inkscape:current-layer="layer1"
     showgrid="false"
     units="px"
     inkscape:window-width="1855"
     inkscape:window-height="1056"
     inkscape:window-x="65"
     inkscape:window-y="24"
     inkscape:window-maximized="1" />
  <metadata
     id="metadata4152">
    <rdf:RDF>
      <cc:Work
         rdf:about="">
        <dc:format>image/svg+xml</dc:format>
        <dc:type
           rdf:resource="http://purl.org/dc/dcmitype/StillImage" />
        <dc:title />
      </cc:Work>
    </rdf:RDF>
  </metadata>
  <g
     inkscape:label="Vrstva 1"
     inkscape:groupmode="layer"
     id="layer1"
     transform="translate(0,-988.3622)">
    <g
       id="g4145"
       transform="matrix(0.1649812,0,0,0.22623154,40.089177,834.84479)">
      <path
         style="fill:#2d2d2d"
         d="m -242.9924,922.05619 0,-8.4834 70.25,-101.96613 70.25,-101.96614 24.70747,-0.0567 24.70747,-0.0567 -5.95747,10.4937 c -3.27661,5.77153 -5.95747,10.75004 -5.95747,11.06335 0,0.31332 1.42767,0.42866 3.1726,0.25631 2.90707,-0.28713 3.66934,-1.21308 9.10767,-11.06336 l 5.93506,-10.75 28.83611,0 28.8361,0 -1.88995,4.25 c -1.03947,2.3375 -23.93498,51.95 -50.87893,110.25 l -48.98898,106 -76.06484,0.25625 -76.06484,0.25624 0,-8.4834 z m 88.58094,-18.02909 c 4.61003,-8.25 8.39024,-15.36466 8.40047,-15.81037 0.0102,-0.4457 -1.66026,-0.6707 -3.71219,-0.5 -4.05291,0.33717 -2.98368,-1.18657 -17.98073,25.62381 l -3.53157,6.31343 4.22107,-0.31343 4.22107,-0.31344 8.38188,-15 z m 26.55988,-48 c 8.73161,-15.84459 8.79236,-16.00315 6.25375,-16.32457 -1.40994,-0.17852 -3.13428,-0.10556 -3.83188,0.16214 -1.17469,0.45077 -18.56269,30.49719 -18.56269,32.07628 0,0.38879 1.6478,0.56722 3.66179,0.39652 3.62404,-0.30717 3.75265,-0.47526 12.47903,-16.31037 z m 26.04274,-46.98239 c 4.84904,-8.79032 8.81644,-16.35633 8.81644,-16.81336 0,-0.45703 -1.45394,-0.68996 -3.23097,-0.51761 -3.42675,0.33235 -3.94789,1.10351 -17.99701,26.63134 l -4.02741,7.31798 3.81126,-0.31798 3.81126,-0.31798 8.81643,-15.98239 z m 26.07298,-47.01761 c 11.25987,-20.14287 10.74289,-18.71683 6.64272,-18.32344 -3.23189,0.31008 -3.75362,0.99949 -12.63517,16.69568 -5.09525,9.00473 -9.26409,16.79574 -9.26409,17.31336 0,0.51761 1.42032,0.80011 3.15627,0.62776 2.95489,-0.29337 3.72691,-1.3342 12.10027,-16.31336 z m -0.87827,154.75 c 3.44625,-7.5625 26.00815,-57.2875 50.13756,-110.5 43.64933,-96.25973 43.88645,-96.75 46.79454,-96.75 2.30208,0 2.81972,0.37169 2.43716,1.75 -0.26716,0.9625 -21.07291,50.125 -46.235,109.25 -25.1621,59.125 -45.96914,108.0625 -46.23789,108.75 -0.31939,0.81709 -2.68325,1.25 -6.82545,1.25 l -6.33683,0 6.26591,-13.75 z m 15.55354,11.50587 c 0.48773,-1.24073 21.14852,-50.85587 45.91286,-110.25587 l 45.02609,-108 26.06462,-0.2666 c 14.33554,-0.14664 26.05667,0.0784 26.04696,0.5 -0.01,0.42163 -1.35972,5.01939 -3,10.21724 -1.64029,5.19786 -2.98234,9.83887 -2.98234,10.31336 0,0.47449 1.41003,0.72171 3.13339,0.54936 3.05905,-0.30593 3.20804,-0.56248 6.27976,-10.81336 l 3.14636,-10.5 27.72025,-0.26582 c 21.86058,-0.20963 27.70675,0.002 27.65643,1 -0.0351,0.6962 -9.83739,50.31582 -21.78289,110.26582 l -21.71908,109 -81.19459,0.25587 -81.1946,0.25588 0.88678,-2.25588 z M 27.24937,912.5271 c 1.09737,-3.575 3.25461,-10.68655 4.79388,-15.80345 l 2.79866,-9.30345 -4.02495,0.30345 -4.02495,0.30345 -4.87409,15.5 c -2.68076,8.525 -4.88225,15.63837 -4.89221,15.8075 -0.01,0.16912 1.83737,0.16912 4.10517,0 l 4.12329,-0.3075 1.9952,-6.5 z m 16.97436,-56 c 2.61162,-8.525 4.75639,-15.86466 4.76614,-16.31037 0.01,-0.4457 -1.62969,-0.6707 -3.6432,-0.5 l -3.66093,0.31037 -4.82617,15.5 c -2.6544,8.525 -4.83198,15.86466 -4.83907,16.31037 -0.007,0.4457 1.66734,0.6707 3.72096,0.5 l 3.73386,-0.31037 4.74841,-15.5 z m 13.2675,-43.75 c 2.11685,-7.0125 4.43543,-14.68885 5.15239,-17.05856 l 1.30357,-4.30857 -3.66484,0.30857 -3.66484,0.30856 -4.80495,15.49159 c -2.64273,8.52038 -4.80496,16.05788 -4.80496,16.75 0,0.75832 1.31832,1.25841 3.3174,1.25841 l 3.31739,0 3.84884,-12.75 z m 12.44488,-41 c 1.10726,-3.7125 3.37119,-11.25 5.03094,-16.75 1.65976,-5.5 3.02288,-10.36601 3.02915,-10.81336 0.006,-0.44735 -1.4369,-0.67235 -3.20705,-0.5 l -3.21846,0.31336 -5.20863,16.5 c -2.86475,9.075 -5.24144,16.8375 -5.28155,17.25 -0.0401,0.4125 1.48303,0.75 3.38474,0.75 3.40321,0 3.48936,-0.10629 5.47086,-6.75 z m 39.4056,156.5 c 0.30302,-1.2375 8.01967,-40.725 17.14812,-87.75 9.12845,-47.025 16.99379,-86.625 17.47853,-88 0.62482,-1.77235 0.90432,0.37586 0.96029,7.38066 0.0692,8.6625 -1.64949,19.14187 -13.94069,85 -7.7108,41.31564 -14.4927,77.48184 -15.07089,80.36934 -0.99126,4.95035 -1.22464,5.25 -4.08878,5.25 -2.64658,0 -2.9666,-0.28958 -2.48658,-2.25 z m -352.28166,-33.54046 -0.0524,-5.29046 63.61684,-89.70954 c 34.98926,-49.34025 63.74812,-89.8559 63.90858,-90.03478 0.16045,-0.17889 1.44047,-0.17889 2.84447,0 2.37828,0.30301 -1.87246,6.65484 -62.19491,92.93715 -35.61121,50.93654 -65.4952,93.68654 -66.40886,95 -1.64145,2.35967 -1.66184,2.32513 -1.71367,-2.90237 z"
         id="path4147"
         inkscape:connector-curvature="0" />
    </g>
  </g>
</svg>
