<?xml version="1.0" encoding="UTF-8" standalone="no"?>
<!-- Created with Inkscape (http://www.inkscape.org/) -->

<svg
   xmlns:dc="http://purl.org/dc/elements/1.1/"
   xmlns:cc="http://creativecommons.org/ns#"
   xmlns:rdf="http://www.w3.org/1999/02/22-rdf-syntax-ns#"
   xmlns:svg="http://www.w3.org/2000/svg"
   xmlns="http://www.w3.org/2000/svg"
   xmlns:sodipodi="http://sodipodi.sourceforge.net/DTD/sodipodi-0.dtd"
   xmlns:inkscape="http://www.inkscape.org/namespaces/inkscape"
   width="64"
   height="64"
   viewBox="0 0 63.999999 63.999999"
   id="svg4147"
   version="1.1"
   inkscape:version="0.91 r13725"
   sodipodi:docname="icon.svg">
  <sodipodi:namedview
     id="base"
     pagecolor="#ffffff"
     bordercolor="#666666"
     borderopacity="1.0"
     inkscape:pageopacity="0.0"
     inkscape:pageshadow="2"
     inkscape:zoom="3.959798"
     inkscape:cx="101.35538"
     inkscape:cy="14.573435"
     inkscape:document-units="px"
     inkscape:current-layer="g4559"
     showgrid="false"
     units="px"
     inkscape:window-width="1855"
     inkscape:window-height="1056"
     inkscape:window-x="65"
     inkscape:window-y="24"
     inkscape:window-maximized="1"
     showguides="false" />
  <defs
     id="defs4149" />
  <metadata
     id="metadata4152">
    <rdf:RDF>
      <cc:Work
         rdf:about="">
        <dc:format>image/svg+xml</dc:format>
        <dc:type
           rdf:resource="http://purl.org/dc/dcmitype/StillImage" />
        <dc:title></dc:title>
      </cc:Work>
    </rdf:RDF>
  </metadata>
  <g
     transform="translate(0,-988.3622)"
     id="layer1"
     inkscape:groupmode="layer"
     inkscape:label="Vrstva 1">
    <g
       id="g4559"
       transform="matrix(0.10068367,0,0,0.10068367,26.45257,921.64456)">
      <g
         id="g4628"
         transform="matrix(0.90000002,0,0,0.90000002,5.5097576,98.047309)">
        <path
           sodipodi:nodetypes="cccccccccccccccc"
           inkscape:connector-curvature="0"
           id="rect4618"
           d="m 103.78608,684.09668 22.26057,0 0.88679,98.97609 21.59468,11.51982 1.03838,81.43447 103.46907,23.01686 4.25665,88.09293 -281.204532,-0.8868 -86.703758,92.44535 -34.21204,0.539 17.70723,-93.71992 101.056512,-73.083 78.593078,-24.34061 29.413642,-103.70755 13.419181,-18.15964 z"
           style="opacity:1;fill:#e3e2db;fill-opacity:1;stroke:none;stroke-width:1.79999995;stroke-linecap:butt;stroke-linejoin:round;stroke-miterlimit:4;stroke-dasharray:none;stroke-dashoffset:0;stroke-opacity:0.5692308" />
        <path
           sodipodi:nodetypes="cccc"
           inkscape:connector-curvature="0"
           id="path4593"
           d="m -85.733827,1087.6072 c -3.618418,55.5087 -137.675853,184.2821 4.386867,190.8289 80.40462093,-6.7664 23.522211,-94.7459 6.580314,-190.8289 z"
           style="fill:#37abc8;fill-opacity:1;fill-rule:evenodd;stroke:none;stroke-width:9.93209743px;stroke-linecap:butt;stroke-linejoin:miter;stroke-opacity:1" />
        <path
           inkscape:connector-curvature="0"
           id="path4571"
           d="m -163.34409,1091.3902 c -3.56684,-1.4598 -4.91522,-6.1946 -2.64735,-9.2961 1.1289,-1.5438 3.61817,-1.6217 48.63235,-1.5224 51.573439,0.1139 49.988709,-0.046 49.988709,5.0397 0,1.3139 -0.861147,3.2502 -1.913665,4.303 -1.903733,1.9043 -2.147681,1.9152 -47.015584,2.0925 -24.93819,0.099 -45.97037,-0.1771 -47.04446,-0.6167 z m 2.38821,-17.1229 c 0.002,-9.794 2.6854,-29.0338 5.74221,-41.1697 14.53059,-57.68806 52.97035,-105.97778 104.07089,-130.73827 20.311915,-9.84204 41.2424264,-15.73872 60.2421907,-16.97185 4.7682473,-0.30947 8.6695403,-0.87378 8.6695403,-1.25402 0,-0.96369 2.619428,-3.48593 3.620249,-3.48593 0.499517,0 0.825669,22.50546 0.825669,56.97295 0,52.36776 -0.118075,56.94972 -1.460769,56.68546 -1.15432,-0.22719 -2.817822,-2.15707 -3.51408,-4.07673 -0.230156,-0.63461 -15.1503283,1.92304 -22.5773412,3.87026 -36.3296868,9.52493 -63.0061468,40.75043 -65.6400688,76.83333 l -0.616613,8.4473 -17.783672,0.2656 c -9.78102,0.1461 -19.542395,0.012 -21.691965,-0.2962 l -3.90828,-0.5618 0.55723,-8.151 c 1.56369,-22.8732 9.44208,-47.06 21.436486,-65.8102 22.263495,-34.80346 60.022491,-58.44258 100.6915089,-63.03824 7.9264671,-0.89567 9.1170041,-1.25117 9.5465861,-2.85045 0.654591,-2.43699 0.648731,-13.82963 -0.0089,-17.11729 l -0.523863,-2.61931 -9.4079895,1.14266 c -38.4427865,4.66909 -69.1045145,19.31684 -96.1202865,45.91882 -27.728002,27.30318 -44.099782,63.58061 -46.888562,103.89801 l -0.5924,8.5643 -4.01133,0.5498 c -2.20615,0.3024 -7.75665,0.5499 -12.33439,0.5499 l -8.32314,0 8.9e-4,-5.5574 z m 378.5209,-73.3963 c -5.19434,-0.2294 -6.76624,-0.7255 -11.1148,-3.50876 -2.78567,-1.78299 -5.76508,-3.1895 -6.62092,-3.12575 -1.46684,0.10937 -1.55607,-3.11863 -1.55607,-56.2919 0,-31.02433 0.3201,-56.40788 0.71134,-56.40788 0.39124,0 1.17904,0.46769 1.75066,1.03931 0.79297,0.79297 2.06711,0.40041 5.37544,-1.65615 3.64265,-2.2644 5.48813,-2.76216 11.53952,-3.11248 l 7.20341,-0.417 8.24878,5.12939 c 6.11697,3.80377 8.54216,4.88591 9.38399,4.18725 0.8084,-0.67092 1.5192,-0.62348 2.469,0.16478 1.0641,0.88313 1.60344,0.88313 2.66755,0 1.0641,-0.88313 1.60344,-0.88313 2.66755,0 1.06704,0.88557 1.61406,0.87432 2.73532,-0.0563 1.15816,-0.96119 1.53241,-0.95143 2.15519,0.0563 0.62277,1.00767 0.99702,1.01743 2.15518,0.0563 1.12126,-0.93056 1.66829,-0.94181 2.73533,-0.0563 1.0641,0.88313 1.60344,0.88313 2.66755,0 1.0641,-0.88313 1.60345,-0.88313 2.66755,0 1.0641,0.88313 1.60345,0.88313 2.66755,0 1.0641,-0.88313 1.60345,-0.88313 2.66755,0 1.06507,0.88392 1.60682,0.88033 2.68904,-0.0179 0.7454,-0.61862 1.59649,-0.88354 1.89131,-0.58871 1.49539,1.49538 2.01369,10.68534 2.04017,36.17389 0.0232,22.32426 -0.23966,28.89524 -1.29504,32.37426 -1.50347,4.95604 -1.77228,12.97417 -0.43497,12.97417 1.11619,0 1.15312,16.01864 0.0479,20.78218 -1.02749,4.42866 -2.20492,5.6456 -4.01155,4.14617 -1.09589,-0.90946 -1.63947,-0.91577 -2.70524,-0.0311 -1.06704,0.88563 -1.61406,0.87433 -2.73532,-0.056 -1.16158,-0.96396 -1.53753,-0.94458 -2.19582,0.11346 -0.6318,1.01545 -1.14032,1.06222 -2.48568,0.22888 -1.21684,-0.75385 -1.96231,-0.77688 -2.657,-0.0818 -0.69468,0.69463 -1.35039,0.64626 -2.33707,-0.17268 -1.09588,-0.90946 -1.63946,-0.91577 -2.70523,-0.0311 -1.0641,0.88314 -1.60345,0.88314 -2.66755,0 -1.0641,-0.88305 -1.60345,-0.88305 -2.66755,0 -1.06704,0.88563 -1.61407,0.87433 -2.73533,-0.056 -1.16157,-0.96396 -1.53753,-0.94458 -2.19582,0.11346 -0.6248,1.00424 -1.14767,1.05768 -2.45043,0.25084 -1.35625,-0.84001 -2.36749,-0.58579 -5.58453,1.40358 -9.98167,6.17279 -11.60236,6.75629 -17.98098,6.47469 z m 30.10188,-40.91289 c 0.53323,-5.41148 0.42177,-6.3975 -0.72314,-6.3975 -1.94446,0 -2.43299,1.929 -2.43299,9.60701 0,6.12309 0.12471,6.61597 1.26287,4.99098 0.69457,-0.99161 1.54654,-4.6819 1.89326,-8.20049 z m 15.28626,-0.2167 c 0.4232,-6.17449 0.30617,-7.04322 -0.88715,-6.58529 -1.834,0.7037 -2.41241,3.19937 -2.42698,10.47129 -0.0111,5.55411 0.10753,5.94589 1.40723,4.64617 0.95848,-0.95854 1.57768,-3.72906 1.9069,-8.53217 z m 5.19355,-0.25768 c 0.33952,-3.74675 0.39064,-6.8123 0.11359,-6.8123 -0.27705,0 -1.13251,0.62874 -1.90101,1.39726 -1.0417,1.04168 -1.39729,3.24179 -1.39729,8.64509 0,6.57035 0.11998,7.07648 1.28369,5.41513 0.70603,-1.00807 1.56149,-4.89834 1.90102,-8.64518 z m -15.28254,0.70494 c 0.65194,-6.36326 0.18887,-8.18289 -1.68639,-6.62655 -1.51041,1.25357 -2.56548,8.85485 -1.74657,12.58328 0.56046,2.55169 0.75566,2.70561 1.73432,1.36721 0.60654,-0.82952 1.37093,-4.12528 1.69864,-7.32394 z m 4.44,5.53668 c 0.28604,-1.06657 0.52554,-4.52576 0.53222,-7.68708 0.0115,-5.45078 -0.0675,-5.66837 -1.52742,-4.20842 -2.13643,2.13645 -2.92353,15.13889 -0.8687,14.35036 0.73911,-0.28365 1.57787,-1.38828 1.8639,-2.45486 z m 16.11832,-5.80236 c 0.58227,-6.04805 0.50743,-6.50749 -1.01249,-6.21478 -1.96738,0.37889 -2.97736,5.24717 -2.31245,11.14619 0.6687,5.93263 2.54725,3.14646 3.32494,-4.93141 z m -48.1425,5.41619 c 0.69637,-1.34667 1.9529,-5.64809 2.7923,-9.55881 l 1.52619,-7.11027 5.45549,0 5.45548,0 0.24566,-14.15914 c 0.1356,-7.81601 -0.12129,-14.52607 -0.57345,-14.97822 -0.45051,-0.45052 -8.96384,-0.88117 -18.91852,-0.95701 -10.87181,-0.0828 -18.36027,-0.49298 -18.75268,-1.02708 -0.3593,-0.48905 -0.65326,6.71333 -0.65326,16.0053 0,10.76386 0.30017,16.41987 0.82721,15.58644 1.21946,-1.9282 1.71715,-0.97935 3.58227,6.82964 2.86871,12.01074 2.69207,11.81752 10.79929,11.81752 6.68237,0 6.9963,-0.0936 8.21402,-2.44837 z m 17.35017,-8.22184 c 0.0531,-3.46079 -0.17697,-4.5006 -0.78694,-3.55673 -0.47407,0.73358 -0.82819,3.93464 -0.78693,7.11347 0.0922,7.10555 1.45764,4.01982 1.57387,-3.55674 z m -49.794,36.23424 -2.32492,-2.44526 -80.82215,0 c -79.859163,0 -80.835389,0.0213 -81.932766,1.77837 -0.610834,0.9781 -1.507344,1.77837 -1.992252,1.77837 -0.573488,0 -0.881652,-19.73561 -0.881652,-56.46316 0,-48.4163 0.181545,-56.46319 1.273853,-56.46319 0.700624,0 1.538617,0.83417 1.862209,1.85372 0.709488,2.2354 2.888486,1.89803 10.067319,-1.55873 10.820164,-5.21015 20.547539,-19.84183 24.137405,-36.30693 2.32975,-10.68552 2.300122,-12.00398 -0.269716,-12.00398 -1.129157,0 -2.82972,-0.58747 -3.779031,-1.30549 -1.523856,-1.15258 4.601072,-1.30881 52.291881,-1.33378 31.12579,-0.0163 54.01791,0.30824 54.01791,0.76577 0,1.03861 -2.24898,1.8735 -5.04668,1.8735 -2.18204,0 -2.21906,0.10792 -1.60178,4.66822 2.64552,19.5445 11.25631,35.48765 23.33155,43.19905 6.45422,4.12175 8.60751,4.38056 11.21744,1.34821 1.19923,-1.39333 2.41749,-2.29696 2.70724,-2.00806 0.28975,0.2889 0.42382,26.29752 0.29794,57.79693 l -0.22888,57.27169 -2.32492,-2.44525 z m -1.86294,-66.46651 c 0.14193,-5.62408 0.0594,-11.02587 -0.18341,-12.00397 -0.43739,-1.76198 -1.18139,-1.77837 -80.72917,-1.77837 -70.505445,0 -80.361352,0.16251 -80.892097,1.33377 -0.723573,1.59677 -0.907697,19.25278 -0.227195,21.78503 0.474584,1.76592 1.041154,1.77525 81.125872,1.33377 l 80.64795,-0.44459 0.25805,-10.22564 z m -80.50688,-36.15623 c -0.856,-0.3454 -1.11148,-6.85447 -1.11148,-28.31848 0,-25.79514 0.11585,-27.90026 1.55608,-28.27662 0.85583,-0.22366 -6.24652,-0.39311 -15.783014,-0.37657 -9.536494,0.0165 -16.238716,0.19677 -14.893826,0.4005 l 2.445255,0.37043 0,27.50563 c 0,21.34929 -0.248776,27.53183 -1.111479,27.62268 -0.611314,0.0644 0.288984,0.41185 2.000663,0.77214 3.461076,0.72852 28.656161,1.00981 26.897801,0.30029 z M 56.223022,827.9634 c -0.488269,-0.61132 -2.237827,-4.31254 -3.887902,-8.22495 -2.843067,-6.74103 -2.976872,-7.53207 -2.555559,-15.10848 l 0.444592,-7.99502 5.779694,-3.79506 c 5.546185,-3.64173 34.24126,-20.67163 34.835075,-20.67384 0.158221,-5.9e-4 0.02552,4.90104 -0.294951,10.8925 -0.775991,14.50871 -0.86394,32.05582 -0.188836,37.67432 l 0.546857,4.55114 7.670365,0.37331 c 11.512943,0.56033 21.897303,-0.30595 21.897303,-1.82669 0,-0.7637 2.05699,-1.80727 5.3351,-2.70664 2.93431,-0.80504 6.93563,-2.24639 8.89184,-3.20299 l 3.55673,-1.73929 0.24803,-11.2261 0.24804,-11.2261 -5.58314,-2.30315 c -3.07072,-1.26673 -7.2837,-2.73257 -9.36216,-3.25741 l -3.77903,-0.95425 0,-7.52378 c 0,-5.35502 0.32039,-7.56229 1.11148,-7.65734 0.61131,-0.0734 -0.68912,-0.37356 -2.88985,-0.66689 l -4.00133,-0.53334 -0.24546,-13.56005 -0.24545,-13.56005 -4.42276,0 -4.42275,0 0,13.24262 c 0,15.09047 0.43204,14.32207 -8.052798,14.32207 l -5.239799,0 -0.244881,-13.99375 -0.244872,-13.99374 -2.445255,-1.17089 c -1.459204,-0.69873 -2.445255,-1.88627 -2.445255,-2.94491 0,-4.9007 -5.502117,-10.65204 -12.293319,-12.85014 -3.778373,-1.22296 -6.563456,-1.42579 -13.782347,-1.00376 -10.432498,0.60992 -18.432189,2.56167 -29.076802,7.09412 -9.930812,4.22852 -15.073281,5.41671 -20.859047,4.81956 -12.6751704,-1.30819 -21.025663,-9.15688 -23.796386,-22.36637 -2.64661,-12.61781 4.814823,-26.18829 16.9173323,-30.76844 7.0624917,-2.67276 15.1281787,-2.03047 29.5395517,2.35234 10.482345,3.18791 11.772542,3.37797 22.674182,3.34031 8.882233,-0.0307 14.339508,-0.59627 23.563366,-2.44208 6.602188,-1.32116 15.315912,-2.6446 19.363823,-2.94095 l 7.359856,-0.53884 -0.074,27.47617 -0.074,27.47617 9.16398,0 9.164,0 0.23533,-26.89781 0.23534,-26.8978 2.27751,0 c 1.25263,0 9.54953,1.24885 18.43753,2.77522 20.72235,3.55874 28.12089,3.30076 43.7247,-1.52463 8.94439,-2.766 12.03647,-3.31375 19.11744,-3.38662 7.54409,-0.0776 8.93115,0.16841 12.97321,2.30122 16.65968,8.79058 19.74438,31.52483 6.09463,44.91754 -5.84423,5.73419 -12.02531,7.87874 -20.44272,7.09271 -5.4612,-0.50998 -8.3925,-1.4722 -20.64723,-6.77764 -14.7544,-6.38761 -31.27536,-8.38069 -39.34208,-4.74623 -5.13054,2.31157 -8.52739,5.9792 -10.60366,11.44894 -0.91075,2.39946 -2.02478,4.36265 -2.47554,4.36265 -0.45076,0 -1.49122,0.67165 -2.31214,1.49256 -1.26381,1.26381 -1.49133,3.51231 -1.48459,14.67153 l 0.008,13.17897 19.77638,11.92237 c 10.87701,6.5573 20.4766,12.52128 21.33244,13.25327 1.25683,1.07495 1.55746,2.80064 1.5633,8.97345 0.006,6.89203 -0.31885,8.38475 -3.31332,15.2006 -1.82632,4.15693 -3.73019,7.85203 -4.23086,8.21134 -0.50066,0.3593 -24.96929,0.6594 -54.37473,0.66688 -41.718558,0.0107 -53.659467,-0.23057 -54.352194,-1.09786 z M 22.214869,708.1459 c 0.978102,-0.9781 1.778367,-2.77869 1.778367,-4.00132 0,-2.74119 -2.891509,-5.7797 -5.500089,-5.7797 -2.611319,0 -6.059298,3.37708 -6.059298,5.93469 0,2.71761 2.987195,5.6247 5.779694,5.6247 1.222627,0 3.023224,-0.80026 4.001326,-1.77837 z m 195.620401,0 c 3.49715,-3.49715 0.96794,-9.78102 -3.93679,-9.78102 -2.41456,0 -5.84423,3.72309 -5.84423,6.34421 0,2.3604 3.16378,5.21518 5.77969,5.21518 1.22263,0 3.02322,-0.80026 4.00133,-1.77837 z"
           style="fill:#afafaf" />
        <path
           inkscape:connector-curvature="0"
           id="path4569"
           d="m -122.57195,1091.4367 c -40.32745,-0.4765 -42.13883,-0.5693 -43.3477,-2.2233 -1.54172,-2.1092 -1.63086,-5.107 -0.19457,-6.5433 0.80365,-0.8037 12.96094,-1.067 49.25456,-1.067 52.476821,0 49.266984,-0.3145 49.266984,4.8254 0,3.0788 -2.605984,4.7555 -8.002653,5.149 -2.689781,0.196 -23.829259,0.1327 -46.976621,-0.1408 z m -38.04878,-12.9076 c -0.31918,-0.8318 -0.14216,-6.9825 0.39338,-13.6684 6.90901,-86.25365 70.07621,-160.3122 150.6513705,-176.62684 5.9952939,-1.21391 14.5004953,-2.4646 18.9004426,-2.77932 4.5938339,-0.32858 8.3784749,-1.03798 8.8890799,-1.66617 0.594979,-0.73199 0.889183,17.25647 0.889183,54.36687 0,35.07287 -0.305114,54.77691 -0.82999,53.60034 -0.737302,-1.65272 -1.333073,-1.79828 -5.335102,-1.30381 -31.017988,3.83292 -54.921209,17.38783 -69.746025,39.55113 -8.717076,13.0323 -13.072048,25.7158 -14.206051,41.3745 l -0.579561,8.0027 -18.950503,-0.1295 c -10.422774,-0.071 -19.183234,-0.3621 -19.467684,-0.6466 -0.95605,-0.956 1.59943,-21.774 3.77654,-30.7653 9.306067,-38.433 35.0689,-70.62669 70.932396,-88.63844 12.922106,-6.48989 25.3188192,-10.19076 42.4020016,-12.65842 l 10.2256114,-1.47711 0,-15.53643 0,-15.53639 -6.668877,0.21136 c -33.390508,1.05824 -72.96735,18.34832 -99.693409,43.55349 -25.563123,24.10834 -43.335713,55.78164 -49.550343,88.30594 -2.11885,11.089 -4.10635,29.6313 -3.37922,31.5261 0.43262,1.1274 -0.54634,1.3467 -6.01306,1.3467 -3.5914,0 -7.77408,0.2488 -9.29483,0.553 -2.11965,0.4239 -2.90046,0.2 -3.34535,-0.9594 z m 378.0114,-77.8151 c -5.25267,-0.4002 -7.03027,-0.99782 -11.38759,-3.82845 -2.83982,-1.84479 -5.54072,-3.12095 -6.00199,-2.83587 -0.52222,0.32268 -0.82801,-20.89102 -0.8104,-56.21962 0.0229,-45.8915 0.24296,-56.4557 1.15126,-55.26152 1.02283,1.34474 1.55194,1.20595 5.93251,-1.55607 5.82325,-3.67167 6.74852,-3.78714 4.70548,-0.58724 -1.13182,1.7727 -1.1983,2.1601 -0.24171,1.40849 1.557,-1.22337 10.7075,-1.80748 12.35588,-0.78873 0.90049,0.55653 0.93547,0.31881 0.16497,-1.12089 -2.31528,-4.32613 -0.4224,-3.82228 9.50593,2.53031 6.94969,4.44673 8.61058,5.17448 9.71586,4.25719 1.08253,-0.89843 1.5372,-0.8274 2.41846,0.3778 1.01158,1.38341 1.18564,1.38388 2.56263,0.007 1.377,-1.377 1.5566,-1.36895 2.6443,0.11856 1.04496,1.42906 1.2862,1.45224 2.30748,0.22167 0.89922,-1.08349 1.48546,-1.15883 2.77087,-0.35609 1.24915,0.78011 1.95659,0.74739 3.02579,-0.13996 1.16599,-0.9677 1.48835,-0.91604 1.96043,0.31418 0.51926,1.35318 0.70648,1.34425 2.31379,-0.11035 1.6385,-1.48282 1.81828,-1.48765 2.85002,-0.0766 1.03429,1.41447 1.19455,1.41376 2.63758,-0.0118 1.44876,-1.43123 1.58881,-1.42534 2.45575,0.10322 0.8453,1.49042 1.04587,1.50652 2.48971,0.19986 3.44996,-3.12217 3.86435,-0.39985 4.31219,28.32878 0.41422,26.57207 -0.0224,35.7343 -1.65474,34.72552 -0.45766,-0.28285 -0.91586,-4.99223 -1.01821,-10.46515 l -0.1861,-9.95106 -0.29297,8.85789 c -0.24538,7.41953 -0.57612,9.1216 -2.03686,10.4825 -1.72525,1.60738 -1.74522,1.51268 -1.86831,-8.85787 l -0.12443,-10.48252 -0.72693,8.82935 c -0.58304,7.08155 -1.08645,9.18882 -2.54313,10.64548 l -1.81619,1.81616 -0.14913,-11.09007 -0.14913,-11.09011 -0.51776,9.08989 c -0.4468,7.8442 -0.79193,9.36399 -2.51842,11.09007 l -2.00066,2.00022 -0.15151,-11.09007 -0.15151,-11.09011 -0.51538,9.59174 c -0.49709,9.25125 -1.17379,11.23582 -3.84982,11.2905 -0.36679,0.009 -0.74017,-4.68795 -0.82974,-10.4343 l -0.16285,-10.44794 -0.50404,9.40421 c -0.3832,7.14975 -0.86348,9.76271 -2.00341,10.89935 -2.08901,2.083 -2.62886,0.72131 -2.40881,-6.07597 0.10319,-3.18781 -0.0756,-6.05916 -0.39735,-6.38096 -0.32173,-0.32171 -0.58497,1.99364 -0.58497,5.14535 0,4.62989 -0.34149,6.02262 -1.77837,7.25289 -1.76356,1.51002 -1.77946,1.43212 -1.91022,-9.36105 l -0.13186,-10.88382 -0.63796,9.00595 c -1.10372,15.58081 -2.18188,12.64588 -2.65506,-7.22758 l -0.44459,-18.67285 -15.43242,-0.78958 c -9.24233,-0.47287 -15.66219,-0.46517 -16.0053,0.0192 -0.31509,0.44484 -1.83888,0.92672 -3.38618,1.07087 -2.10806,0.19637 -2.91808,-0.1428 -3.23129,-1.35299 -0.2299,-0.88828 -0.46442,8.70244 -0.52115,21.3127 -0.10125,22.50413 -0.071,22.91058 1.6379,21.99596 1.55517,-0.83227 1.84485,-0.52711 2.71334,2.85864 0.53478,2.08469 1.50628,5.19079 2.1589,6.90246 l 1.1866,3.11215 7.62711,0.25644 7.62711,0.25644 2.033,-6.69476 2.03299,-6.69466 6.00199,-0.009 6.00199,-0.009 0.0703,7.78035 c 0.0771,8.54373 0.43539,8.68795 1.60647,0.64671 l 0.77402,-5.31492 0.12204,6.66888 c 0.22083,12.06693 2.49718,11.58313 4.18416,-0.88919 l 1.02229,-7.55806 0.11173,9.17762 c 0.10323,8.47864 0.222,9.06745 1.55933,7.73012 0.9348,-0.93489 1.83867,-4.50087 2.5516,-10.06689 l 1.10402,-8.61921 0.11594,10.0668 c 0.10337,8.97435 0.26154,9.92124 1.45753,8.72529 0.73788,-0.73793 1.59644,-3.77992 1.90792,-6.76002 0.83948,-8.03173 2.0856,-7.43037 2.0856,1.00647 0,6.67057 0.12081,7.19127 1.28336,5.53152 0.70584,-1.00771 1.65454,-4.79794 2.10822,-8.42279 0.7778,-6.21459 0.83433,-6.33694 0.99084,-2.14462 0.0913,2.44525 0.44331,6.00643 0.78227,7.91373 0.60286,3.39242 0.63976,3.4214 1.69501,1.33378 0.59329,-1.17372 1.44216,-4.93497 1.88637,-8.35833 l 0.80766,-6.22428 0.11364,8.22495 c 0.10468,7.57531 0.83381,9.76732 2.4039,7.22684 0.33927,-0.5489 1.11509,-4.65026 1.72407,-9.11414 l 1.10721,-8.11602 0.1204,9.78102 c 0.0822,6.67759 0.39389,9.35786 0.98236,8.44724 1.1587,-1.79295 1.16856,6.67831 0.0159,13.71682 -0.99547,6.0789 -1.98143,7.53485 -3.9796,5.87652 -1.09589,-0.90954 -1.63947,-0.91577 -2.70524,-0.0311 -1.06576,0.88447 -1.60935,0.87816 -2.70523,-0.0311 -1.00552,-0.8345 -1.63501,-0.87469 -2.35918,-0.15054 -0.70289,0.7029 -1.49387,0.71686 -2.74295,0.048 -1.31751,-0.70513 -1.94075,-0.63933 -2.49917,0.26391 -0.60752,0.98263 -1.02237,0.92493 -2.26214,-0.31451 -1.41582,-1.4154 -1.59137,-1.41771 -2.60348,-0.0338 -0.91647,1.2534 -1.30775,1.29963 -2.5153,0.29744 -1.14524,-0.95045 -1.69558,-0.96637 -2.76377,-0.08 -1.0641,0.88314 -1.60345,0.88314 -2.66755,0 -1.0641,-0.88314 -1.60345,-0.88314 -2.66755,0 -0.96653,0.80213 -1.65332,0.84179 -2.49428,0.14387 -0.86846,-0.72077 -2.49072,-0.16717 -6.44658,2.20019 -10.59955,6.34297 -10.15987,6.19467 -16.84547,5.68527 z M 25.83077,937.9999 c 0,-55.78277 0.03299,-56.86823 1.669015,-54.90712 2.15539,2.58368 2.930705,2.52949 9.712384,-0.67877 7.928735,-3.75089 15.089491,-11.2908 19.616422,-20.65507 3.46217,-7.16175 7.159182,-19.99965 7.171675,-24.90371 0.0036,-1.34489 0.389534,-2.44525 0.858018,-2.44525 1.175687,0 1.449334,10.15831 0.926583,34.3959 l -0.444592,20.61356 2.222959,0.52943 c 1.222627,0.29119 13.226606,0.77378 26.675508,1.07245 l 24.452548,0.54302 -0.24717,-28.28703 c -0.19403,-22.20587 -0.003,-28.44206 0.88918,-29.00816 0.62881,-0.39904 -2.83509,-0.75698 -7.75548,-0.8014 -4.89051,-0.0441 -18.77502,-0.15031 -30.854464,-0.23591 -16.208751,-0.11486 -22.253883,-0.44683 -23.074315,-1.26712 -0.889353,-0.88918 9.682898,-1.11148 52.861759,-1.11148 35.38951,0 53.97345,0.30617 53.97345,0.88919 0,0.48905 -1.65221,0.88918 -3.67159,0.88918 l -3.67158,0 0.61341,5.42188 c 0.86266,7.62486 4.54859,19.8038 7.89484,26.08581 1.55993,2.92852 5.01249,7.67589 7.67236,10.54972 7.72616,8.34765 17.9017,13.08638 19.00018,8.84835 0.22183,-0.85584 0.35121,23.348 0.2875,53.7863 -0.0637,30.43827 -0.24922,54.94639 -0.41223,54.4625 -0.19262,-0.57183 -28.78477,-0.87985 -81.66237,-0.87985 l -81.36596,0 -1.669025,2.00067 c -1.636018,1.96109 -1.669015,0.87566 -1.669015,-54.90709 z m 165.32899,-13.3285 0,-18.21898 -80.87021,-0.23158 c -80.216547,-0.2297 -80.874072,-0.2172 -81.348167,1.54679 -0.660601,2.45798 -0.627763,31.98262 0.03752,33.71627 0.486677,1.26824 8.482767,1.40651 81.360307,1.40651 l 80.82055,0 0,-18.21901 z M 55.210019,826.23853 c -0.434775,-1.12979 -1.834483,-4.40471 -3.11048,-7.27761 -2.825176,-6.36091 -2.913312,-7.57657 -0.388769,-5.36228 1.062175,0.93165 1.627989,1.1763 1.257368,0.54369 -0.370611,-0.63261 -0.69736,-5.03041 -0.726098,-9.77288 l -0.05228,-8.62268 3.907695,-2.72494 c 3.612033,-2.51877 22.508474,-13.8261 27.356072,-16.36943 1.708949,-0.89662 1.973828,-0.88892 1.399317,0.0406 -0.389765,0.63064 -0.663509,4.4639 -0.608326,8.51836 0.05522,4.05444 -0.274411,7.60333 -0.732429,7.8864 -1.132696,0.70004 -1.079576,23.27099 0.05646,23.97308 0.489051,0.30225 0.889183,2.27652 0.889183,4.38725 0,3.58688 0.181607,3.87402 2.778699,4.39344 3.65017,0.73004 32.640689,0.71871 36.305159,-0.0142 2.25529,-0.45106 2.75651,-0.92604 2.40313,-2.27736 -0.28443,-1.08768 0.0932,-1.88635 1.04055,-2.20037 0.81788,-0.27112 3.98788,-1.62609 7.04445,-3.01103 l 5.5574,-2.51808 0,-10.61466 c 0,-12.06691 0.40473,-11.37591 -8.89184,-15.18093 l -4.89051,-2.00165 0.44459,-8.34261 0.44459,-8.34261 -5.3351,-0.25738 -5.3351,-0.25737 -0.24566,-13.59854 -0.24567,-13.59853 -6.33757,0.26078 -6.33758,0.26078 0.1933,12.99858 c 0.21864,14.70238 0.50997,14.12159 -7.0836,14.12159 l -4.350616,0 -0.244881,-13.99375 -0.244872,-13.99374 -2.330577,-1.11593 c -1.737936,-0.83216 -2.474545,-2.01623 -2.89672,-4.65634 -0.799581,-5.0003 -5.40108,-9.36066 -11.85978,-11.23826 -3.923941,-1.14071 -7.187636,-1.3611 -14.442459,-0.97526 -10.490712,0.55793 -18.487016,2.55797 -29.386273,7.35009 -4.023129,1.76887 -9.786382,3.62569 -12.807214,4.12625 -15.2601964,2.5287 -27.82429,-6.42847 -30.74741,-21.92039 -3.37607,-17.89249 10.9606199,-33.93744 28.77986,-32.20907 2.994788,0.29048 10.646791,2.04418 17.004454,3.89713 10.79372,3.14581 12.325054,3.36717 23.118774,3.34191 8.85939,-0.0207 14.363223,-0.58229 23.563366,-2.40415 6.602188,-1.30741 14.493675,-2.63365 17.536648,-2.94722 l 5.53266,-0.57014 -0.005,27.42684 -0.005,27.42683 14.47921,0.24363 14.4792,0.24362 -0.44459,-26.69767 c -0.41763,-25.07897 -0.34953,-26.69762 1.12337,-26.69684 0.86237,4.6e-4 7.66463,1.04723 15.11612,2.32617 18.08233,3.10357 26.86026,2.70407 42.44663,-1.93181 14.85836,-4.41935 23.7755,-4.71146 31.2829,-1.02477 5.72898,2.81334 9.90816,7.12675 12.62906,13.03464 1.42851,3.10173 1.86362,5.81115 1.86362,11.60456 0,8.56115 -1.6614,13.2982 -6.66126,18.99271 -8.40846,9.57671 -21.47516,10.69991 -38.09511,3.27463 -9.93171,-4.43719 -17.9262,-6.84496 -27.16004,-8.18004 -6.58258,-0.95174 -8.11018,-0.88843 -13.45208,0.55756 -7.42298,2.00931 -12.31828,6.38961 -13.94718,12.4799 -0.58793,2.19817 -1.52414,3.99667 -2.0805,3.99667 -0.55634,0 -1.67375,0.73173 -2.48312,1.62608 -1.23157,1.36087 -1.47159,3.80016 -1.47159,14.95552 l 0,13.32943 21.11811,12.83147 21.11811,12.83147 0.26096,7.50287 c 0.26816,7.70995 0.12785,8.29799 -4.43962,18.60758 -1.86256,4.20414 -2.79081,5.43485 -3.6102,4.78655 -1.27765,-1.01088 -105.580183,-0.87582 -107.221927,0.13884 -0.619681,0.38299 -1.346375,-0.18232 -1.821502,-1.41698 z M 24.639913,710.57095 c 4.69946,-4.69945 2.698352,-12.74255 -3.695296,-14.85265 -4.504978,-1.48678 -9.325029,0.90663 -11.0384944,5.48118 -1.0991199,2.93439 -1.0541806,3.63486 0.4274304,6.66186 0.91064,1.86046 2.656036,3.89983 3.878664,4.53193 3.012402,1.55739 7.902592,0.70279 10.427696,-1.82232 z m 195.620397,0 c 2.91656,-2.91656 3.43467,-7.5027 1.24302,-11.00292 -3.85927,-6.16355 -12.9856,-5.54691 -15.74784,1.06407 -3.79219,9.07598 7.57724,16.86643 14.50482,9.93885 z"
           style="fill:#8f8f8f" />
        <path
           inkscape:connector-curvature="0"
           id="path4567"
           d="m -164.15828,1090.7036 c -1.59427,-1.0646 -3.1975,-4.6956 -2.67475,-6.0579 0.41135,-1.072 7.99788,-1.2643 49.86276,-1.2643 l 49.377594,0 0,2.0251 c 0,1.1138 -0.622891,2.9144 -1.384193,4.0014 l -1.384201,1.9762 -46.40942,-0.013 c -25.52519,-0.01 -46.84969,-0.3076 -47.38779,-0.6669 z m 67.848725,-11.5429 -9.599425,-0.2862 0.5181,-5.5269 c 1.24507,-13.2816 1.58226,-15.69 3.13939,-22.4214 10.371723,-44.8368 43.20714,-80.82099 86.263723,-94.53603 9.4719841,-3.01718 21.0414723,-5.33786 28.421616,-5.70109 l 4.89051,-0.24061 0.238995,19.6658 0.238986,19.6659 -7.9695751,1.02203 c -38.0231629,4.87628 -68.0728479,29.0695 -77.8005789,62.6379 -1.735944,5.9904 -4.070781,20.5934 -4.070781,25.4604 0,0.9119 -1.776473,0.9309 -24.27096,0.2602 z m -64.226215,-9.3393 c 1.70332,-25.3246 7.49859,-49.051 17.2362,-70.56724 29.3591,-64.87161 88.135831,-108.36792 153.761068,-113.78717 l 7.364076,-0.60812 -0.250607,11.00979 -0.250608,11.00978 -10.2256114,1.09178 c -54.9769246,5.86982 -102.1989506,35.7096 -130.9114276,82.72332 -13.53384,22.16036 -23.35823,54.53456 -24.00979,79.11916 l -0.24132,9.1055 -6.5425,0.01 -6.5425,0.01 0.61302,-9.1141 z m 366.64603,-73.04567 c -3.26992,-2.14942 -6.17088,-3.68246 -6.44658,-3.40672 -0.2757,0.27564 -0.48855,-24.87385 -0.47299,-55.88786 0.0229,-45.70781 0.24169,-56.10841 1.15495,-54.90758 1.0286,1.35252 1.54711,1.22211 5.95744,-1.49823 2.65693,-1.63883 4.93987,-2.87061 5.0732,-2.73728 0.13332,0.13333 -0.41447,1.55916 -1.21732,3.16851 -0.80284,1.60936 -1.64652,4.57526 -1.87481,6.59093 l -0.41509,3.66482 8.14874,-0.28678 c 5.80192,-0.20418 8.55604,0.0512 9.56298,0.88695 2.54449,2.11174 0.46521,-7.67001 -3.10451,-14.60481 -0.88524,-1.71973 2.3433,-0.22006 10.24976,4.76104 6.9022,4.34842 8.91511,5.24095 10.12115,4.48777 1.15426,-0.72085 1.63193,-0.61055 2.04765,0.47279 0.49137,1.28049 0.69525,1.27446 2.17454,-0.0643 1.47046,-1.33075 1.7458,-1.34053 2.77651,-0.0986 1.03229,1.24385 1.29771,1.23969 2.71451,-0.0425 1.44345,-1.30631 1.64282,-1.29165 2.46716,0.18135 0.864,1.54389 0.96158,1.54389 2.66755,0 1.70597,-1.54388 1.80355,-1.54388 2.66755,0 0.85877,1.53453 0.97068,1.53566 2.63822,0.0266 1.55279,-1.40526 1.79972,-1.42398 2.27984,-0.1728 0.48968,1.2761 0.73147,1.27668 2.67004,0.006 1.95251,-1.27934 2.17952,-1.27178 2.7021,0.09 0.53062,1.38278 0.6886,1.37986 2.25957,-0.0419 1.59968,-1.44768 1.73479,-1.44232 2.55293,0.10127 1.21013,2.28317 2.25071,48.669 1.20347,53.64709 -0.74897,3.56021 -0.85251,3.00233 -0.93919,-5.06034 -0.0536,-4.98391 -0.45779,-9.28437 -0.89822,-9.55657 -0.44434,-0.27462 -0.93909,3.081 -1.11148,7.53857 -0.22927,5.92827 -0.66021,8.25002 -1.64446,8.85964 -1.14601,0.70984 -1.36951,-0.42609 -1.58754,-8.06869 -0.30894,-10.82826 -1.9692,-11.18587 -1.9692,-0.4239 0,5.45514 -0.3215,7.53379 -1.21846,7.87799 -1.30732,0.50168 -2.23194,-4.53217 -2.41918,-13.17044 -0.15504,-7.15311 -1.50316,-1.33468 -1.60883,6.94367 -0.0504,3.94762 -0.43952,6.72676 -0.90187,6.44106 -0.44728,-0.27644 -1.01589,0 -1.26357,0.61434 -0.24769,0.61443 -0.52182,-2.28405 -0.60917,-6.44098 -0.19539,-9.29737 -1.49488,-14.58203 -1.74921,-7.11349 -0.16617,4.87992 -1.43288,14.57872 -1.6839,12.89318 -0.0728,-0.48905 -0.5203,-0.28898 -0.99438,0.4446 -0.59396,0.91906 -0.88562,-1.15434 -0.93806,-6.66888 -0.10725,-11.27579 -1.37826,-13.61585 -1.87229,-3.44708 -0.29442,6.06012 -0.77609,8.49426 -1.90403,9.62219 -1.42042,1.42047 -1.5099,1.00869 -1.5099,-6.94833 0,-4.6797 -0.39723,-8.70378 -0.88919,-9.00783 -0.56595,-0.34978 -0.88918,2.17744 -0.88918,6.95212 0,5.19087 -0.36758,7.80676 -1.19329,8.49205 -1.95939,1.62614 -2.36276,0.22505 -2.37706,-8.2566 -0.009,-5.54314 -0.284,-7.65835 -0.87557,-6.74298 -0.47408,0.73358 -0.86808,4.70156 -0.87557,8.81771 -0.0257,14.14211 -1.10835,6.37376 -1.67222,-11.99895 l -0.56435,-18.3887 -6.66888,-0.10752 c -6.56219,-0.10582 -6.69031,-0.0648 -8.00824,2.56002 -1.30733,2.60373 -1.51554,2.67374 -8.70308,2.92634 l -7.3637,0.2588 -0.94263,-2.70405 c -0.74956,-2.15016 -1.45607,-2.70405 -3.44911,-2.70405 -1.37855,0 -2.70829,-0.50017 -2.95496,-1.11148 -0.24667,-0.61132 -0.48008,11.58282 -0.51869,27.09809 l -0.0702,28.2096 2.13192,-0.81058 c 1.98428,-0.75438 2.24658,-0.49118 3.78732,3.80099 l 1.65539,4.61167 7.72346,0.25617 7.72346,0.25617 1.59109,-4.47979 1.5911,-4.4798 5.99864,0 c 6.85487,0 6.72986,-0.16352 7.13741,9.33643 l 0.22888,5.3351 0.99818,-5.77969 0.99817,-5.7797 0.11331,8.28844 c 0.10336,7.56206 0.23671,8.16502 1.52144,6.88033 0.79319,-0.79316 1.79721,-4.21882 2.29901,-7.84385 0.48998,-3.53966 1.05671,-6.60245 1.25941,-6.80625 0.2027,-0.20381 0.36854,3.32599 0.36854,7.84384 0,7.32296 0.14559,8.06881 1.34158,6.87277 0.73788,-0.73785 1.594,-3.75654 1.90251,-6.70809 0.75425,-7.21626 2.09101,-5.97043 2.09101,1.94873 0,5.84505 0.10718,6.21664 1.30142,4.51163 0.71578,-1.02194 1.66672,-4.41204 2.1132,-7.53361 l 0.81179,-5.67557 0.19839,4.89051 c 0.45884,11.31104 2.43745,11.31104 4.13285,0 l 0.99959,-6.66888 0.14148,8.44725 c 0.13923,8.31404 0.16715,8.41648 1.77049,6.49593 1.01255,-1.21285 1.92671,-4.40955 2.41568,-8.44724 l 0.78664,-6.49594 0.25606,8.25465 c 0.22408,7.22409 0.41759,8.09317 1.5498,6.96098 0.71157,-0.71153 1.67255,-3.96852 2.13553,-7.23778 0.46297,-3.26917 1.00766,-6.10985 1.21042,-6.31258 0.20276,-0.20283 0.64728,5.36231 0.98782,12.36694 0.74453,15.31441 -0.47536,20.34657 -3.92485,16.19017 -0.99048,-1.19346 -1.23472,-1.18013 -2.18506,0.11959 -0.96227,1.31599 -1.19658,1.32533 -2.3282,0.0929 -1.09428,-1.19168 -1.44442,-1.20431 -2.68684,-0.0971 -1.24276,1.10748 -1.57739,1.09379 -2.57274,-0.10554 -1.03359,-1.24539 -1.2914,-1.24539 -2.66755,0 -1.36959,1.23943 -1.63783,1.24068 -2.65712,0.0125 -1.01288,-1.2205 -1.25764,-1.19916 -2.29611,0.1998 -1.09597,1.47649 -1.25036,1.47924 -2.70275,0.048 -1.44679,-1.42554 -1.60729,-1.42625 -2.64159,-0.0116 -1.03173,1.41105 -1.21151,1.40616 -2.85002,-0.0765 -1.55009,-1.40277 -1.80951,-1.42438 -2.28308,-0.19028 -0.4222,1.10018 -0.86943,1.18297 -2.13205,0.39444 -1.31753,-0.82285 -2.9197,-0.20282 -9.13432,3.53486 -7.15198,4.30158 -7.85413,4.53278 -13.76082,4.53278 -5.86024,-10e-5 -6.57201,-0.2287 -12.1696,-3.90822 z m -180.309073,-59.44272 0.02961,-56.24089 1.776313,2.13316 c 1.674804,2.01127 1.990669,2.07024 5.527814,1.03199 7.041374,-2.06685 15.877005,-9.09797 21.297006,-16.9475 0.844209,-1.22263 1.32499,-1.58686 1.068408,-0.80941 -0.256592,0.77745 -0.54836,6.08431 -0.648384,11.79302 -0.150201,8.57254 0.05122,10.45333 1.156908,10.80369 5.05748,1.6025 51.452288,3.59645 63.201228,2.71625 l 8.37306,-0.6273 -0.24717,-28.09787 c -0.18059,-20.53017 0.0296,-28.26892 0.7804,-28.73295 1.63364,-1.00965 -27.3406,-2.00026 -46.326182,-1.58387 -9.536494,0.20915 -18.939611,0.11999 -20.895815,-0.19813 -1.956204,-0.31813 20.451224,-0.56793 49.794287,-0.55512 29.34306,0.0128 51.85052,0.18025 50.01657,0.37209 -3.08827,0.32304 -3.33301,0.55817 -3.31519,3.18497 0.0106,1.55988 0.81157,6.42038 1.77997,10.8011 2.38757,10.80057 8.28943,22.69805 14.27467,28.7761 5.11685,5.1962 12.58985,9.91973 15.71443,9.93276 1.90757,0.008 2.00066,0.3398 2.00066,7.1311 l 0,7.12275 -80.87021,-0.23158 c -80.216541,-0.2297 -80.874065,-0.2172 -81.34816,1.54679 -0.661926,2.46291 -0.627835,44.43102 0.03752,46.16484 0.486677,1.26824 8.482768,1.40651 81.3603,1.40651 l 80.82053,0 0,20.89581 0,20.89582 -81.30038,0 c -80.519459,0 -81.305808,0.0169 -81.86482,1.77837 -1.886884,5.94499 -2.22079,-2.34603 -2.193376,-54.4625 z M 54.226191,823.56526 c -1.120763,-2.5938 -2.603601,-6.06065 -3.29519,-7.70413 l -1.257439,-2.98813 2.49825,1.73196 c 3.071987,2.12971 5.083907,2.94163 9.400974,3.79383 2.6422,0.52157 3.150315,0.42474 2.415743,-0.46037 -1.278824,-1.54088 -1.046427,-26.20926 0.246908,-26.20926 0.526157,0 0.710307,-0.24633 0.409238,-0.54739 -0.301068,-0.30107 -1.833105,-0.0992 -3.404524,0.4486 -5.20296,1.81376 -3.681184,0.33362 4.706369,-4.57761 13.183766,-7.71958 11.887576,-7.58045 11.556933,-1.24052 -0.275905,5.29046 -0.194633,5.52572 2.445255,7.07868 l 2.730647,1.60634 0,10.5971 0,10.59709 -2.667551,1.37945 c -2.261051,1.16923 -2.66755,1.89955 -2.66755,4.79248 0,3.38626 -0.03237,3.41747 -4.12543,3.9785 -2.268992,0.31099 -6.590425,0.56545 -9.603183,0.56545 -3.012768,0 -5.899387,0.42163 -6.414722,0.93696 -0.656502,0.65651 -1.546939,-0.4747 -2.974728,-3.77903 z m 93.808159,2.80816 c -9.29197,-0.32281 -16.96794,-0.64731 -17.05772,-0.7211 -0.0898,-0.0738 -0.28985,-1.21337 -0.4446,-2.53239 -0.24425,-2.0819 0.30502,-2.70373 4.16457,-4.71471 l 4.44592,-2.31649 0,-11.06831 0,-11.0683 -4.22106,-2.22296 -4.22104,-2.22295 -0.003,-8.68761 -0.003,-8.68762 3.33444,1.74221 c 1.83394,0.95821 11.13703,6.47944 20.67352,12.26939 l 17.33908,10.52718 0.26023,7.43268 c 0.24133,6.89288 0.0179,8.00502 -3.07678,15.31338 -1.83535,4.33438 -3.55299,7.80506 -3.81696,7.71261 -0.26379,-0.0924 -8.08229,-0.4322 -17.37426,-0.75501 z M 92.163984,770.68515 c -0.326037,-0.32603 -0.605517,-6.42805 -0.621069,-13.56005 -0.02116,-9.7116 -0.341197,-13.38029 -1.274618,-14.61237 -0.68548,-0.90481 -1.654415,-1.39291 -2.153184,-1.08465 -0.51771,0.31997 -1.345655,-1.06914 -1.929458,-3.23725 -2.530554,-9.39774 -7.682511,-12.47355 -21.734564,-12.9759 -11.526514,-0.41206 -21.521702,1.57439 -32.387873,6.43677 -9.915269,4.43688 -13.218879,5.18927 -21.050391,4.79421 -8.024713,-0.4048 -11.99496237,-1.99912 -16.7033319,-6.70749 -4.9280331,-4.92804 -7.1372461,-10.2762 -7.5171851,-18.19798 -0.414457,-8.64142 1.35653,-14.26782 6.2357737,-19.81094 4.1248428,-4.68606 8.4704965,-7.17209 14.9757639,-8.56722 5.5810944,-1.19693 12.0830274,-0.18364 27.1041844,4.22401 14.184826,4.16224 22.684834,4.23789 42.535965,0.37857 7.745145,-1.50575 15.647765,-2.73773 17.561377,-2.73773 l 3.479286,0 0,27.1201 0,27.1201 16.4499,0 c 15.69038,0 16.44989,0.0797 16.44989,1.72589 0,0.94924 -0.40013,1.97319 -0.88918,2.27544 -0.53067,0.32797 -0.88918,6.08532 -0.88918,14.27941 l 0,13.72987 -5.26238,0 c -2.89431,0 -5.79527,-0.2038 -6.44658,-0.4529 -0.93018,-0.35573 -1.12696,-3.3122 -0.91735,-13.78234 l 0.26685,-13.32945 -8.53636,0 -8.53636,0 0.26686,13.29361 c 0.25409,12.65816 0.18184,13.31638 -1.511518,13.7702 -2.483774,0.66565 -6.257514,0.61585 -6.965268,-0.0919 z M 27.312852,713.24389 c 2.690545,-2.69054 3.252127,-3.93626 3.572331,-7.92422 0.312699,-3.89457 0.0089,-5.28249 -1.717663,-7.84397 -3.978456,-5.90274 -11.763001,-7.89294 -17.408686,-4.45072 -8.4834693,5.17244 -8.4834693,16.96496 0,22.29202 2.240014,1.40658 3.972304,1.74022 7.629801,1.46951 4.009649,-0.29677 5.219045,-0.83744 7.924217,-3.54262 z m 170.515778,21.63865 c -2.44525,-0.91256 -7.99484,-3.14125 -12.33242,-4.95263 -8.47028,-3.53723 -21.59768,-6.63725 -28.18634,-6.6562 -6.89817,-0.0198 -13.30011,2.40034 -17.27817,6.53184 l -3.55674,3.6939 0,-23.34697 c 0,-12.84084 0.0913,-23.34698 0.20298,-23.34698 0.11164,0 5.31336,0.8388 11.55939,1.864 15.92703,2.61421 27.19216,2.04085 41.58865,-2.11676 14.52699,-4.19529 18.58831,-4.65934 25.43241,-2.90597 8.33241,2.13467 13.04701,5.99014 17.45415,14.27352 1.97601,3.71398 2.37337,5.62004 2.41362,11.57778 0.0434,6.42655 -0.2596,7.74561 -3.06396,13.33775 -3.41154,6.80292 -8.24979,11.22972 -14.0271,12.83422 -5.26688,1.46275 -15.21572,1.07502 -20.20647,-0.7875 z m 25.10462,-21.63865 c 2.70517,-2.70517 3.24585,-3.91457 3.54262,-7.92422 0.27071,-3.6575 -0.0629,-5.38979 -1.46951,-7.6298 -3.84778,-6.12767 -11.78349,-8.22779 -17.62713,-4.66489 -8.48347,5.17244 -8.48347,16.96496 0,22.29202 2.24001,1.40658 3.9723,1.74022 7.6298,1.46951 4.00965,-0.29677 5.21905,-0.83744 7.92422,-3.54262 z"
           style="fill:#6f6f6f" />
        <path
           inkscape:connector-curvature="0"
           id="path4565"
           d="m -165.33834,1089.0412 c -1.0136,-1.2886 -1.8429,-2.6825 -1.8429,-3.0975 0,-0.4151 22.40751,-0.8613 49.79445,-0.9916 46.920814,-0.2232 49.794451,-0.1471 49.794282,1.3192 -8.8e-5,0.8558 -0.800434,2.3563 -1.778536,3.3344 -1.732707,1.7327 -2.963942,1.7784 -47.951376,1.7784 l -46.17301,0 -1.84291,-2.3429 z m 4.91785,-16.5523 c 2.11836,-31.5385 7.83364,-53.8583 20.32114,-79.35962 10.88867,-22.23635 22.953,-38.88649 40.618602,-56.05822 30.378985,-29.52964 65.932076,-46.66646 105.8775651,-51.03362 12.4222329,-1.35811 11.3721339,-1.79437 11.3721339,4.72455 0,6.57621 -0.803822,11.38366 -1.800392,10.76774 -1.253491,-0.7747 -18.8805607,1.40788 -29.564911,3.66071 -24.236193,5.11028 -49.231394,16.45103 -68.97232,31.29393 -37.136768,27.9225 -62.072508,69.04143 -69.481828,114.57543 -1.56113,9.5939 -2.41888,26.9115 -1.35508,27.3586 0.49272,0.2072 -0.98148,0.4083 -3.27602,0.4469 l -4.17189,0.07 0.433,-6.4466 z m 59.601,-0.8892 c 4.227815,-61.2318 50.780748,-109.52329 112.469826,-116.66992 6.291277,-0.72887 6.090552,-1.36046 6.106478,19.2141 l 0.01218,15.69275 -6.446581,0.63417 c -21.0731269,2.07286 -41.387487,11.2334 -56.12631,25.3095 -16.087955,15.3646 -24.556807,33.2596 -26.837447,56.7086 l -0.62699,6.4466 -14.528807,0 -14.528809,0 0.50651,-7.3358 z m 308.87374,-73.66109 c -2.20073,-1.43568 -4.72024,-3.21725 -5.5989,-3.959 -0.87866,-0.74176 -1.879,-1.1747 -2.22296,-0.9621 -0.34396,0.2126 -0.62539,-24.54956 -0.62539,-55.02695 0,-43.02374 0.23876,-55.21528 1.06789,-54.52717 0.7455,0.61871 2.22197,0.10467 4.89051,-1.70266 6.05403,-4.10019 6.08686,-4.10014 4.27036,0.006 -0.93581,2.11557 -1.94046,5.63009 -2.23254,7.81004 -1.35432,10.10795 -1.21225,9.74299 -3.45993,8.88842 l -2.06509,-0.78515 -0.63246,15.47516 c -0.34784,8.51134 -0.34878,23.39839 -0.002,33.0824 l 0.63037,17.60726 2.87273,-0.3354 c 2.47631,-0.28908 2.95262,-0.0169 3.45164,1.97114 0.56914,2.26768 0.7131,2.30654 8.53621,2.30654 7.32151,0 8.0484,-0.15987 9.0972,-2.00066 1.01168,-1.77561 1.83988,-2.00067 7.36416,-2.00067 3.42336,0 6.51826,0.40014 6.87756,0.88919 0.3593,0.48905 0.69781,3.49004 0.75224,6.66887 l 0.099,5.7797 1.14278,-4.44592 1.14279,-4.44592 0.17583,8.00265 c 0.0967,4.40146 0.4043,7.40246 0.68355,6.66888 0.27925,-0.73357 0.87032,-1.57127 1.31348,-1.86168 0.44316,-0.29032 1.04817,-2.87669 1.34446,-5.74742 0.64878,-6.28617 1.85564,-4.37122 1.99358,3.16318 0.0777,4.24603 0.23245,4.65621 1.17398,3.11215 0.59644,-0.97811 1.53576,-4.17917 2.08736,-7.11347 l 1.00293,-5.3351 0.10855,7.08172 c 0.10105,6.59134 0.21052,6.97974 1.58106,5.60924 0.80987,-0.80987 1.9654,-4.19668 2.56785,-7.52632 l 1.09535,-6.05383 0.0997,7.9782 c 0.0935,7.48471 0.18524,7.85612 1.48259,6.00386 0.76058,-1.08587 1.78413,-4.46584 2.27455,-7.51111 0.49042,-3.04519 1.06852,-5.71354 1.28466,-5.9297 0.21616,-0.21616 0.4246,3.17483 0.46321,7.53556 0.0386,4.36065 0.29867,7.3283 0.57791,6.59472 0.27925,-0.73357 0.85844,-1.56398 1.28708,-1.84532 0.42865,-0.28143 1.02597,-2.59384 1.32738,-5.13877 0.82587,-6.97325 2.07253,-6.42871 2.07253,0.90519 0,6.06788 0.0855,6.3525 1.36175,4.53048 0.74896,-1.06933 1.7005,-4.25937 2.11453,-7.08902 l 0.75278,-5.1449 0.21378,4.89051 c 0.11758,2.68978 0.15576,5.36053 0.0848,5.93494 -0.0709,0.57441 0.28181,1.2983 0.78383,1.60853 1.15608,0.71455 1.18258,5.85803 0.0456,8.84854 -0.91196,2.39866 -3.10461,3.05648 -3.89763,1.16936 -0.33044,-0.7863 -0.76586,-0.63728 -1.4884,0.50959 -0.97204,1.54274 -1.10393,1.5462 -2.7333,0.072 -1.62799,-1.47338 -1.76812,-1.47258 -2.85611,0.0151 -1.04914,1.43479 -1.24308,1.44537 -2.33631,0.12813 -1.07808,-1.299 -1.33798,-1.30452 -2.71557,-0.0578 -1.37615,1.24539 -1.63396,1.24539 -2.66755,0 -1.03358,-1.24539 -1.29139,-1.24539 -2.66755,0 -1.36959,1.23943 -1.63783,1.24076 -2.65712,0.0125 -1.01684,-1.22521 -1.24246,-1.21739 -2.18832,0.0765 -0.96631,1.3215 -1.18797,1.30887 -2.64758,-0.15072 -1.47287,-1.47284 -1.6554,-1.48147 -2.42094,-0.11346 -0.66086,1.18084 -1.15434,1.27562 -2.44495,0.46967 -1.34338,-0.83895 -2.90036,-0.23466 -9.20176,3.57158 -7.23959,4.37291 -7.86242,4.57831 -13.68557,4.51221 -5.18054,-0.059 -6.70437,-0.4629 -10.10212,-2.67951 z M 26.748007,937.9999 c -0.02276,-38.46204 0.25091,-55.53092 0.873187,-54.46253 0.498477,0.85584 1.786744,1.54729 2.862807,1.53655 2.534191,-0.0253 9.056558,-2.99724 13.045987,-5.94448 1.725585,-1.27479 2.637265,-1.77484 2.025951,-1.1112 -1.236463,1.34227 -1.532472,9.37761 -0.371874,10.0949 1.120149,0.69229 15.285226,2.3138 27.269679,3.12161 9.020581,0.60803 6.526483,0.73878 -16.132468,0.8457 -23.544888,0.11109 -26.868274,0.29742 -27.342396,1.53297 -0.706714,1.84165 -0.703442,56.70754 0.0036,58.54975 0.491398,1.2806 8.231475,1.41291 81.138,1.38739 l 80.59479,-0.0285 0.24033,18.24738 0.24034,18.24738 -81.24246,0 -81.242459,0 -0.964889,2.00066 c -0.705042,1.46191 -0.973807,-13.08478 -0.99802,-54.0179 z M 243.41143,918.88242 c -0.36011,-1.22263 -0.7153,-8.22495 -0.78932,-15.56071 -0.11601,-11.49667 -0.26099,-12.75474 -1.05035,-9.11413 l -0.91577,4.22362 -6.40496,0 -6.40496,0 -0.59486,-6.03681 c -0.32961,-3.34507 -1.55202,-8.10278 -2.74153,-10.6702 -1.18067,-2.54837 -1.78847,-4.6334 -1.35066,-4.6334 0.43781,0 4.61722,2.44498 9.28758,5.43329 5.56348,3.55976 9.00634,5.23573 9.98448,4.86039 0.82111,-0.31509 1.77139,-0.12232 2.11173,0.42836 0.44862,0.72588 1.14817,0.67302 2.54348,-0.19217 1.61023,-0.99846 2.04603,-0.99846 2.66755,0 0.62152,0.99845 1.05732,0.99845 2.66755,0 1.61023,-0.99846 2.04604,-0.99846 2.66755,0 0.62152,0.99845 1.05733,0.99845 2.66755,0 1.6273,-1.00905 2.04739,-0.9962 2.71895,0.0831 0.65829,1.05803 1.03425,1.07745 2.19582,0.11342 1.12127,-0.93056 1.66829,-0.94181 2.73533,-0.0563 1.06704,0.88557 1.61406,0.87432 2.73532,-0.0563 1.13399,-0.94113 1.53561,-0.94627 2.10379,-0.0269 0.56869,0.92015 1.05545,0.91568 2.55934,-0.0236 1.02141,-0.63787 2.05873,-0.95814 2.30517,-0.7117 1.19828,1.19827 0.95051,32.829 -0.25716,32.829 -0.42853,0 -0.95044,-6.03003 -1.15981,-13.40006 -0.29604,-10.42058 -0.66649,-13.57713 -1.66611,-14.19641 -1.09535,-0.67858 -1.35119,1.40158 -1.73003,14.06695 -0.53933,18.03025 -1.75135,16.79656 -1.84857,-1.88163 -0.0386,-7.41802 -0.27758,-12.97045 -0.53106,-12.33873 -0.35389,0.882 -0.75036,0.90833 -1.70817,0.11342 -1.06125,-0.88075 -1.263,1.20274 -1.3525,13.96754 -0.12582,17.94154 -1.3678,15.54428 -1.67112,-3.22557 -0.11458,-7.09124 -0.38706,-12.21511 -0.60549,-11.38638 -0.2381,0.90334 -0.92754,1.30327 -1.72147,0.99861 -1.132,-0.4344 -1.31066,1.09005 -1.23027,10.49718 0.0518,6.05296 0.0162,12.60592 -0.079,14.56212 -0.31886,6.55559 -1.50541,-5.12507 -1.71618,-16.89449 -0.1051,-5.86861 -0.38526,-9.91189 -0.62258,-8.98507 -0.34671,1.35398 -0.58587,1.44135 -1.21701,0.44459 -0.4736,-0.74793 -0.79092,4.47625 -0.79914,13.15621 -0.007,7.91822 -0.35376,14.60699 -0.7695,14.86393 -0.73366,0.45343 -1.83947,-12.84922 -1.98186,-23.8416 -0.0386,-2.98049 -0.28711,-4.87364 -0.55223,-4.20699 -0.40696,1.02334 -0.60162,1.02334 -1.24996,0 -0.44964,-0.7097 -0.77357,4.77687 -0.78155,13.23714 -0.009,9.03096 -0.34705,14.44924 -0.9028,14.44924 -0.55262,0 -0.88918,-4.96741 -0.88918,-13.12386 0,-12.10741 -0.13607,-13.20885 -1.75689,-14.22107 -1.72013,-1.07423 -1.762,-0.78564 -2.00067,13.79076 -0.13455,8.21727 -0.53713,13.89192 -0.89852,12.66498 z M 94.40855,892.43208 c 6.20654,-0.15264 16.60999,-0.15304 23.11877,-8.9e-4 6.5088,0.15213 1.43073,0.27702 -11.2846,0.27753 -12.715325,5e-4 -18.040699,-0.12397 -11.83417,-0.2766 z m 41.17723,-0.73262 c 0.57374,-0.24567 0.80176,-10.47524 0.64276,-28.83511 -0.18702,-21.59397 0.01,-28.45437 0.81508,-28.45437 0.58383,0 0.76374,-0.29777 0.3998,-0.66171 -0.36394,-0.36396 -18.53663,-0.88954 -40.38376,-1.16799 l -39.722038,-0.50626 53.351018,-0.0164 c 29.34306,-0.009 51.85052,0.14063 50.01658,0.33248 -3.12542,0.32692 -3.33444,0.53687 -3.33444,3.34912 0,9.45324 5.93585,26.60103 12.00568,34.68262 6.13321,8.16599 14.92305,14.67153 19.82314,14.67153 1.84539,0 2.03786,0.35822 1.79154,3.33444 l -0.27597,3.33447 -28.00929,0.15893 c -15.40511,0.0874 -27.60915,-0.0124 -27.1201,-0.22179 z M 54.716024,824.45207 c -0.679265,-1.61439 -2.040507,-4.80527 -3.024985,-7.09084 l -1.789953,-4.1556 3.173354,2.1535 c 3.345331,2.2702 7.000641,3.45002 13.59961,4.3895 3.700115,0.52678 4.001326,0.76538 4.001326,3.16958 0,2.59935 -8.89e-4,2.59993 -5.615852,2.59993 -3.088722,0 -6.401695,0.42057 -7.362165,0.9346 -1.507193,0.80663 -1.915417,0.53269 -2.981335,-2.00067 z m 108.538016,1.81759 c -1.05691,-0.61388 -3.80677,-0.75435 -7.45353,-0.38073 -3.17831,0.32563 -9.12688,0.32039 -13.21903,-0.0116 l -7.44029,-0.6037 0,-3.33219 c 0,-2.57314 0.50638,-3.66398 2.22296,-4.78872 2.17186,-1.42306 2.22296,-1.70814 2.22296,-12.40058 0,-10.76362 -0.0366,-10.96367 -2.22296,-12.13374 -2.12979,-1.13983 -2.22296,-1.54097 -2.22296,-9.57117 l 0,-8.38148 4.22362,2.41724 c 9.68574,5.54332 29.26554,17.74884 31.12143,19.40026 1.75322,1.56007 2.00066,2.64235 2.00066,8.75078 0,3.83379 -0.40069,7.66534 -0.89043,8.51455 -0.48973,0.8492 -2.07353,4.2449 -3.51955,7.54599 -1.446,3.30109 -2.74588,5.98983 -2.8886,5.97495 -0.14271,-0.0148 -1.01314,-0.46479 -1.93428,-0.99981 z M 60.894357,790.22724 c 6.76129,-4.28644 11.480187,-6.71749 10.342966,-5.32844 -0.66904,0.81719 -1.019458,2.23901 -0.778712,3.15961 0.376018,1.4379 -0.225177,1.75174 -4.265325,2.22658 -2.58667,0.30401 -5.437304,0.79589 -6.334757,1.09306 -0.897444,0.29718 -0.431325,-0.22068 1.035828,-1.15081 z m 31.566018,-32.28705 c 0,-12.15218 -0.158079,-13.49584 -1.778367,-15.11612 -0.978102,-0.97811 -2.163082,-1.77837 -2.633282,-1.77837 -0.4702,0 -1.312035,-1.70057 -1.870744,-3.77903 -1.339413,-4.98276 -6.407164,-9.77673 -12.049079,-11.39814 -2.388489,-0.68643 -7.743838,-1.21973 -11.900771,-1.18514 -11.385454,0.0948 -20.05599,2.20607 -33.211506,8.08706 -13.63909,6.09716 -26.0486432,4.95167 -34.3674983,-3.17237 -5.8727737,-5.73523 -8.3102837,-12.44653 -7.7913377,-21.45218 0.779342,-13.52429 8.5535725,-22.34341 21.9328962,-24.88075 5.3296248,-1.01073 14.6519058,0.61337 28.5403048,4.97224 10.383424,3.25883 22.55464,3.28304 38.679487,0.0769 6.357663,-1.26409 13.359984,-2.55149 15.560713,-2.8609 l 4.001327,-0.56254 -0.247451,27.18822 -0.247442,27.18822 17.836725,0 c 15.37462,0 17.91055,0.19236 18.37149,1.39355 0.29412,0.76645 0.0814,1.84681 -0.4725,2.4008 -0.66244,0.66243 -1.00725,5.66453 -1.00725,14.61176 l 0,13.6045 -4.37319,0 c -7.49218,0 -7.1862,0.60982 -7.1862,-14.32207 l 0,-13.24262 -9.78102,0 -9.78102,0 0,13.23405 c 0,12.97255 -0.03957,13.24464 -2.000663,13.7702 -4.276804,1.14614 -4.223622,1.30704 -4.223622,-12.77731 z M 26.660787,720.27976 c 7.149703,-3.65048 10.919646,-11.56535 9.390686,-19.71542 -1.245453,-6.63881 -11.414797,-14.64803 -18.59868,-14.64803 -8.8338437,0 -17.42846143,8.98904 -17.42846143,18.22827 0,3.80122 2.27960893,9.36475 5.21774723,12.73426 4.8213672,5.52924 14.3019232,7.03459 21.4187082,3.40092 z m 171.612443,14.60172 c -2.68978,-0.89248 -7.5283,-2.84698 -10.75225,-4.34336 -14.58786,-6.77087 -34.31028,-9.00457 -42.56443,-4.82072 -2.18184,1.10592 -3.48227,1.52606 -2.88985,0.93364 1.56405,-1.56404 1.53175,-37.71019 -0.0343,-38.42946 -0.61131,-0.28076 -0.31121,-0.34562 0.66689,-0.14412 16.00691,3.29759 32.98468,2.86548 46.56734,-1.1852 16.67027,-4.97146 23.78841,-5.17731 32.18606,-0.93078 4.16245,2.10487 9.47104,8.05696 11.71964,13.1403 2.08484,4.71311 2.47682,13.72302 0.84202,19.35386 -2.29449,7.90299 -9.42212,15.14586 -16.96748,17.24176 -4.89104,1.35861 -13.32453,0.99208 -18.77361,-0.81592 z m 24.49933,-14.85483 c 4.40939,-2.27824 8.38185,-7.81281 9.01941,-12.56616 0.82285,-6.13482 -0.38463,-9.81047 -4.75917,-14.4872 -7.02248,-7.50761 -16.14152,-8.94068 -23.49654,-3.69253 -11.23105,8.01389 -9.91386,25.02064 2.42908,31.36257 4.32954,2.22457 11.84164,1.94894 16.80722,-0.61668 z"
           style="fill:#515151" />
        <path
           inkscape:connector-curvature="0"
           id="path4563"
           d="m -164.82047,1089.7579 c -0.80938,-0.8943 -1.47159,-1.9947 -1.47159,-2.4452 0,-0.4896 19.81047,-0.8191 49.23648,-0.8191 43.375481,0 49.18225,0.1587 48.780846,1.3337 -1.20447,3.5259 -1.631065,3.5568 -49.144356,3.5568 -43.36678,0 -46.01191,-0.091 -47.40138,-1.6262 z m 5.06832,-18.3805 c -0.003,-4.4014 0.14765,-6.3141 0.33413,-4.2504 0.18648,2.0637 0.1887,5.6649 0.005,8.0026 -0.18377,2.3378 -0.33636,0.6493 -0.33906,-3.7522 z m 62.788645,5.1128 c 0.422896,-1.3448 0.982726,-5.6463 1.244074,-9.5587 0.591139,-8.8495 4.766309,-25.2421 8.861026,-34.7904 11.465347,-26.7352 33.019274,-49.2136 58.757814,-61.27787 13.424308,-6.2923 25.2420826,-9.6126 40.651866,-11.42129 4.030234,-0.47305 4.13056,-0.42441 4.668214,2.26386 0.302207,1.51099 0.549462,8.49917 0.549462,15.52932 l 0,12.78202 -2.889847,0 c -9.1714753,0.009 -28.146076,5.22235 -38.901783,10.68836 -27.130611,13.7878 -45.138909,40.6634 -47.682338,71.1613 l -0.589262,7.0659 -12.71907,0 -12.71906,0 0.768904,-2.4453 z m -61.972905,-18.0059 c 0,-2.2008 0.17341,-3.1011 0.38534,-2.0007 0.21195,1.1004 0.21195,2.901 0,4.0013 -0.21193,1.1004 -0.38534,0.2001 -0.38534,-2.0006 z m 0.85329,-7.1135 c 0,-1.7117 0.183,-2.4119 0.40666,-1.5561 0.22364,0.8559 0.22364,2.2563 0,3.1122 -0.22366,0.8558 -0.40666,0.1556 -0.40666,-1.5561 z m 0.85624,-5.7797 c 0.0181,-1.4671 0.21741,-1.9597 0.44285,-1.0946 0.22545,0.8652 0.21062,2.0656 -0.0329,2.6676 -0.24357,0.602 -0.42802,-0.1058 -0.4099,-1.573 z m 0.78604,-4.5201 c 0.0427,-1.0358 0.25337,-1.2465 0.53721,-0.5371 0.25686,0.6418 0.22528,1.4088 -0.0702,1.7042 -0.29547,0.2955 -0.50563,-0.2297 -0.46702,-1.1671 z m 0.95938,-3.9271 c 0,-1.2227 0.20183,-1.7228 0.44849,-1.1115 0.24667,0.6113 0.24667,1.6116 0,2.2229 -0.24666,0.6114 -0.44849,0.1112 -0.44849,-1.1114 z m 0.81899,-4.0755 c 0.0427,-1.0358 0.25336,-1.2466 0.53721,-0.5372 0.25686,0.6418 0.22527,1.4089 -0.0702,1.7042 -0.29546,0.2955 -0.50562,-0.2296 -0.46701,-1.167 z m 0.85905,-2.6288 c -0.0918,-2.1175 5.77683,-19.2671 9.8087,-28.6635 19.67581,-45.85515 56.25164,-83.18255 100.09772,-102.15445 16.687024,-7.22036 34.8366137,-12.03628 49.7371437,-13.19754 3.8710609,-0.30168 7.9385963,-0.73213 9.0389603,-0.95653 1.893828,-0.38623 2.000663,-0.12938 2.000663,4.81005 l 0,5.21807 -9.1141317,0.55636 c -31.5959213,1.92873 -70.9380553,17.34167 -96.9975553,38.00041 -17.8359,14.13952 -36.46407,35.45476 -46.18957,52.85253 -5.37646,9.61785 -9.98788,20.1083 -14.07115,32.0106 -2.3489,6.8467 -4.28875,12.0325 -4.31078,11.524 z m 361.2092,-33.12449 c -3.04644,-1.81313 -5.54727,-3.82046 -5.5574,-4.46059 -0.0101,-0.64021 -0.41855,-0.91666 -0.9076,-0.61442 -0.58911,0.36403 -0.88919,-17.94017 -0.88919,-54.2402 0,-34.88887 0.31096,-54.59759 0.85611,-54.26067 0.47086,0.291 2.37149,-0.41378 4.22362,-1.56619 1.85214,-1.15241 3.80286,-2.35078 4.33494,-2.66304 0.53209,-0.31225 0.166,1.91665 -0.81352,4.95311 -0.97954,3.03647 -1.92002,6.06671 -2.08998,6.73387 -0.19063,0.74834 -1.10931,1.06003 -2.39817,0.81366 -2.03553,-0.38913 -2.10374,-0.19421 -2.65649,7.59311 -0.73601,10.36899 -0.72296,45.3356 0.0218,58.26042 l 0.58098,10.08334 3.36382,-0.32073 3.36381,-0.32081 -0.50188,5.35359 -0.50188,5.3536 8.68725,-0.28641 c 6.45869,-0.21287 8.89728,0.0151 9.50604,0.88919 0.51112,0.73384 0.60266,-1.07992 0.24361,-4.8264 l -0.57523,-6.00199 7.08912,0 c 8.12015,0 8.10963,-0.01 8.27375,7.85309 0.0871,4.17241 0.22206,4.58081 0.78399,2.37252 0.52449,-2.06122 0.70268,-1.30337 0.78398,3.33444 0.15556,8.87512 2.84183,7.57575 4.27779,-2.06922 l 0.71788,-4.82195 0.44459,7.11346 c 0.41926,6.70818 0.51704,6.98676 1.71626,4.89051 0.69941,-1.22262 1.75877,-4.42368 2.35414,-7.11346 l 1.08247,-4.89051 0.0911,7.08901 c 0.0848,6.59721 0.18454,6.95564 1.43773,5.16643 0.74064,-1.05742 1.74379,-4.01689 2.22923,-6.57658 1.28977,-6.80093 1.75925,-6.41226 1.75925,1.4563 0,6.33259 0.12219,6.82537 1.30451,5.26103 0.71749,-0.94929 1.57977,-3.70558 1.91619,-6.12496 0.53521,-3.84919 0.70978,-4.13373 1.39669,-2.27684 0.43176,1.16723 0.57053,3.14673 0.30835,4.39897 -0.26217,1.25223 -0.12726,2.81969 0.29979,3.48319 1.09738,1.7051 2.01737,0.0285 3.34583,-6.09686 l 1.06062,-4.89051 0.0745,6.63713 c 0.0694,6.18543 0.17503,6.53657 1.55137,5.1602 0.81226,-0.81218 1.97345,-3.99901 2.58044,-7.08163 l 1.10359,-5.60488 0.0871,5.89084 c 0.0479,3.23992 0.33596,7.13507 0.64011,8.65584 0.42599,2.12995 0.20114,2.89999 -0.97892,3.35285 -0.88519,0.33967 -1.84082,0.088 -2.2636,-0.59602 -0.60342,-0.97633 -0.97736,-0.97997 -2.13321,-0.0204 -1.15447,0.95809 -1.64864,0.95809 -2.8031,0 -1.16158,-0.96406 -1.53753,-0.94458 -2.19582,0.11337 -0.67157,1.07938 -1.09165,1.09227 -2.71896,0.0827 -1.61022,-0.99837 -2.04603,-0.99837 -2.66755,0 -0.56428,0.90652 -1.12465,0.95712 -2.33079,0.21038 -1.15975,-0.7181 -2.01302,-0.7181 -3.16459,0 -1.21079,0.75492 -1.76142,0.68681 -2.37277,-0.29352 -0.6598,-1.05804 -1.03608,-1.07742 -2.19765,-0.11337 -1.15446,0.9581 -1.64863,0.9581 -2.8031,0 -1.16156,-0.96405 -1.53785,-0.94467 -2.19764,0.11337 -0.60722,0.97375 -1.16584,1.04613 -2.35456,0.30499 -1.26755,-0.7903 -3.02087,-0.0845 -9.39301,3.77903 -7.28437,4.41711 -8.2226,4.74801 -13.36067,4.71301 -4.74888,-0.033 -6.30519,-0.5015 -11.06511,-3.3345 z M 26.687827,938.11327 c -0.0241,-48.94142 0.121063,-54.89303 1.314258,-53.90277 0.83176,0.6903 2.562565,0.91501 4.556097,0.5915 3.939528,-0.6393 3.330064,0.26555 -0.739463,1.09786 l -2.934973,0.60026 0,35.76713 0,35.76711 80.915714,0.20834 80.91571,0.20842 0.2428,15.78301 0.24282,15.78301 -81.33664,0 c -76.525398,0 -81.390237,0.092 -82.242956,1.55607 -0.622855,1.06933 -0.914783,-15.6515 -0.933367,-53.45994 z M 263.7587,908.52265 c -0.86917,-10.28223 -0.70423,-21.65084 0.31411,-21.65084 0.55574,0 0.88919,5.3351 0.88919,14.22694 0,7.82482 -0.14136,14.22694 -0.31412,14.22694 -0.17276,0 -0.5729,-3.06136 -0.88918,-6.80304 z m -10.20662,-6.23969 c -0.0822,-6.92899 -0.39234,-13.23107 -0.6892,-14.00465 -0.32866,-0.85651 -0.0679,-1.40697 0.66689,-1.40771 0.96359,-8.9e-4 1.15789,2.19292 0.96467,10.8925 -0.36835,16.58484 -0.77601,18.54011 -0.94236,4.51986 z m 4.87569,-1.02247 c -0.69007,-12.45678 -0.52249,-15.51751 0.77836,-14.21665 0.25764,0.25763 0.35767,6.62641 0.2223,14.15284 l -0.24613,13.68442 -0.75453,-13.62061 z m -15.1241,6.82129 c -0.88349,-8.45281 -0.69227,-21.20997 0.31792,-21.20997 0.55327,0 0.88918,5.03871 0.88918,13.33776 0,7.33576 -0.14306,13.33775 -0.31791,13.33775 -0.17486,0 -0.575,-2.45949 -0.88919,-5.46554 z m 30.67125,-7.64992 c -0.0666,-7.45803 0.19374,-13.56005 0.57852,-13.56005 0.38479,0 0.56674,5.30176 0.40433,11.78168 -0.42093,16.79576 -0.84194,17.55752 -0.98285,1.77837 z m -25.90741,-0.96328 c 0,-7.0374 0.35956,-12.59677 0.8147,-12.59677 0.7517,0 0.27921,23.94619 -0.48978,24.82305 -0.17871,0.20376 -0.32492,-5.29806 -0.32492,-12.22628 z m 20.99095,10.00469 c -0.83585,-2.17818 -0.63669,-22.60146 0.22039,-22.60146 0.41806,0 0.78895,5.40179 0.82418,12.00398 0.0352,6.60219 -0.0639,12.00398 -0.22039,12.00398 -0.15645,0 -0.52734,-0.63292 -0.82418,-1.4065 z m -42.2595,-22.17285 c -0.54794,-2.45405 -1.81487,-5.80804 -2.81543,-7.45332 -1.65133,-2.71539 -1.6727,-2.93519 -0.23166,-2.38222 0.87313,0.33505 5.10081,2.86791 9.39484,5.62857 10.07918,6.47997 10.29805,7.97303 1.22791,8.37633 l -6.57942,0.29254 -0.99624,-4.4619 z m -80.7894,-25.32619 c 0.13553,-15.64988 0.24642,-28.51969 0.24642,-28.59957 0,-0.0798 -19.80656,-0.39832 -44.01459,-0.70764 l -44.014584,-0.56242 52.906424,-0.0258 c 29.09854,-0.0141 51.20482,0.12749 49.12508,0.31475 l -3.78135,0.34049 0.5322,3.72779 c 2.14764,15.04349 7.69875,29.19885 14.60022,37.2307 4.59023,5.34203 13.61621,11.40086 16.98415,11.40086 1.41143,0 2.56623,0.3541 2.56623,0.78689 0,1.43091 -25.6539,4.52975 -37.59214,4.54092 l -7.80449,0.007 0.24643,-28.45432 z m -90.817831,-36.6426 c -0.437425,-1.12005 -1.634044,-3.97025 -2.659148,-6.33379 -2.36402,-5.45058 -2.353732,-5.50902 0.599523,-3.40612 1.354849,0.96474 4.581501,2.44688 7.17035,3.29365 3.19096,1.04371 4.415686,1.83089 3.802549,2.44402 -0.601106,0.60111 -0.609695,1.45522 -0.02561,2.54661 0.766725,1.43263 0.527072,1.64214 -1.878445,1.64214 -1.516512,0 -3.53503,0.41624 -4.485603,0.92497 -1.429211,0.76488 -1.86596,0.57252 -2.523627,-1.11148 z m 108.895811,1.15317 c -0.38314,-0.61993 -4.96404,-0.96666 -12.77123,-0.96666 l -12.17379,0 0,-4.49149 c 0,-4.07754 0.1639,-4.44205 1.77836,-3.95499 0.9781,0.29509 3.27887,0.76841 5.11281,1.05184 l 3.33444,0.51533 0,-13.38074 c 0,-9.87259 0.2914,-13.49831 1.11148,-13.82922 2.47999,-1.0007 -1.77483,-0.50907 -6.44658,0.74489 -2.68979,0.72196 -4.89051,1.31835 -4.89051,1.32531 0,0.007 0.13118,-3.21087 0.2915,-7.15071 0.20349,-5.00052 -0.065,-7.60736 -0.88919,-8.63391 -1.39456,-1.73693 4.9821,1.74877 19.02097,10.39754 15.62218,9.62418 14.9211,8.85261 14.9211,16.4214 0,5.42896 -0.50642,7.62553 -3.21322,13.93701 -3.54818,8.27338 -4.30411,9.44156 -5.18614,8.0144 z M 62.226789,789.61606 c 1.22189,-0.71397 2.388943,-1.13079 2.593456,-0.92628 0.552076,0.55208 -0.115719,0.97258 -2.592113,1.63224 l -2.222959,0.59215 2.221616,-1.29811 z m 30.233586,-32.10595 c 0,-11.9699 -0.186568,-13.69008 -1.626086,-14.99282 -0.894349,-0.80938 -2.000823,-1.47159 -2.458841,-1.47159 -0.458019,0 -1.529396,-1.96143 -2.380834,-4.35872 -2.756247,-7.76038 -8.225731,-11.07971 -20.207071,-12.26327 -3.177364,-0.31387 -5.26242,-0.74221 -4.633465,-0.95186 0.881813,-0.29394 1.116797,-4.07595 1.026652,-16.52311 l -0.11691,-16.14192 2.082815,-0.25213 c 1.145553,-0.13867 6.925495,-1.23904 12.84431,-2.44526 5.918816,-1.20621 11.620706,-2.19312 12.670867,-2.19312 l 1.909379,0 0,26.67551 0,26.67551 19.589939,0 c 17.35859,0 19.65387,0.16657 20.15111,1.46236 0.3324,0.86623 -0.0414,1.903 -0.91709,2.54328 -1.26062,0.92179 -1.47825,2.98024 -1.47825,13.98201 l 0,12.90109 -3.04762,0.49456 c -6.38866,1.03674 -6.31976,1.19315 -6.02168,-13.6699 l 0.26713,-13.31972 -11.69623,0.24841 -11.696241,0.24842 0.131759,13.0042 0.131759,13.00421 -2.262696,0.43254 -2.262706,0.43255 0,-13.52123 z m 81.360305,-31.82225 c -4.32135,-1.23519 -9.14927,-1.81001 -15.79154,-1.88018 -6.49098,-0.0685 -8.99269,-0.35918 -7.78036,-0.90383 1.68993,-0.75921 1.7869,-1.6374 1.7869,-16.18341 0,-13.69151 -0.17089,-15.48558 -1.55607,-16.33601 -1.20519,-0.73994 -0.65379,-0.85729 2.44525,-0.52042 2.20073,0.23922 6.20206,0.65884 8.89184,0.93246 4.52766,0.46061 16.69003,-0.62521 20.87338,-1.86349 1.65787,-0.49074 1.67934,-0.43753 0.27048,0.6704 -1.37174,1.07873 -1.50996,3.1156 -1.33378,19.65426 0.12677,11.90091 -0.1191,18.40795 -0.69263,18.33008 -0.48906,-0.0664 -3.69012,-0.92135 -7.11347,-1.89986 z"
           style="fill:#313131" />
        <path
           inkscape:connector-curvature="0"
           id="path4561"
           d="m -164.12145,1090.0872 c -1.51957,-1.1417 3.99712,-1.2992 46.12424,-1.3164 26.317652,-0.011 48.324946,-0.2578 48.905103,-0.5492 0.580166,-0.2914 0.110214,0.301 -1.044328,1.3163 -2.065858,1.8168 -2.814595,1.8462 -47.179075,1.8462 -38.1189,0 -45.34644,-0.2003 -46.80594,-1.2969 z m 72.29852,-11.7406 c 0.669795,-0.2703 1.111479,-2.1236 1.111479,-4.6636 0,-2.3184 0.633908,-7.9869 1.408681,-12.5968 8.49951,-50.572 47.192842,-88.26338 97.9575889,-95.42104 l 8.2249481,-1.15968 0,12.6281 0,12.62819 -6.082967,0.56534 c -13.8906664,1.291 -32.949419,8.06685 -44.314369,15.75479 -15.714026,10.63 -27.759796,26.3013 -33.786069,43.9551 -2.428681,7.1147 -4.734957,19.2983 -4.734957,25.0137 l 0,3.8848 -10.447907,-0.07 c -5.746349,-0.038 -9.947742,-0.272 -9.336428,-0.5188 z m 332.79058,-88.55176 c 0.007,-1.58941 0.4015,-3.49004 0.87557,-4.22362 0.62342,-0.96467 0.86572,-0.16494 0.87557,2.88985 0.007,2.32299 -0.38652,4.22362 -0.87557,4.22362 -0.48905,0 -0.88305,-1.30043 -0.87557,-2.88985 z m 5.02515,2.22296 c -0.22071,-0.36679 -0.11479,-2.26742 0.2354,-4.22362 l 0.63669,-3.55673 0.38541,4.22362 c 0.34797,3.81308 -0.18912,5.33216 -1.2575,3.55673 z m 5.10542,-0.55849 c -0.25861,-0.67392 -0.10702,-2.57455 0.33687,-4.22363 l 0.80706,-2.99823 0.36435,4.22362 c 0.34521,4.00186 -0.48776,5.65769 -1.50828,2.99824 z m 5.07714,-0.77528 c 0.0579,-1.10037 0.38759,-3.20106 0.73271,-4.66822 0.55273,-2.34975 0.67263,-2.11128 1.00628,2.0012 0.27132,3.3444 0.0635,4.66857 -0.73271,4.66821 -0.61131,-2.6e-4 -1.06414,-0.90083 -1.00628,-2.00119 z m 4.8843,1.27162 c -0.2478,-0.40094 0.10195,-2.50163 0.77723,-4.66822 l 1.22778,-3.93917 0.0595,4.66822 c 0.0534,4.19676 -0.84534,5.91173 -2.06448,3.93917 z m 5.42754,0.17944 c -0.7142,-0.7142 0.2471,-5.85812 1.30973,-7.00846 0.50984,-0.55192 0.73949,0.71286 0.60545,3.33444 -0.20506,4.01048 -0.67575,4.91345 -1.91518,3.67402 z m 5.12004,-0.56188 c -0.22682,-0.61131 -0.0753,-2.31188 0.3367,-3.77903 0.74011,-2.63554 0.75369,-2.6222 1.1307,1.11148 0.35666,3.5321 -0.54108,5.16402 -1.4674,2.66755 z m -70.34663,-13.11546 c -0.005,-7.09124 0.14403,-11.1926 0.33124,-9.11413 0.31637,3.51254 0.52482,3.77903 2.95679,3.77903 2.26443,0 2.61479,0.32891 2.60428,2.44525 -0.0226,4.53849 -0.95703,6.44659 -3.15724,6.44659 -1.86624,0 -2.10533,0.46513 -2.39936,4.66821 -0.17962,2.56752 -0.33069,-1.13371 -0.33571,-8.22495 z M 27.722179,968.45444 c 0.117986,-14.7737 0.327949,-18.76311 0.666888,-12.67087 l 0.494679,8.89184 80.471114,0 c 52.61912,0 80.69722,0.30774 81.1244,0.88918 0.3593,0.48905 0.6594,6.19094 0.66688,12.67087 l 0.0136,11.78168 -81.8049,0 -81.804888,0 0.172208,-21.5627 z m 205.896091,13.74171 c -5.1267,-0.22461 -6.00198,-0.50017 -6.00198,-1.88952 0,-0.89461 -0.25364,-2.89483 -0.56365,-4.44485 l -0.56365,-2.81827 7.01023,0.26187 7.01023,0.26186 0.27506,3.31906 c 0.41845,5.0494 -0.33678,5.60897 -7.16624,5.30985 z m -33.30022,-50.86516 c 0,-2.68978 0.16669,-3.79014 0.37042,-2.44525 0.20374,1.34489 0.20374,3.54562 0,4.89051 -0.20373,1.34489 -0.37042,0.24452 -0.37042,-2.44526 z m 73.86054,-36.01193 c 0.003,-4.89051 0.15163,-6.77773 0.33182,-4.19382 0.18019,2.58391 0.1783,6.58524 -0.004,8.89184 -0.18226,2.30659 -0.32968,0.19249 -0.32737,-4.69802 z m -20.45543,-0.4446 c 0,-4.64598 0.14986,-6.54661 0.33304,-4.22362 0.18317,2.32299 0.18317,6.12425 0,8.44725 -0.18318,2.32299 -0.33304,0.42236 -0.33304,-4.22363 z m -225.8625,-2.66755 c 0,-4.15693 0.153171,-5.85749 0.34038,-3.77903 0.1872,2.07847 0.1872,5.4796 0,7.55806 -0.187209,2.07847 -0.34038,0.37791 -0.34038,-3.77903 z m 220.32794,1.11148 c -0.0666,-3.54562 0.17901,-6.44683 0.5458,-6.44713 0.36678,-3e-4 0.55134,2.10039 0.41012,4.66821 -0.43045,7.82711 -0.8284,8.56768 -0.95592,1.77892 z m -5.45619,-2.29705 c 0,-2.28224 0.36205,-4.14953 0.80457,-4.14953 0.72467,0 0.29685,7.03274 -0.48232,7.92856 -0.17724,0.20376 -0.32225,-1.4968 -0.32225,-3.77903 z m 25.78632,0 c 0,-2.28224 0.36206,-4.14953 0.80457,-4.14953 0.72468,0 0.29685,7.03274 -0.48232,7.92856 -0.17723,0.20376 -0.32225,-1.4968 -0.32225,-3.77903 z m -9.53884,-0.59279 c 0,-2.20073 0.17341,-3.10103 0.38535,-2.00067 0.21194,1.10037 0.21194,2.90096 0,4.00133 -0.21194,1.10036 -0.38535,0.20007 -0.38535,-2.00066 z m -100.27534,-21.65725 0,-20.98989 1.93141,5.73075 c 3.20412,9.50704 7.42569,16.5513 13.59763,22.68945 5.13393,5.10583 7.77178,6.79455 14.70321,9.41283 2.09479,0.79128 -8.65067,2.52322 -21.785,3.51128 l -8.44725,0.63547 0,-20.98989 z m 105.04671,19.43429 c -0.2815,-0.73358 -0.12424,-1.33378 0.34946,-1.33378 0.4737,0 0.86128,0.6002 0.86128,1.33378 0,0.73357 -0.15726,1.33377 -0.34946,1.33377 -0.19221,0 -0.57978,-0.6002 -0.86128,-1.33377 z m -62.73639,-3.40038 c 0.20378,-0.15854 2.45954,-1.54813 5.0128,-3.08799 l 4.64231,-2.79974 -1.47479,3.09267 c -0.95839,2.00975 -1.7054,2.71954 -2.13337,2.02706 -0.51082,-0.82652 -1.18103,-0.82757 -2.98706,-0.004 -2.17379,0.99045 -3.90012,1.42638 -3.05989,0.77269 z m 31.6339,-0.71712 c -0.90001,-0.52321 -2.76227,-0.78604 -4.13834,-0.58407 -2.13069,0.31272 -2.71817,-0.0862 -3.95912,-2.68851 -0.80144,-1.68064 -1.31791,-3.19497 -1.1477,-3.36517 0.29672,-0.29672 9.08931,5.27965 10.83709,6.87301 1.13585,1.03549 0.40933,0.92813 -1.59193,-0.23526 z m -75.1376,-39.00791 c 0,-1.22263 0.20183,-1.72279 0.4485,-1.11148 0.24667,0.61132 0.24667,1.61165 0,2.22296 -0.24667,0.61132 -0.4485,0.11115 -0.4485,-1.11148 z m -0.85623,-5.77969 c 0.0181,-1.46715 0.21741,-1.95971 0.44285,-1.09456 0.22544,0.86515 0.21062,2.06555 -0.033,2.66755 -0.24357,0.602 -0.42802,-0.10584 -0.4099,-1.57299 z M 53.691987,821.34287 c -1.418257,-3.27449 -2.736996,-6.3504 -2.930536,-6.83535 -0.193539,-0.48494 0.783006,0.011 2.170097,1.10208 1.76342,1.38711 2.554198,2.84128 2.629094,4.83469 0.05895,1.56799 0.409771,3.75119 0.779672,4.85156 1.374117,4.08762 -0.153118,1.80803 -2.648327,-3.95298 z m 91.061463,1.06313 c 0.38885,-3.33081 1.0548,-3.60183 6.2819,-2.5564 2.14212,0.42842 2.77869,1.02256 2.77869,2.59345 0,1.12074 0.50017,2.23954 1.11148,2.4862 0.61132,0.24667 -1.50906,0.48008 -4.71196,0.51869 l -5.82344,0.0702 0.36333,-3.11214 z m 0.0254,-36.83872 -0.30127,-5.2727 3.11214,1.88421 c 6.61937,4.00762 6.9277,4.289 6.49845,5.93045 -0.27832,1.0643 -1.56273,1.82148 -3.68513,2.17244 -5.32428,0.88043 -5.30351,0.89784 -5.62419,-4.7144 z M 92.460375,757.34331 c 0,-10.70357 -0.255071,-13.32728 -1.42088,-14.6155 -0.781485,-0.86353 -1.177652,-1.96361 -0.880372,-2.44462 0.339517,-0.54934 7.729291,-0.7312 19.871447,-0.48904 10.63201,0.21205 19.83109,0.38033 20.4424,0.37395 1.60342,-0.0167 1.36945,2.36671 -0.29502,3.00542 -0.77357,0.29686 -2.3741,0.53973 -3.55673,0.53973 l -2.15023,0 -0.1053,12.67087 c -0.0579,6.96897 -0.0579,12.97096 0,13.33775 0.0579,0.36679 -0.69497,0.66689 -1.67307,0.66689 -1.69864,0 -1.77837,-0.59279 -1.77837,-13.2229 l 0,-13.22291 -5.4532,-0.61696 c -2.99925,-0.33932 -9.00124,-0.3394 -13.33776,-1.6e-4 l -7.884548,0.6168 0,13.22306 c 0,8.22259 -0.336253,13.22307 -0.889183,13.22307 -0.552388,0 -0.889184,-4.94128 -0.889184,-13.04545 z m -5.730984,-19.4628 c -0.82518,-4.39861 -5.935923,-9.72962 -11.457184,-11.95097 -2.52826,-1.01718 -3.696532,-1.67082 -2.596167,-1.45253 l 2.000663,0.39689 0,-18.02226 0,-18.02227 5.038808,-1.01194 c 8.676529,-1.74249 7.886854,-4.13574 7.603978,23.0451 -0.138971,13.35353 0.125864,25.42086 0.59521,27.12069 0.465079,1.68436 0.522245,3.06248 0.127038,3.06248 -0.395197,0 -0.985758,-1.42434 -1.312346,-3.16519 z m 80.866999,-13.75545 c -3.91241,-0.88175 -6.46323,-1.63672 -5.66851,-1.6777 1.26639,-0.0653 1.46433,-1.90517 1.60163,-14.8877 0.11984,-11.32965 -0.11541,-14.98579 -1.00036,-15.5471 -0.69614,-0.44156 0.65826,-0.73933 3.40002,-0.74753 2.50639,-0.007 5.90752,-0.24737 7.55806,-0.53307 2.00666,-0.34734 2.60818,-0.24113 1.81546,0.32055 -1.62371,1.15045 -1.52267,33.12878 0.10794,34.16503 1.4408,0.91562 0.53223,0.7886 -7.81424,-1.09248 z"
           style="fill:#060606" />
      </g>
    </g>
  </g>
</svg>
