<?xml version="1.0" encoding="UTF-8" standalone="no"?>
<!-- Created with Inkscape (http://www.inkscape.org/) -->

<svg
   xmlns:dc="http://purl.org/dc/elements/1.1/"
   xmlns:cc="http://creativecommons.org/ns#"
   xmlns:rdf="http://www.w3.org/1999/02/22-rdf-syntax-ns#"
   xmlns:svg="http://www.w3.org/2000/svg"
   xmlns="http://www.w3.org/2000/svg"
   xmlns:sodipodi="http://sodipodi.sourceforge.net/DTD/sodipodi-0.dtd"
   xmlns:inkscape="http://www.inkscape.org/namespaces/inkscape"
   width="64"
   height="64"
   viewBox="0 0 64.000001 64.000001"
   id="svg2"
   version="1.1"
   inkscape:version="0.91 r13725"
   sodipodi:docname="zoom_out.svg">
  <defs
     id="defs4" />
  <sodipodi:namedview
     id="base"
     pagecolor="#ffffff"
     bordercolor="#666666"
     borderopacity="1.0"
     inkscape:pageopacity="0.0"
     inkscape:pageshadow="2"
     inkscape:zoom="0.98994949"
     inkscape:cx="308.6606"
     inkscape:cy="-97.165378"
     inkscape:document-units="px"
     inkscape:current-layer="layer1"
     showgrid="false"
     units="px"
     inkscape:window-width="1855"
     inkscape:window-height="1056"
     inkscape:window-x="65"
     inkscape:window-y="24"
     inkscape:window-maximized="1" />
  <metadata
     id="metadata7">
    <rdf:RDF>
      <cc:Work
         rdf:about="">
        <dc:format>image/svg+xml</dc:format>
        <dc:type
           rdf:resource="http://purl.org/dc/dcmitype/StillImage" />
        <dc:title></dc:title>
      </cc:Work>
    </rdf:RDF>
  </metadata>
  <g
     inkscape:label="Vrstva 1"
     inkscape:groupmode="layer"
     id="layer1"
     transform="translate(0,-988.36216)">
    <g
       id="g4809"
       transform="matrix(0.17092851,0,0,0.17139891,-82.124848,800.3032)">
      <path
         style="fill:#cecfd0"
         d="m 802.71085,1468.1376 c -5.39716,-3.2159 -103.89279,-111.2808 -105.625,-115.8868 -2.23117,-5.9329 -3.00543,-6.4963 -7.88795,-5.7392 -3.02778,0.4694 -5.43474,0.102 -7.00703,-1.0698 -2.14836,-1.601 -3.56418,-1.2355 -13.75,3.5492 -35.70375,16.7718 -76.00322,16.7739 -111.50828,0.01 -15.74424,-7.4361 -25.53211,-14.3538 -38.02003,-26.8716 -20.13431,-20.1824 -31.99786,-43.1526 -36.95698,-71.556 -2.56654,-14.6999 -1.73964,-38.4585 1.8409,-52.8928 7.22397,-29.1221 25.09663,-56.2835 48.7618,-74.1042 9.385,-7.0672 26.54378,-16.6899 32.65257,-18.3117 1.71875,-0.4562 -1.45168,1.3832 -7.04541,4.0876 -27.81547,13.4482 -51.53174,36.9944 -63.62507,63.1688 -8.11558,17.5651 -10.78309,29.3415 -11.22021,49.5345 -0.21579,9.9688 -0.12846,16.353 0.19407,14.1871 0.53063,-3.5632 1.06438,-3.9834 5.60996,-4.4169 2.76295,-0.2635 5.21448,-0.1701 5.44784,0.2074 0.23336,0.3776 1.04531,5.1515 1.80433,10.6087 6.78725,48.7985 40.25586,86.8497 87.58449,99.5768 15.02591,4.0406 43.44009,4.0634 58.125,0.047 11.73274,-3.2092 27.54235,-10.5233 37.79338,-17.4846 17.15367,-11.6489 35.20782,-35.0076 42.49458,-54.9801 3.62043,-9.9234 7.77191,-27.9053 7.80999,-33.8284 0.0231,-3.5873 0.39597,-4.1118 2.52705,-3.5545 1.375,0.3595 2.5,0.075 2.5,-0.6323 0,-0.7613 0.76499,-0.6512 1.875,0.2701 1.51163,1.2545 1.87871,1.2236 1.89414,-0.1595 0.0152,-1.3675 0.25522,-1.3422 1.18276,0.1244 2.1567,3.4103 2.93164,-2.0461 2.18471,-15.3828 -1.63054,-29.1141 -14.7555,-57.8543 -36.71761,-80.402 -5.09496,-5.2308 -18.46829,-15.7899 -28.6782,-22.6432 -2.00398,-1.3451 -1.88788,-1.3675 0.7592,-0.1463 5.75654,2.6557 19.29851,12.7795 27.28662,20.3992 41.41802,39.5078 52.22363,103.1645 26.27663,154.7976 -2.99253,5.955 -3.37753,7.6739 -2.20813,9.859 0.77899,1.4555 1.11503,4.5032 0.74677,6.7726 -0.73138,4.5069 0.40377,5.991 5.51281,7.2078 1.86351,0.4437 27.43341,22.7912 60.19452,52.6086 59.60792,54.2517 61.39937,56.1886 58.59234,63.347 -0.6454,1.6459 -10.12385,11.8519 -21.06322,22.68 -21.5506,21.3316 -22.35268,21.7816 -30.33834,17.0233 z m -81.88662,-144.8239 c 5.28709,-5.3429 7.02493,-7.8735 6.06567,-8.8328 -1.22454,-1.2245 -6.04953,3.6234 -14.06655,14.1335 -3.72631,4.8851 1.0579,1.7154 8.00088,-5.3007 z m -2.08127,-4.8319 c 6.2501,-6.3018 8.24413,-10.4352 7.12579,-14.7711 l -0.91146,-3.5338 -2.06072,3.0998 c -1.1334,1.7048 -5.31636,7.0022 -9.29547,11.772 -5.09088,6.1024 -6.77769,8.9547 -5.69235,9.6255 2.04698,1.2651 5.25827,-0.5703 10.83421,-6.1924 z m 23.54574,-82.9924 c -0.34676,-0.8594 -0.63049,-0.1562 -0.63049,1.5625 0,1.7188 0.28373,2.4219 0.63049,1.5625 0.34676,-0.8594 0.34676,-2.2656 0,-3.125 z m -149.15088,104.8017 c -24.68216,-4.723 -46.4324,-16.4304 -62.56553,-33.6768 -9.77293,-10.4472 -14.2503,-17.0066 -20.502,-30.0355 -7.21738,-15.0414 -9.85397,-26.1455 -10.72107,-45.1519 -0.40773,-8.9375 -1.16447,-16.5312 -1.68163,-16.875 -1.3439,-0.8933 1.6297,-15.3135 5.33133,-25.8539 9.63733,-27.4422 31.26618,-51.7007 57.83693,-64.8687 31.37271,-15.5478 69.22289,-16.069 100.99192,-1.3908 37.32277,17.2442 64.08751,54.5623 66.51238,92.7384 0.37161,5.8504 0.25353,6.5378 -0.5369,3.125 -0.76633,-3.3087 -1.0574,-1.3284 -1.19428,8.125 -0.77762,53.7119 -35.06075,98.3926 -85.81047,111.8354 -12.89752,3.4164 -35.40293,4.3744 -47.66068,2.0288 z m 52.0682,-6.2884 c 37.57313,-11.5092 62.91175,-36.276 73.15967,-71.5087 8.89267,-30.5733 0.65124,-69.7261 -20.78484,-98.7431 -28.4895,-38.5648 -81.25624,-53.292 -124.93675,-34.8699 -13.41609,5.6582 -20.92068,10.5283 -18.54343,12.0338 1.38181,0.875 1.2897,1.1027 -0.45232,1.118 -1.20313,0.011 -2.19482,0.441 -2.20376,0.9566 -0.009,0.5156 -4.15778,5.2567 -9.21963,10.5357 -18.74921,19.5535 -27.91192,37.8725 -34.58805,69.1518 -4.52007,21.1776 3.83788,52.1718 19.62792,72.787 14.05846,18.3546 38.4606,34.0525 57.87317,37.2299 3.05368,0.4999 6.32873,1.6854 7.27791,2.6346 1.00875,1.0087 2.9299,1.4235 4.62398,0.9983 1.66785,-0.4186 3.29748,-0.081 3.8387,0.7944 1.73813,2.8123 31.89068,0.6911 44.32743,-3.1184 z m -89.71704,-86.3967 c -2.6444,-1.8522 -2.77813,-2.7827 -2.77813,-19.331 0,-15.9089 0.20531,-17.495 2.41782,-18.6791 1.56391,-0.837 22.2815,-1.294 58.66072,-1.294 49.46324,0 56.47967,0.2368 58.20717,1.9643 1.58985,1.5898 1.96429,5.1505 1.96429,18.6791 0,15.8556 -0.14281,16.8149 -2.77814,18.6607 -2.41236,1.6897 -10.02844,1.9459 -57.84686,1.9459 -47.81842,0 -55.4345,-0.2562 -57.84687,-1.9459 z m -55.27813,-36.8041 c 0,-1.375 -0.21565,-2.5 -0.47921,-2.5 -0.26357,0 -0.77341,1.125 -1.13298,2.5 -0.35957,1.375 -0.14392,2.5 0.47921,2.5 0.62314,0 1.13298,-1.125 1.13298,-2.5 z m 225.85389,-0.2344 c -0.39903,-0.9971 -0.69523,-0.7009 -0.7552,0.7552 -0.0543,1.3177 0.24115,2.056 0.65652,1.6407 0.41537,-0.4154 0.45977,-1.4935 0.0986,-2.3959 z m -225.02604,-7.5781 c -0.34677,-0.8594 -0.63048,-0.1562 -0.63048,1.5625 0,1.7188 0.28371,2.4219 0.63048,1.5625 0.34677,-0.8594 0.34677,-2.2656 0,-3.125 z m 163.54715,-94.8258 c -4.125,-2.0205 -6.09375,-3.3061 -4.375,-2.8569 3.60545,0.9423 14.99739,6.6532 13.125,6.5797 -0.6875,-0.027 -4.625,-1.7022 -8.75,-3.7228 z m -87.10938,-6.9656 c 0.90235,-0.3611 1.98047,-0.3167 2.39584,0.099 0.41536,0.4154 -0.32292,0.7108 -1.64063,0.6565 -1.45618,-0.06 -1.75237,-0.3562 -0.75521,-0.7552 z m 68.75,0 c 0.90234,-0.3611 1.98047,-0.3167 2.39584,0.099 0.41537,0.4154 -0.32292,0.7108 -1.64062,0.6565 -1.45619,-0.06 -1.75238,-0.3562 -0.75522,-0.7552 z m -63.75,-1.25 c 0.90235,-0.3611 1.98047,-0.3167 2.39584,0.099 0.41536,0.4154 -0.32292,0.7108 -1.64063,0.6565 -1.45618,-0.06 -1.75237,-0.3562 -0.75521,-0.7552 z m 58.75,0 c 0.90234,-0.3611 1.98047,-0.3167 2.39584,0.099 0.41537,0.4154 -0.32292,0.7108 -1.64062,0.6565 -1.45619,-0.06 -1.75238,-0.3562 -0.75522,-0.7552 z m -53.17933,-1.2623 c 1.21621,-0.317 2.90371,-0.2961 3.75,0.046 0.84629,0.3424 -0.14879,0.6017 -2.21129,0.5762 -2.0625,-0.025 -2.75492,-0.3056 -1.53871,-0.6225 z m 46.85121,0.038 c 0.85937,-0.3467 2.26562,-0.3467 3.125,0 0.85937,0.3468 0.15625,0.6305 -1.5625,0.6305 -1.71875,0 -2.42188,-0.2837 -1.5625,-0.6305 z m -38.73543,-1.3062 c 1.55489,-0.299 3.80489,-0.2876 5,0.025 1.19511,0.3128 -0.0771,0.5574 -2.82707,0.5436 -2.75,-0.014 -3.72782,-0.2699 -2.17293,-0.5689 z m 28.75,0 c 1.55489,-0.299 3.80489,-0.2876 5,0.025 1.19512,0.3128 -0.0771,0.5574 -2.82707,0.5436 -2.75,-0.014 -3.72781,-0.2699 -2.17293,-0.5689 z"
         id="path4819"
         inkscape:connector-curvature="0" />
      <path
         style="fill:#9ea2a5"
         d="m 804.45855,1469.0446 c -4.78069,-2.1162 -103.42582,-110.0493 -107.35122,-117.4591 -2.48264,-4.6863 -3.18098,-5.1619 -7.62717,-5.1951 -2.69187,-0.02 -6.14869,-0.737 -7.68182,-1.5931 -2.41429,-1.3482 -3.83688,-1.0265 -10.625,2.4024 -55.49159,28.0308 -124.47544,11.9559 -163.08658,-38.0032 -5.95344,-7.7032 -15.37591,-23.1579 -15.37591,-25.2195 0,-0.6818 2.46068,3.0784 5.46818,8.3559 14.86784,26.0896 37.5251,45.9958 65.23446,57.3136 55.64378,22.7275 120.88601,4.1149 155.56529,-44.3802 6.83756,-9.5616 6.8633,-9.5812 9.04457,-6.8882 1.20312,1.4854 2.16497,3.6228 2.13745,4.7498 -0.0322,1.3195 -0.71403,0.8251 -1.91491,-1.3885 -1.02569,-1.8906 -2.05905,-3.4375 -2.29638,-3.4375 -0.23731,0 -3.22191,3.7969 -6.63242,8.4375 -3.41052,4.6406 -9.96196,12.4734 -14.55876,17.4062 -7.37078,7.9095 -8.0646,9.0617 -5.87488,9.7567 1.36564,0.4335 3.64734,0.165 5.07045,-0.5967 2.39261,-1.2805 2.52623,-1.1209 1.77419,2.1183 -0.67168,2.893 1.38562,1.3339 11.81517,-8.9541 8.28514,-8.1727 12.20528,-12.8802 11.39803,-13.6875 -2.17963,-2.1796 -1.30731,-3.6869 0.95706,-1.6537 1.20313,1.0803 3.68149,2.1518 5.50748,2.3812 2.32273,0.2918 19.78187,15.3749 58.125,50.2147 30.14276,27.3886 56.07065,51.5602 57.61752,53.7147 1.62229,2.2594 2.8125,5.7507 2.8125,8.2498 0,3.9259 -1.8482,6.1828 -19.6875,24.041 -11.66443,11.6769 -20.961,19.9779 -22.8125,20.3696 -1.71875,0.3637 -4.86979,-0.1111 -7.0023,-1.055 z M 729.8427,1287.7118 c 1.84507,-3.762 3.56427,-6.6304 3.82045,-6.3743 0.56156,0.5616 -5.74339,13.2144 -6.58477,13.2144 -0.32471,0 0.91924,-3.078 2.76432,-6.8401 z m -223.85243,-22.5832 c -0.42868,-1.1171 -0.74376,-2.6883 -0.70019,-3.4914 0.0436,-0.8032 0.61817,-0.113 1.27686,1.5337 0.65869,1.6467 0.97377,3.2178 0.70019,3.4914 -0.27359,0.2736 -0.84817,-0.4166 -1.27686,-1.5337 z m -3.25379,-11.4259 c -2.25197,-9.266 -3.05696,-35.5571 -1.36295,-44.5143 8.80647,-46.5647 43.227,-81.9171 89.1669,-91.5808 11.01735,-2.3176 33.32348,-2.3176 44.34083,0 32.97085,6.9356 61.74658,28.3768 77.2722,57.5764 4.96149,9.3313 3.5457,8.0482 -4.35887,-3.9504 -23.10499,-35.0718 -68.39323,-56.0757 -108.79794,-50.4588 -29.39327,4.0861 -58.12642,21.3247 -74.08297,44.4463 -5.62492,8.1508 -15.18987,25.5808 -14.03776,25.5808 0.49007,0 0.31854,0.7031 -0.38118,1.5625 -0.69973,0.8594 -2.51083,5.5 -4.02467,10.3125 -3.39091,10.7797 -4.89615,38.7896 -2.6479,49.2729 1.8073,8.4271 0.89455,9.9008 -1.08569,1.7529 z m 51.47437,-6.9008 c -1.01565,-1.0157 -1.5,-6.8454 -1.5,-18.0541 0,-15.6896 0.1451,-16.6558 2.77813,-18.5 2.41237,-1.6897 10.02845,-1.9459 57.84687,-1.9459 47.81842,0 55.4345,0.2562 57.84686,1.9459 2.61909,1.8345 2.77814,2.8411 2.77814,17.5822 0,8.5999 -0.58229,16.7243 -1.29398,18.0541 -1.2507,2.3369 -3.22848,2.4178 -59.125,2.4178 -43.31302,0 -58.20758,-0.3766 -59.33102,-1.5 z"
         id="path4817"
         inkscape:connector-curvature="0" />
      <path
         style="fill:#0c3e81"
         d="m 803.17279,1468.093 c -1.46469,-0.7094 -25.65219,-26.5888 -53.75,-57.5099 -36.12859,-39.7588 -51.2066,-57.199 -51.49563,-59.5632 -0.25807,-2.111 0.0205,-2.8823 0.75601,-2.093 0.64058,0.6875 15.25044,16.7188 32.46637,35.625 17.21591,18.9063 34.65741,37.6555 38.75887,41.6651 6.80664,6.654 7.51879,7.0546 8.16299,4.5911 0.58737,-2.2461 -6.09428,-9.4766 -39.82739,-43.0989 -22.29323,-22.22 -40.53316,-40.1078 -40.53316,-39.7506 0,0.3572 -0.84375,-0.051 -1.875,-0.9067 -1.03125,-0.8559 -1.875,-2.1186 -1.875,-2.8061 0,-0.6885 0.85586,-0.5397 1.90521,0.3312 1.04787,0.8696 2.31349,1.1691 2.8125,0.6655 5.49492,-5.5454 30.79736,-28.9158 31.6459,-29.2294 1.4102,-0.5214 100.67404,99.0783 103.81266,104.1638 4.33137,7.0181 3.25141,10.3911 -7.85598,24.5363 l -10.17971,12.9637 11.11721,-10.5166 c 18.40687,-17.4125 19.24221,-18.406 19.24221,-22.8845 0,-3.5136 -2.06985,-6.1716 -15.3125,-19.6635 -8.42188,-8.5803 -14.93172,-15.3385 -14.46634,-15.018 0.4654,0.3204 8.94329,8.5478 18.83976,18.283 11.59284,11.4039 17.87837,18.4854 17.66968,19.9073 -0.17816,1.2138 -9.21195,11.108 -20.07511,21.9871 -16.99339,17.0184 -20.27683,19.7684 -23.51584,19.6956 -2.07056,-0.046 -4.96303,-0.665 -6.42771,-1.3743 z M 790.1185,1366.7009 c -11.39455,-10.4632 -27.9883,-25.5692 -36.875,-33.5689 -19.04629,-17.1452 -21.64374,-19.8322 -19.16389,-19.8249 0.96594,0 5.63645,3.7402 10.37893,8.3053 4.74249,4.565 8.18395,7.5158 7.6477,6.5573 -0.53624,-0.9586 0.76381,0.226 2.88901,2.6322 2.1252,2.4063 3.88686,4.7969 3.9148,5.3125 0.0279,0.5156 0.53918,0.9375 1.13608,0.9375 0.5969,0 6.92502,5.5765 14.0625,12.3921 7.13747,6.8157 18.60222,17.7665 25.47722,24.3351 6.875,6.5687 12.21875,11.9437 11.875,11.9444 -0.34375,7e-4 -9.94781,-8.5595 -21.34235,-19.0226 z m -107.82431,-21.7323 c -1.15274,-1.1528 -1.04524,-2.9167 0.17775,-2.9167 0.5561,0 2.10297,0.8259 3.4375,1.8353 2.38392,1.803 2.38081,1.8359 -0.17775,1.875 -1.4323,0.022 -2.97918,-0.3353 -3.4375,-0.7936 z M 554.77958,1246.016 c -1.67763,-1.8538 -2.06873,-5.0596 -2.06873,-16.9572 0,-8.0692 0.58229,-15.7593 1.29398,-17.0891 1.2508,-2.3371 3.23082,-2.4178 59.33102,-2.4178 56.1002,0 58.08022,0.081 59.33102,2.4178 2.15734,4.0311 1.64754,30.2712 -0.65189,33.5541 l -1.94589,2.7781 -56.61039,0 c -53.25573,0 -56.73297,-0.1355 -58.67912,-2.2859 z"
         id="path4815"
         inkscape:connector-curvature="0" />
      <path
         style="fill:#033371"
         d="m 801.11526,1466.1144 c -2.45701,-1.8906 -24.56126,-25.6562 -49.12057,-52.8125 -24.55931,-27.1562 -46.87387,-51.701 -49.58788,-54.5439 -2.8592,-2.9949 -4.75297,-6.0979 -4.50277,-7.3778 0.30346,-1.5524 7.9908,6.1145 25.86266,25.7939 13.98697,15.4015 32.8107,35.4559 41.83051,44.5651 14.54895,14.6933 16.61043,16.3516 18.26734,14.6947 1.65692,-1.6569 -3.03431,-6.7581 -41.57045,-45.2034 -23.89097,-23.8347 -43.27391,-43.9473 -43.0732,-44.6947 0.20072,-0.7474 7.2351,-8.0587 15.63195,-16.2475 15.22103,-14.8437 15.2708,-14.8785 16.53156,-11.5625 0.6955,1.8294 1.59293,3.3261 1.99428,3.3261 0.40134,0 0.31918,-0.7031 -0.18254,-1.5625 -0.50174,-0.8594 0.75252,0.125 2.78725,2.1875 2.03473,2.0625 3.59607,4.0313 3.46967,4.375 -0.12639,0.3438 0.55489,1.3503 1.51398,2.2368 0.95909,0.8865 1.7438,1.2888 1.7438,0.894 0,-0.3948 1.74416,1.2687 3.87592,3.6967 2.13177,2.4279 4.39571,4.0932 5.03098,3.7005 0.63527,-0.3926 1.00047,0.031 0.81158,0.9416 -0.18892,0.9105 0.35965,1.5148 1.21902,1.3429 0.85938,-0.1719 1.42187,0.1937 1.25,0.8125 -0.17187,0.6188 0.25,1.2213 0.9375,1.3391 2.15241,0.3686 5.5989,4.0669 4.87761,5.2339 -0.37863,0.6127 0.0565,0.9594 0.96698,0.7705 0.91047,-0.1889 1.50085,0.4014 1.31194,1.3119 -0.1889,0.9105 0.16923,1.3386 0.79587,0.9513 0.62662,-0.3873 1.83444,0.1334 2.68403,1.1571 0.84957,1.0236 1.05393,1.8633 0.45412,1.8659 -0.5998,0 0.73758,1.1193 2.97195,2.4816 2.23437,1.3623 4.0625,2.7997 4.0625,3.1941 0,0.3944 -0.64941,0.3158 -1.44314,-0.1748 -0.9013,-0.557 -1.10352,-0.3424 -0.53862,0.5717 0.49747,0.8049 1.34206,1.1931 1.87685,0.8625 1.43316,-0.8857 7.80491,6.1769 6.68491,7.4098 -0.52525,0.5781 -0.34845,0.7063 0.3929,0.2847 1.78366,-1.0144 52.48312,49.9779 54.19659,54.5096 2.47287,6.5401 1.47833,8.7869 -10.54821,23.8298 -6.52921,8.1667 -11.87128,15.1902 -11.87128,15.6076 0,0.4174 7.55877,-6.7842 16.79728,-16.0037 14.78743,-14.757 17.04034,-16.561 18.82878,-15.0767 1.80648,1.4992 -0.0179,3.7388 -16.46914,20.2175 -20.75818,20.7929 -22.33851,21.5685 -30.75251,15.0941 z m -54.81386,-133.75 c -1.55484,-1.9826 -1.51063,-2.0268 0.47195,-0.472 1.20312,0.9436 2.1875,1.928 2.1875,2.1875 0,1.0288 -1.02649,0.3667 -2.65945,-1.7155 z m -190.20281,-85.625 c -2.48023,-1.8542 -2.61967,-2.9979 -2.24794,-18.4375 0.18044,-7.4942 0.65694,-10.9527 1.29164,-9.375 0.55315,1.375 0.75247,2.9368 0.44292,3.4706 -0.30955,0.5338 25.49521,0.8151 57.34391,0.625 l 57.90673,-0.3456 0,-5.8211 c 0,-3.2016 0.42187,-5.5591 0.9375,-5.2387 0.51562,0.3203 0.9375,8.1231 0.9375,17.3396 0,15.2881 -0.21198,16.8707 -2.41783,18.0512 -3.75726,2.0109 -111.4843,1.7575 -114.19443,-0.2685 z m 28.26011,-36.874 c 15.68757,-0.1985 41.00006,-0.1983 56.25,5e-4 15.24994,0.1987 2.41465,0.3611 -28.52285,0.3608 -30.9375,-2e-4 -43.41472,-0.1628 -27.72715,-0.3613 z"
         id="path4813"
         inkscape:connector-curvature="0" />
      <path
         style="fill:#0d0d0d"
         d="m 804.58585,1468.2831 c -4.27489,-1.8987 -6.44346,-4.1771 -57.3976,-60.304 -30.30971,-33.3866 -49.50006,-55.4835 -49.25458,-56.7146 0.25652,-1.2864 13.13469,11.9595 35.55757,36.5728 19.33546,21.2243 37.33546,40.5046 40,42.8452 2.66453,2.3406 6.25086,5.5276 7.96961,7.0823 2.76506,2.5011 3.32304,2.6096 4.84435,0.9417 1.49592,-1.64 -4.10516,-7.7177 -43.10315,-46.7712 l -44.82249,-44.8863 14.31399,-14.3548 c 10.48207,-10.5118 14.57338,-13.8912 15.28291,-12.6233 0.53291,0.9523 4.9815,5.5844 9.88575,10.2937 4.90424,4.7093 11.82757,11.3748 15.38515,14.8123 52.7491,50.9685 73.22231,70.0653 74.67704,69.6565 0.67225,-0.1889 0.91247,0.1578 0.53384,0.7705 -0.81255,1.3147 3.447,5.4914 4.66655,4.5757 0.45983,-0.3452 0.5816,-0.2795 0.27059,0.1461 -0.31102,0.4256 0.25148,1.5908 1.25,2.5893 4.12847,4.1285 1.80225,8.6547 -15.6172,30.3869 -8.92118,11.1299 -7.78513,10.3824 8.31399,-5.4707 14.91677,-14.6888 19.11868,-17.5186 19.11868,-12.8757 0,0.8284 -7.46066,8.9515 -16.57926,18.0513 -17.0515,17.0164 -18.88497,18.1236 -25.29574,15.2763 z"
         id="path4811"
         inkscape:connector-curvature="0" />
    </g>
  </g>
</svg>
