<?xml version="1.0" encoding="UTF-8" standalone="no"?>
<!-- Created with Inkscape (http://www.inkscape.org/) -->

<svg
   xmlns:dc="http://purl.org/dc/elements/1.1/"
   xmlns:cc="http://creativecommons.org/ns#"
   xmlns:rdf="http://www.w3.org/1999/02/22-rdf-syntax-ns#"
   xmlns:svg="http://www.w3.org/2000/svg"
   xmlns="http://www.w3.org/2000/svg"
   xmlns:sodipodi="http://sodipodi.sourceforge.net/DTD/sodipodi-0.dtd"
   xmlns:inkscape="http://www.inkscape.org/namespaces/inkscape"
   width="64"
   height="64"
   viewBox="0 0 64.000001 64.000001"
   id="svg2"
   version="1.1"
   inkscape:version="0.91 r13725"
   sodipodi:docname="zoom_in.svg">
  <defs
     id="defs4" />
  <sodipodi:namedview
     id="base"
     pagecolor="#ffffff"
     bordercolor="#666666"
     borderopacity="1.0"
     inkscape:pageopacity="0.0"
     inkscape:pageshadow="2"
     inkscape:zoom="0.98994949"
     inkscape:cx="308.6606"
     inkscape:cy="-97.165378"
     inkscape:document-units="px"
     inkscape:current-layer="layer1"
     showgrid="false"
     units="px"
     inkscape:window-width="1855"
     inkscape:window-height="1056"
     inkscape:window-x="65"
     inkscape:window-y="24"
     inkscape:window-maximized="1" />
  <metadata
     id="metadata7">
    <rdf:RDF>
      <cc:Work
         rdf:about="">
        <dc:format>image/svg+xml</dc:format>
        <dc:type
           rdf:resource="http://purl.org/dc/dcmitype/StillImage" />
        <dc:title></dc:title>
      </cc:Work>
    </rdf:RDF>
  </metadata>
  <g
     inkscape:label="Vrstva 1"
     inkscape:groupmode="layer"
     id="layer1"
     transform="translate(0,-988.36216)">
    <g
       id="g4767"
       transform="matrix(0.17093313,0,0,0.17139862,-6.1974076,825.75485)">
      <path
         style="fill:#cecfd0"
         d="m 358.10804,1319.4906 c -6.17247,-3.8399 -106.11433,-114.0584 -106.11433,-117.0256 0,-3.5346 -2.78572,-5.1521 -7.57904,-4.4006 -2.72003,0.4264 -5.17454,0.018 -6.69094,-1.1131 -2.14956,-1.6036 -3.55851,-1.2372 -13.75,3.5759 -41.96979,19.821 -91.37865,15.7592 -130.883283,-10.7596 -10.669498,-7.1622 -27.870932,-24.6896 -35.417963,-36.089 -7.629651,-11.5242 -14.971672,-28.3771 -18.503297,-42.4725 -3.677735,-14.6785 -3.915414,-44.7361 -0.470665,-59.5216 7.024508,-30.1505 25.079877,-58.26668 48.957291,-76.23735 9.437229,-7.10266 27.276317,-17.18172 33.087897,-18.69461 1.71875,-0.44743 -1.45169,1.39922 -7.04541,4.10366 -35.998724,17.40459 -61.801875,48.3452 -71.915558,86.234 -1.860191,6.9688 -2.663396,14.3832 -2.935169,27.0943 -0.205789,9.625 -0.10641,15.6377 0.220843,13.3616 0.355517,-2.4727 1.189752,-3.9242 2.072648,-3.6064 0.812703,0.2926 2.462017,0.026 3.665142,-0.5931 1.53078,-0.7873 2.193246,-0.6428 2.206641,0.4814 0.01479,1.2414 0.263386,1.221 1.09375,-0.09 1.601493,-2.5275 2.294669,-0.5595 3.87915,11.0129 6.593843,48.1586 40.089615,86.0514 87.508593,98.9958 9.0342,2.4662 13.43071,2.8845 29.37437,2.7947 21.62076,-0.1218 31.33292,-2.1793 48.69636,-10.3161 13.77841,-6.4567 20.50246,-11.1462 32.37884,-22.5812 19.37115,-18.6514 29.75797,-39.0164 34.33805,-67.3253 l 2.08675,-12.8979 5,0.3388 c 3.71713,0.2519 5.23141,0.9912 5.90196,2.8815 0.49607,1.3985 0.69369,-5.051 0.43912,-14.3322 -0.57115,-20.8239 -3.23083,-31.563 -12.53807,-50.625 -13.09628,-26.82226 -33.70754,-46.88569 -62.55301,-60.89039 -5.5,-2.67029 -8.59375,-4.47297 -6.875,-4.00594 10.69897,2.90714 30.91218,15.53296 43.06001,26.89665 42.95667,40.18388 54.37532,103.98318 28.00324,156.46218 -2.99253,5.955 -3.37753,7.6739 -2.20813,9.8589 0.77899,1.4556 1.11503,4.5033 0.74676,6.7726 -0.73101,4.5047 0.40425,5.9913 5.50239,7.2052 1.85065,0.4407 27.5526,22.9124 60.20414,52.6377 58.41714,53.1819 61.27715,56.2232 59.15599,62.9064 -0.3941,1.2417 -9.89523,11.3756 -21.11363,22.5197 -22.1922,22.0452 -22.92534,22.4579 -30.98644,17.4431 z m -81.75096,-144.6693 c 5.18313,-5.2378 7.01501,-7.8834 6.09544,-8.803 -1.1923,-1.1923 -5.76256,3.3892 -14.06905,14.1037 -3.82538,4.9343 1.0576,1.6882 7.97361,-5.3007 z m -0.88044,-5.8666 c 5.9557,-6.6918 7.42103,-10.4755 5.62005,-14.5117 l -1.208,-2.7072 -1.54223,2.8817 c -0.84823,1.5849 -4.48,6.3546 -8.07062,10.5994 -9.25443,10.9403 -9.34468,11.1558 -4.35276,10.3964 2.9986,-0.4562 5.72426,-2.3559 9.55356,-6.6586 z m -124.10793,23.3059 c -37.06049,-5.7772 -68.68666,-29.2472 -84.99586,-63.0761 -8.485715,-17.6012 -10.592822,-26.6383 -11.949658,-51.25 -1.009261,-18.307 -0.886203,-20.7936 1.453745,-29.375 17.572404,-64.44425 87.503173,-100.98069 151.144873,-78.96802 30.23982,10.45949 56.30582,34.96162 68.59358,64.47812 4.44144,10.6688 7.57959,22.12 7.56774,27.6149 -0.0279,12.9356 -2.64226,37.7541 -4.87192,46.25 -5.77272,21.9964 -20.26945,44.7082 -37.88769,59.358 -10.85718,9.0279 -30.23858,18.9311 -44.05481,22.5104 -11.55968,2.9948 -33.77247,4.208 -45,2.4577 z m 45.04082,-5.6016 c 54.56583,-14.0011 88.53915,-62.9638 79.9242,-115.1876 -1.76705,-10.7119 -8.23416,-30.9668 -12.57729,-39.392 -25.98817,-50.41441 -85.13621,-72.96507 -135.57948,-51.69079 -11.37878,4.79896 -20.09442,10.06285 -19.61591,11.8472 0.16921,0.63099 -0.81734,2.07241 -2.19234,3.20317 -1.375,1.13076 -1.91496,1.77274 -1.1999,1.42662 0.71506,-0.34611 -2.66785,3.4091 -7.517568,8.3448 -20.008537,20.3635 -31.465969,45.2026 -34.776017,75.3924 -3.298401,30.0837 11.449482,63.7064 36.615985,83.4783 13.62099,10.7012 38.38306,21.6158 50.0025,22.04 2.84947,0.104 2.90457,0.2044 0.625,1.1386 -3.47703,1.4247 3.6445,2.1705 21.29082,2.2294 10.42796,0.035 16.52415,-0.6553 25,-2.8301 z m -46.09709,-47.8854 c -1.72012,-1.9007 -2.06873,-5.271 -2.06873,-20 l 0,-17.7141 -17.36152,0 c -23.46214,0 -22.58551,0.8164 -22.7455,-21.1829 -0.10741,-14.7692 0.14809,-17.0057 2.1063,-18.4375 1.58591,-1.1597 7.38626,-1.6296 20.11463,-1.6296 l 17.88609,0 0,-18.125 c 0,-23.8649 -0.6599,-23.125 20.625,-23.125 21.28488,0 20.625,-0.7399 20.625,23.125 l 0,18.125 18.03571,0 c 14.72944,0 18.3958,0.3601 20,1.9643 1.58985,1.5898 1.96429,5.1505 1.96429,18.6791 0,21.4375 0.91842,20.6066 -22.77814,20.6066 l -17.22186,0 0,17.2219 c 0,23.6831 0.81455,22.7781 -20.50215,22.7781 -14.50438,0 -16.87268,-0.2898 -18.67912,-2.2859 z m -94.952495,-77.3778 c -0.31693,-1.2162 -0.597079,-0.5238 -0.622553,1.5387 -0.02548,2.0625 0.233832,3.0576 0.576235,2.2113 0.342404,-0.8463 0.363246,-2.5338 0.04631,-3.75 z m 226.237645,-1.8207 c -0.39902,-0.9971 -0.69522,-0.7009 -0.7552,0.7552 -0.0543,1.3178 0.24115,2.056 0.65653,1.6407 0.41536,-0.4154 0.45976,-1.4935 0.0986,-2.3959 z m -224.160181,-6.0156 c 0.564812,-3.078 0.438433,-3.8191 -0.426309,-2.5 -0.676011,1.0313 -1.237725,3.2344 -1.248253,4.8958 -0.02542,4.0121 0.685328,2.9952 1.674562,-2.3958 z M 133.00933,952.70562 c 0.90234,-0.36109 1.98047,-0.31668 2.39583,0.0987 0.41537,0.41537 -0.32291,0.7108 -1.64062,0.65653 -1.45618,-0.06 -1.75238,-0.35618 -0.75521,-0.75521 z m 68.75,0 c 0.90234,-0.36109 1.98046,-0.31668 2.39584,0.0987 0.41536,0.41537 -0.32293,0.7108 -1.64063,0.65653 -1.45618,-0.06 -1.75237,-0.35618 -0.75521,-0.75521 z m -63.75,-1.25 c 0.90234,-0.36109 1.98047,-0.31668 2.39583,0.0987 0.41537,0.41537 -0.32291,0.7108 -1.64062,0.65653 -1.45618,-0.06 -1.75238,-0.35618 -0.75521,-0.75521 z m 58.75,0 c 0.90234,-0.36109 1.98046,-0.31668 2.39584,0.0987 0.41536,0.41537 -0.32293,0.7108 -1.64063,0.65653 -1.45618,-0.06 -1.75237,-0.35618 -0.75521,-0.75521 z m -53.82812,-1.22396 c 0.85937,-0.34677 2.26562,-0.34677 3.125,0 0.85937,0.34676 0.15625,0.63048 -1.5625,0.63048 -1.71875,0 -2.42188,-0.28372 -1.5625,-0.63048 z m 46.89878,-0.0384 c 1.21622,-0.31693 2.90372,-0.29608 3.75,0.0463 0.84629,0.3424 -0.14878,0.60171 -2.21128,0.57623 -2.0625,-0.0255 -2.75493,-0.30562 -1.53872,-0.62255 z m -37.52378,-1.24542 c 1.20312,-0.31441 3.17187,-0.31441 4.375,0 1.20312,0.31441 0.21875,0.57166 -2.1875,0.57166 -2.40625,0 -3.39063,-0.25725 -2.1875,-0.57166 z m 28.13957,-0.0224 c 1.55489,-0.29899 3.80489,-0.28764 5,0.0252 1.19511,0.31287 -0.0771,0.5575 -2.82707,0.54362 -2.75,-0.0139 -3.72782,-0.26985 -2.17293,-0.56885 z"
         id="path4777"
         inkscape:connector-curvature="0" />
      <path
         style="fill:#9ea2a5"
         d="m 359.97433,1320.545 c -4.78366,-2.117 -103.41787,-110.0595 -107.34876,-117.4795 -2.46696,-4.6567 -3.17068,-5.1344 -7.61255,-5.1675 -2.69188,-0.02 -6.14869,-0.737 -7.68183,-1.5931 -2.41428,-1.3482 -3.83687,-1.0265 -10.625,2.4024 -41.51683,20.9717 -92.19307,17.6198 -132.210485,-8.7447 -11.833138,-7.796 -31.466588,-27.8629 -36.839709,-37.6531 -1.655133,-3.0158 0.876794,-0.1121 7.154236,8.2045 17.083509,22.6331 47.144178,41.4259 76.295848,47.6975 7.45789,1.6044 15.38693,2.1728 29.01263,2.0797 16.03021,-0.1095 20.56318,-0.608 31.25,-3.436 29.57238,-7.8258 56.91181,-26.8553 74.43596,-51.8107 l 5.5405,-7.89 2.19926,2.716 c 1.2096,1.4938 2.17675,3.638 2.14923,4.765 -0.0323,1.3195 -0.71403,0.8251 -1.91492,-1.3885 -1.02568,-1.8906 -2.05905,-3.4375 -2.29637,-3.4375 -0.23731,0 -3.22191,3.7969 -6.63243,8.4375 -3.41051,4.6406 -9.93065,12.4396 -14.4892,17.3311 -4.55855,4.8914 -7.931,9.2508 -7.49432,9.6875 1.34599,1.3459 6.04157,0.8782 7.71574,-0.7686 1.2812,-1.2603 1.42181,-0.8371 0.72697,2.1875 -0.74732,3.2531 0.81195,2.0993 11.76699,-8.7071 8.28514,-8.1726 12.20527,-12.8802 11.39802,-13.6875 -2.17962,-2.1796 -1.30731,-3.6869 0.95707,-1.6537 1.20312,1.0803 3.67758,2.1518 5.49881,2.3812 2.30986,0.291 19.88901,15.4735 58.125,50.2006 30.14752,27.3809 56.07931,51.5525 57.62619,53.7147 1.61957,2.2638 2.8125,5.7689 2.8125,8.2639 0,3.9259 -1.8482,6.1828 -19.6875,24.0411 -11.66443,11.6768 -20.961,19.9778 -22.8125,20.3695 -1.71875,0.3637 -4.87748,-0.1143 -7.01938,-1.0622 z M 54.493706,1147.3095 c -0.735877,-1.375 -1.05671,-2.5 -0.71296,-2.5 0.34375,0 1.227083,1.125 1.96296,2.5 0.735878,1.375 1.05671,2.5 0.71296,2.5 -0.34375,0 -1.227082,-1.125 -1.96296,-2.5 z m 230.881854,-8.0901 c 1.84507,-3.762 3.56427,-6.6304 3.82045,-6.3743 0.56156,0.5616 -5.74339,13.2144 -6.58478,13.2144 -0.3247,0 0.91925,-3.078 2.76433,-6.8401 z m -235.316924,0.4739 c -1.099599,-2.1263 -1.777358,-4.088 -1.50613,-4.3593 0.271226,-0.2712 1.428603,1.4686 2.571946,3.8662 2.570729,5.3909 1.680016,5.803 -1.065816,0.4931 z m 100.685074,-1.1338 c -2.27012,-2.2701 -2.5,-4.1667 -2.5,-20.625 l 0,-18.125 -18.5,0 c -12.72223,0 -18.96847,-0.4685 -20,-1.5 -1.01452,-1.0145 -1.5,-6.8181 -1.5,-17.9313 0,-21.5195 -1.03023,-20.5687 22.28592,-20.5687 l 17.71408,0 0,-17.2219 c 0,-23.6883 -0.8209,-22.7781 20.54282,-22.7781 13.44371,0 16.95775,0.3695 18.24326,1.9185 1.1558,1.3927 1.52272,6.8742 1.33872,20 l -0.25347,18.0815 18.6206,0 c 23.81687,0 22.75807,-0.9385 22.75807,20.172 0,10.5302 -0.50782,16.2806 -1.5625,17.6939 -1.31902,1.7675 -4.48435,2.1456 -20.3125,2.4264 l -18.75,0.3327 -0.33269,18.75 c -0.28084,15.8282 -0.65895,18.9935 -2.42641,20.3125 -1.40963,1.052 -7.12093,1.5625 -17.47982,1.5625 -13.71942,0 -15.65689,-0.2708 -17.88608,-2.5 z m -92.534741,-33.9762 c -2.27979,-9.9142 -3.020384,-34.8055 -1.305363,-43.8731 6.366384,-33.6602 26.665674,-62.55555 55.385054,-78.83876 16.64095,-9.43504 30.95317,-13.50443 50.17712,-14.26686 10.28553,-0.40793 19.28585,-0.0686 24.92946,0.94002 31.54174,5.63682 58.39723,23.64882 75.83255,50.8609 8.43779,13.1693 7.98413,14.6541 -0.63022,2.0627 -6.56846,-9.6009 -20.50196,-24.15869 -23.12274,-24.15869 -0.67712,0 -1.23112,-0.45059 -1.23112,-1.0013 0,-1.30823 -17.42168,-11.76717 -26.36209,-15.82624 -16.44253,-7.46511 -39.21524,-10.7209 -57.35212,-8.19957 -24.11652,3.3526 -49.4524,16.35758 -65.047062,33.3889 -14.841576,16.2088 -26.992579,40.8086 -30.534034,61.8163 -1.223549,7.2581 -0.927194,28.5779 0.499883,35.9617 1.707567,8.8351 0.735993,9.7241 -1.239318,1.134 z"
         id="path4775"
         inkscape:connector-curvature="0" />
      <path
         style="fill:#0f3f83"
         d="m 358.72374,1319.6086 c -1.45473,-0.7049 -25.64223,-26.5723 -53.75,-57.4831 -36.44087,-40.075 -51.2223,-57.1684 -51.51372,-59.5713 -0.25673,-2.1168 0.0218,-2.9049 0.749,-2.1197 0.63671,0.6875 15.24969,16.7188 32.47325,35.625 17.22356,18.9063 34.66821,37.6555 38.7659,41.6651 6.77485,6.6291 7.51387,7.047 8.15127,4.6095 0.5807,-2.2205 -6.19907,-9.5753 -39.51488,-42.8659 -22.11872,-22.102 -40.58378,-40.0849 -41.03347,-39.962 -0.44968,0.1228 -1.51421,-0.616 -2.36562,-1.6419 -1.86184,-2.2433 -0.50214,-4.1152 1.52022,-2.0928 1.06044,1.0604 5.48135,-2.4007 17.44729,-13.6594 l 16.02696,-15.0798 17.48744,16.5435 c 21.4969,20.3364 85.38425,85.8424 87.37534,89.589 3.19704,6.0159 1.84332,9.5925 -8.7265,23.056 l -10.17748,12.9637 11.73998,-11.1493 c 18.13551,-17.2232 18.61499,-17.7993 18.61499,-22.3675 0,-3.612 -1.98027,-6.0468 -16.5625,-20.3646 -9.10938,-8.9442 -28.23267,-26.8333 -42.49622,-39.7534 -14.3344,-12.9844 -25.56947,-24.0805 -25.11936,-24.8088 0.49191,-0.796 0.21175,-0.9452 -0.70759,-0.3771 -0.95208,0.5885 -4.4212,-1.7964 -9.26526,-6.3693 -4.25884,-4.0205 -10.45364,-9.7516 -13.76621,-12.7358 -6.2843,-5.6613 -6.85874,-7.8874 -1.39266,-5.3969 1.9123,0.8713 2.84306,2.0371 2.31215,2.8962 -0.48874,0.7908 -0.35172,1.106 0.3045,0.7004 0.65622,-0.4056 3.56798,1.7443 6.47058,4.7776 2.90262,3.0332 6.39012,6.1104 7.75002,6.8382 1.3599,0.7278 2.47255,2.1472 2.47255,3.1543 0,1.007 0.66611,1.831 1.48025,1.831 0.81413,0 5.80632,4.3594 11.09376,9.6875 5.28742,5.3281 13.76194,13.5292 18.83225,18.2247 31.70425,29.3604 66.09374,63.0358 66.09374,64.7215 0,0.8635 -9.11839,10.7492 -20.2631,21.9682 -17.55803,17.675 -20.7703,20.3868 -24.0625,20.3135 -2.08967,-0.046 -4.98964,-0.6613 -6.44437,-1.3663 z M 237.56731,1195.9763 c -1.45527,-2.3546 0.35548,-2.6666 4.00338,-0.6897 l 3.54802,1.9228 -3.36373,0.05 c -1.85005,0.028 -3.7345,-0.5499 -4.18767,-1.2831 z m -85.29547,-56.8627 c -2.66009,-1.8632 -2.77813,-2.7395 -2.77813,-20.625 l 0,-18.6791 -18.66072,0 c -15.29762,0 -19.01472,-0.354 -20.625,-1.9643 -2.63384,-2.6338 -2.90667,-33.1975 -0.31553,-35.3479 0.98606,-0.8184 9.15039,-1.5079 20.3125,-1.7156 l 18.66375,-0.3472 0.33268,-18.75 c 0.28084,-15.8281 0.65895,-18.9935 2.42641,-20.3125 2.51275,-1.8752 31.22747,-2.1631 34.11591,-0.3421 1.48518,0.9364 2.00493,5.1554 2.5,20.2934 l 0.625,19.1112 18.75,0.3327 c 15.82815,0.2808 18.99348,0.6589 20.3125,2.4264 1.04945,1.4063 1.5625,7.0822 1.5625,17.2861 0,20.1484 0.97025,19.3298 -22.91093,19.3298 l -18.33907,0 0,18.6791 c 0,23.3157 0.6393,22.5709 -19.375,22.5709 -10.48395,0 -14.48917,-0.4696 -16.59687,-1.9459 z"
         id="path4773"
         inkscape:connector-curvature="0" />
      <path
         style="fill:#033372"
         d="m 358.65411,1318.872 c -2.15908,-1.2031 -24.85464,-25.25 -50.43457,-53.4375 -25.57993,-28.1875 -48.46727,-53.297 -50.86075,-55.7989 -2.46337,-2.5749 -4.16482,-5.5108 -3.92093,-6.7656 0.30418,-1.5651 7.4103,5.4685 24.17067,23.9239 31.85434,35.0757 39.38938,43.0379 51.88518,54.8261 5.84375,5.5128 10.208,9.5218 9.69835,8.9089 -0.50967,-0.6129 -0.2743,-1.9004 0.52303,-2.8611 1.17448,-1.4152 -6.71793,-9.9028 -41.57335,-44.7084 -23.66267,-23.6289 -43.02303,-43.7071 -43.02303,-44.6182 0,-0.9112 6.9619,-8.4067 15.47087,-16.6567 8.50899,-8.25 15.23129,-14.2138 14.93845,-13.2528 -0.29282,0.9609 2.28339,4.3359 5.72493,7.5 3.44155,3.164 7.60666,7.3107 9.25581,9.2148 1.64916,1.9042 3.91092,3.3104 5.02615,3.125 1.11522,-0.1853 2.04031,0.3119 2.05574,1.1051 0.029,1.4883 6.88096,8.4777 8.36138,8.529 0.45833,0.016 1.30208,0.541 1.875,1.1668 0.6052,0.6611 0.38697,0.7612 -0.52083,0.2387 -0.85938,-0.4945 -1.5625,-0.3034 -1.5625,0.4246 0,0.7281 0.42187,1.3265 0.9375,1.3298 1.80173,0.011 10.15395,8.4867 9.29953,9.4365 -0.47412,0.5271 -0.18605,0.5705 0.64015,0.096 1.63258,-0.9367 11.2289,7.6394 10.65434,9.5217 -0.1889,0.6189 0.13581,0.829 0.7216,0.467 1.53201,-0.9469 51.15318,49.4057 52.70161,53.4784 2.33938,6.153 1.40827,8.3807 -9.01723,21.574 -15.60794,19.7516 -15.2954,19.9498 3.00312,1.9046 15.01546,-14.8076 17.05966,-16.4166 18.55978,-14.6091 1.48453,1.7888 -0.46484,4.1857 -16.32864,20.0779 -19.36668,19.4013 -20.63126,20.1109 -28.26136,15.8591 z m -207.6604,-180.5625 c -1.03154,-1.0315 -1.5,-7.2778 -1.5,-20 l 0,-18.5 -17.58218,0 c -9.72941,0 -18.66206,-0.5779 -20,-1.294 -2.20388,-1.1795 -2.41782,-2.7611 -2.41782,-17.875 0,-11.2297 0.4841,-17.0651 1.5,-18.081 1.91964,-1.9196 36.2254,-2.0743 40.14467,-0.181 2.47893,1.1975 2.52891,1.156 0.54283,-0.4503 -1.90243,-1.5387 -2.1875,-4.1445 -2.1875,-19.9952 0,-10.0243 0.42187,-18.4881 0.9375,-18.8085 0.51562,-0.3205 0.76472,6.3963 0.55355,14.9262 -0.23853,9.6353 0.0836,15.5088 0.85057,15.5088 0.67897,0 1.47629,-0.9844 1.77182,-2.1875 0.29553,-1.2031 0.3362,-0.5 0.0904,1.5625 l -0.44695,3.75 16.74945,0 c 15.86263,0 16.68437,-0.1215 15.52028,-2.2945 -0.67603,-1.2621 -0.90233,-2.6214 -0.50288,-3.0209 0.39945,-0.3994 0.83941,0.071 0.9777,1.0446 0.13828,0.9739 0.60246,-4.9792 1.03153,-13.2292 l 0.78011,-15 -0.094,18.75 -0.094,18.75 18.54509,-0.3763 c 12.85743,-0.2608 19.08713,0.074 20.3125,1.0906 1.36161,1.13 1.76741,5.2961 1.76741,18.1448 0,15.2097 -0.21286,16.7919 -2.41783,17.9719 -1.33793,0.7161 -10.27058,1.294 -20,1.294 l -17.58223,0 0,17.5822 c 0,9.7294 -0.57794,18.662 -1.29398,20 -1.17949,2.2039 -2.76115,2.4178 -17.875,2.4178 -11.22969,0 -17.06513,-0.4841 -18.08102,-1.5 z m 1.43134,-80.4289 c -0.4071,-1.0609 -1.00828,-1.6608 -1.33594,-1.3332 -0.32766,0.3277 -0.22497,1.1957 0.2282,1.9289 1.23256,1.9944 1.95297,1.6069 1.10774,-0.5957 z m 32.06866,-35.5711 c -1.12662,-0.7281 -1.28079,-1.2193 -0.38628,-1.2308 0.8188,-0.01 1.83638,0.5433 2.26128,1.2308 0.95912,1.5519 0.5264,1.5519 -1.875,0 z"
         id="path4771"
         inkscape:connector-curvature="0" />
      <path
         style="fill:#0d0d0d"
         d="m 358.65317,1318.872 c -5.57803,-3.1076 -105.68316,-113.6107 -105.18464,-116.1103 0.25366,-1.2718 13.33353,12.2019 35.72586,36.8016 19.42913,21.3444 38.89775,41.9441 43.26363,45.7771 7.34971,6.4527 10.70842,8.6279 8.96407,5.8055 -0.39555,-0.64 -0.0829,-1.5569 0.69478,-2.0375 0.86142,-0.5324 -16.10155,-18.3944 -43.41068,-45.7114 l -44.8246,-44.8376 15.09773,-15.0977 c 8.30375,-8.3038 15.09772,-14.2348 15.09772,-13.18 0,1.0548 -0.47407,1.6248 -1.05348,1.2667 -0.57943,-0.3581 3.51925,3.7448 9.10816,9.1175 5.58891,5.3727 14.53902,13.9874 19.88916,19.1436 5.35013,5.1563 18.8674,18.0938 30.03839,28.75 11.17099,10.6563 21.06992,20.1183 21.99766,21.0268 0.92773,0.9085 1.68678,2.2073 1.68678,2.8863 0,0.6789 0.45652,0.9523 1.01451,0.6074 0.55797,-0.3448 3.976,2.4411 7.59561,6.191 3.6196,3.7498 7.09413,6.5008 7.72116,6.1133 0.62705,-0.3876 0.80509,0.1683 0.39567,1.2353 -0.67865,1.7685 0.74763,2.5661 3.67846,2.057 0.56672,-0.099 0.67415,0.3974 0.23872,1.1019 -0.43542,0.7046 0.17902,1.281 1.36543,1.281 1.18641,0 1.80889,0.3482 1.3833,0.7738 -0.4256,0.4256 0.0431,1.5908 1.04166,2.5893 4.12848,4.1285 1.80225,8.6547 -15.6172,30.3869 -8.87119,11.0676 -7.85455,10.4109 8.22449,-5.3125 8.96391,-8.7656 16.98601,-15.9375 17.82687,-15.9375 0.84088,0 1.18122,0.5625 0.75632,1.25 -0.4249,0.6875 -0.0438,1.25 0.84698,1.25 0.89074,0 -6.24041,7.875 -15.84698,17.5 -18.78292,18.8189 -20.10773,19.5509 -27.71554,15.3125 z"
         id="path4769"
         inkscape:connector-curvature="0" />
    </g>
  </g>
</svg>
